<svg viewBox="0 0 24 24" fill="none" xmlns="http://www.w3.org/2000/svg" xmlns:xlink="http://www.w3.org/1999/xlink">
	<desc>
			Created with Pixso.
	</desc>
	<defs>
		<clipPath id="clip272_52">
			<rect id="svg" width="100.000000" height="100.000000" fill="white" fill-opacity="0"/>
		</clipPath>
	</defs>
	<g clip-path="url(#clip272_52)">
		<path id="path" d="M17.04 5.94L6.95 5.94C6.39 5.94 5.94 6.39 5.94 6.95L5.94 17.04C5.94 17.6 6.39 18.05 6.95 18.05L17.04 18.05C17.6 18.05 18.05 17.6 18.05 17.04L18.05 6.95C18.05 6.39 17.6 5.94 17.04 5.94Z" fill="#000000" fill-opacity="0" fill-rule="nonzero"/>
		<path id="path" d="M6.95 5.94C6.39 5.94 5.94 6.39 5.94 6.95L5.94 17.04C5.94 17.6 6.39 18.05 6.95 18.05L17.04 18.05C17.6 18.05 18.05 17.6 18.05 17.04L18.05 6.95C18.05 6.39 17.6 5.94 17.04 5.94L6.95 5.94Z" stroke="#4C4C4C" stroke-opacity="1.000000" stroke-width="1.000000"/>
		<path id="path" d="M9.09 15.15L9.11 15.18C9.02 15.45 8.74 15.58 8.47 15.5C8.21 15.41 8.07 15.13 8.16 14.86L8.18 14.85L9.09 15.15ZM10.19 8.84L10.18 8.81C10.26 8.54 10.54 8.41 10.81 8.49C11.07 8.58 11.21 8.86 11.12 9.13L11.1 9.14L10.19 8.84Z" fill="#000000" fill-opacity="0" fill-rule="nonzero"/>
		<path id="path" d="M8.63 15.02L10.65 8.97" stroke="#4C4C4C" stroke-opacity="1.000000" stroke-width="1.000000" stroke-linejoin="round" stroke-linecap="round"/>
		<path id="path" d="M14.2 12.35L14.18 12.33C14.18 12.05 14.4 11.83 14.68 11.83C14.96 11.83 15.18 12.05 15.18 12.33L15.16 12.35L14.2 12.35ZM15.16 15L15.18 15.02C15.18 15.3 14.96 15.52 14.68 15.52C14.4 15.52 14.18 15.3 14.18 15.02L14.2 15L15.16 15Z" fill="#000000" fill-opacity="0" fill-rule="nonzero"/>
		<path id="path" d="M14.68 12.33L14.68 15.02" stroke="#4C4C4C" stroke-opacity="1.000000" stroke-width="1.000000" stroke-linejoin="round" stroke-linecap="round"/>
		<path id="path" d="M14.2 10.33L14.18 10.31C14.18 10.03 14.4 9.81 14.68 9.81C14.96 9.81 15.18 10.03 15.18 10.31L15.16 10.33L14.2 10.33ZM15.16 10.63L15.18 10.65C15.18 10.93 14.96 11.15 14.68 11.15C14.4 11.15 14.18 10.93 14.18 10.65L14.2 10.63L15.16 10.63Z" fill="#000000" fill-opacity="0" fill-rule="nonzero"/>
		<path id="path" d="M14.68 10.31L14.68 10.65" stroke="#4C4C4C" stroke-opacity="1.000000" stroke-width="1.000000" stroke-linejoin="round" stroke-linecap="round"/>
		<path id="path" d="M10.2 9.14L10.18 9.13C10.09 8.86 10.23 8.58 10.49 8.49C10.76 8.41 11.04 8.54 11.12 8.81L11.11 8.84L10.2 9.14ZM13.12 14.85L13.14 14.86C13.23 15.13 13.09 15.41 12.83 15.5C12.56 15.58 12.28 15.45 12.19 15.18L12.21 15.15L13.12 14.85Z" fill="#000000" fill-opacity="0" fill-rule="nonzero"/>
		<path id="path" d="M10.65 8.97L12.67 15.02" stroke="#4C4C4C" stroke-opacity="1.000000" stroke-width="1.000000" stroke-linejoin="round" stroke-linecap="round"/>
		<path id="path" d="M9.33 13.48L9.31 13.5C9.03 13.5 8.81 13.28 8.81 13C8.81 12.72 9.03 12.5 9.31 12.5L9.33 12.52L9.33 13.48ZM11.98 12.52L12 12.5C12.28 12.5 12.5 12.72 12.5 13C12.5 13.28 12.28 13.5 12 13.5L11.98 13.48L11.98 12.52Z" fill="#000000" fill-opacity="0" fill-rule="nonzero"/>
		<path id="path" d="M9.31 13L12 13" stroke="#4C4C4C" stroke-opacity="1.000000" stroke-width="1.000000" stroke-linejoin="round" stroke-linecap="round"/>
	</g>
</svg>
