<svg width="24.000000" height="24.000000" viewBox="0 0 24 24" fill="none" xmlns="http://www.w3.org/2000/svg" xmlns:xlink="http://www.w3.org/1999/xlink">
	<desc>
			Created with Pixso.
	</desc>
	<defs>
		<clipPath id="clip221_760">
			<rect id="svg" width="24.000000" height="24.000000" fill="white" fill-opacity="0"/>
		</clipPath>
	</defs>
	<g clip-path="url(#clip221_760)">
		<path id="矢量 66" d="M4.38 5.47C4.38 5.19 4.63 4.97 4.96 4.97L19.03 4.97C19.36 4.97 19.61 5.19 19.61 5.47C19.61 5.75 19.36 5.97 19.03 5.97L4.96 5.97C4.63 5.97 4.38 5.75 4.38 5.47ZM6.88 9.82C6.88 9.54 7.13 9.32 7.46 9.32L16.53 9.32C16.86 9.32 17.11 9.54 17.11 9.82C17.11 10.1 16.86 10.32 16.53 10.32L7.46 10.32C7.13 10.32 6.88 10.1 6.88 9.82ZM7.48 13.64C7.15 13.64 6.89 13.86 6.89 14.14C6.89 14.42 7.15 14.64 7.48 14.64L16.54 14.64C16.87 14.64 17.13 14.42 17.13 14.14C17.13 13.86 16.87 13.64 16.54 13.64L7.48 13.64ZM4.37 18.52C4.37 18.24 4.63 18.02 4.95 18.02L19.02 18.02C19.35 18.02 19.6 18.24 19.6 18.52C19.6 18.8 19.35 19.02 19.02 19.02L4.95 19.02C4.63 19.02 4.37 18.8 4.37 18.52Z" fill="#4C4C4C" fill-opacity="1.000000" fill-rule="evenodd"/>
		<path id="矢量 66" d="M4.38 5.47C4.38 5.75 4.63 5.97 4.96 5.97L19.03 5.97C19.36 5.97 19.61 5.75 19.61 5.47C19.61 5.19 19.36 4.97 19.03 4.97L4.96 4.97C4.63 4.97 4.38 5.19 4.38 5.47ZM6.88 9.82C6.88 10.1 7.13 10.32 7.46 10.32L16.53 10.32C16.86 10.32 17.11 10.1 17.11 9.82C17.11 9.54 16.86 9.32 16.53 9.32L7.46 9.32C7.13 9.32 6.88 9.54 6.88 9.82ZM6.89 14.14C6.89 14.42 7.15 14.64 7.48 14.64L16.54 14.64C16.87 14.64 17.13 14.42 17.13 14.14C17.13 13.86 16.87 13.64 16.54 13.64L7.48 13.64C7.15 13.64 6.89 13.86 6.89 14.14ZM4.37 18.52C4.37 18.8 4.63 19.02 4.95 19.02L19.02 19.02C19.35 19.02 19.6 18.8 19.6 18.52C19.6 18.24 19.35 18.02 19.02 18.02L4.95 18.02C4.63 18.02 4.37 18.24 4.37 18.52Z" stroke="#4C4C4C" stroke-opacity="1.000000" stroke-width="0.400000"/>
	</g>
</svg>
