<svg width="24.000000" height="24.000000" viewBox="0 0 24 24" fill="none" xmlns="http://www.w3.org/2000/svg" xmlns:xlink="http://www.w3.org/1999/xlink">
	<desc>
			Created with Pixso.
	</desc>
	<defs>
		<clipPath id="clip221_759">
			<rect id="svg" width="24.000000" height="24.000000" fill="white" fill-opacity="0"/>
		</clipPath>
	</defs>
	<g clip-path="url(#clip221_759)">
		<path id="矢量 66" d="M4.38 5.47C4.38 5.19 4.63 4.97 4.96 4.97L19.03 4.97C19.36 4.97 19.61 5.19 19.61 5.47C19.61 5.75 19.36 5.97 19.03 5.97L4.96 5.97C4.63 5.97 4.38 5.75 4.38 5.47ZM4.31 9.82C4.31 9.54 4.57 9.32 4.9 9.32L18.96 9.32C19.29 9.32 19.55 9.54 19.55 9.82C19.55 10.1 19.29 10.32 18.96 10.32L4.9 10.32C4.57 10.32 4.31 10.1 4.31 9.82ZM4.96 13.67C4.63 13.67 4.38 13.89 4.38 14.17C4.38 14.45 4.63 14.67 4.96 14.67L19.03 14.67C19.36 14.67 19.61 14.45 19.61 14.17C19.61 13.89 19.36 13.67 19.03 13.67L4.96 13.67ZM4.38 18.54C4.38 18.26 4.63 18.04 4.96 18.04L19.03 18.04C19.36 18.04 19.61 18.26 19.61 18.54C19.61 18.82 19.36 19.04 19.03 19.04L4.96 19.04C4.63 19.04 4.38 18.82 4.38 18.54Z" fill="#4C4C4C" fill-opacity="1.000000" fill-rule="evenodd"/>
		<path id="矢量 66" d="M4.38 5.47C4.38 5.75 4.63 5.97 4.96 5.97L19.03 5.97C19.36 5.97 19.61 5.75 19.61 5.47C19.61 5.19 19.36 4.97 19.03 4.97L4.96 4.97C4.63 4.97 4.38 5.19 4.38 5.47ZM4.31 9.82C4.31 10.1 4.57 10.32 4.9 10.32L18.96 10.32C19.29 10.32 19.55 10.1 19.55 9.82C19.55 9.54 19.29 9.32 18.96 9.32L4.9 9.32C4.57 9.32 4.31 9.54 4.31 9.82ZM4.38 14.17C4.38 14.45 4.63 14.67 4.96 14.67L19.03 14.67C19.36 14.67 19.61 14.45 19.61 14.17C19.61 13.89 19.36 13.67 19.03 13.67L4.96 13.67C4.63 13.67 4.38 13.89 4.38 14.17ZM4.38 18.54C4.38 18.82 4.63 19.04 4.96 19.04L19.03 19.04C19.36 19.04 19.61 18.82 19.61 18.54C19.61 18.26 19.36 18.04 19.03 18.04L4.96 18.04C4.63 18.04 4.38 18.26 4.38 18.54Z" stroke="#4C4C4C" stroke-opacity="1.000000" stroke-width="0.400000"/>
	</g>
</svg>
