<svg width="24.000000" height="24.000000" viewBox="0 0 24 24" fill="none" xmlns="http://www.w3.org/2000/svg" xmlns:xlink="http://www.w3.org/1999/xlink">
	<desc>
			Created with Pixso.
	</desc>
	<defs>
		<clipPath id="clip221_757">
			<rect id="svg" width="24.000000" height="24.000000" transform="matrix(-1 0 0 1 24 0)" fill="white" fill-opacity="0"/>
		</clipPath>
	</defs>
	<g clip-path="url(#clip221_757)">
		<path id="矢量 66" d="M19.61 5.47C19.61 5.19 19.36 4.97 19.03 4.97L4.96 4.97C4.63 4.97 4.38 5.19 4.38 5.47C4.38 5.75 4.63 5.97 4.96 5.97L19.03 5.97C19.36 5.97 19.61 5.75 19.61 5.47ZM19.68 9.82C19.68 9.54 19.43 9.32 19.1 9.32L9.03 9.32C8.71 9.32 8.45 9.54 8.45 9.82C8.45 10.1 8.71 10.32 9.03 10.32L19.1 10.32C19.43 10.32 19.68 10.1 19.68 9.82ZM19.03 13.67C19.36 13.67 19.61 13.89 19.61 14.17C19.61 14.45 19.36 14.67 19.03 14.67L8.96 14.67C8.63 14.67 8.38 14.45 8.38 14.17C8.38 13.89 8.63 13.67 8.96 13.67L19.03 13.67ZM19.46 18.54C19.46 18.26 19.24 18.04 18.96 18.04L4.96 18.04C4.68 18.04 4.46 18.26 4.46 18.54C4.46 18.82 4.68 19.04 4.96 19.04L18.96 19.04C19.24 19.04 19.46 18.82 19.46 18.54Z" fill="#4C4C4C" fill-opacity="1.000000" fill-rule="evenodd"/>
		<path id="矢量 66" d="M19.61 5.47C19.61 5.75 19.36 5.97 19.03 5.97L4.96 5.97C4.63 5.97 4.38 5.75 4.38 5.47C4.38 5.19 4.63 4.97 4.96 4.97L19.03 4.97C19.36 4.97 19.61 5.19 19.61 5.47ZM19.68 9.82C19.68 10.1 19.43 10.32 19.1 10.32L9.03 10.32C8.71 10.32 8.45 10.1 8.45 9.82C8.45 9.54 8.71 9.32 9.03 9.32L19.1 9.32C19.43 9.32 19.68 9.54 19.68 9.82ZM19.61 14.17C19.61 14.45 19.36 14.67 19.03 14.67L8.96 14.67C8.63 14.67 8.38 14.45 8.38 14.17C8.38 13.89 8.63 13.67 8.96 13.67L19.03 13.67C19.36 13.67 19.61 13.89 19.61 14.17ZM19.46 18.54C19.46 18.82 19.24 19.04 18.96 19.04L4.96 19.04C4.68 19.04 4.46 18.82 4.46 18.54C4.46 18.26 4.68 18.04 4.96 18.04L18.96 18.04C19.24 18.04 19.46 18.26 19.46 18.54Z" stroke="#4C4C4C" stroke-opacity="1.000000" stroke-width="0.400000"/>
	</g>
</svg>
