<svg width="24.000000" height="24.000000" viewBox="0 0 24 24" fill="none" xmlns="http://www.w3.org/2000/svg" xmlns:xlink="http://www.w3.org/1999/xlink">
	<desc>
			Created with Pixso.
	</desc>
	<defs>
		<clipPath id="clip221_756">
			<rect id="svg" width="24.000000" height="24.000000" fill="white" fill-opacity="0"/>
		</clipPath>
	</defs>
	<g clip-path="url(#clip221_756)">
		<path id="矢量 66" d="M4.38 5.47C4.38 5.19 4.64 4.97 4.96 4.97L19.03 4.97C19.36 4.97 19.61 5.19 19.61 5.47C19.61 5.75 19.36 5.97 19.03 5.97L4.96 5.97C4.64 5.97 4.38 5.75 4.38 5.47ZM4.31 9.82C4.31 9.54 4.56 9.32 4.89 9.32L14.96 9.32C15.28 9.32 15.54 9.54 15.54 9.82C15.54 10.1 15.28 10.32 14.96 10.32L4.89 10.32C4.56 10.32 4.31 10.1 4.31 9.82ZM4.96 13.67C4.64 13.67 4.38 13.89 4.38 14.17C4.38 14.45 4.64 14.67 4.96 14.67L15.03 14.67C15.36 14.67 15.61 14.45 15.61 14.17C15.61 13.89 15.36 13.67 15.03 13.67L4.96 13.67ZM4.53 18.54C4.53 18.26 4.75 18.04 5.03 18.04L19.03 18.04C19.31 18.04 19.53 18.26 19.53 18.54C19.53 18.82 19.31 19.04 19.03 19.04L5.03 19.04C4.75 19.04 4.53 18.82 4.53 18.54Z" fill="#4C4C4C" fill-opacity="1.000000" fill-rule="evenodd"/>
		<path id="矢量 66" d="M4.38 5.47C4.38 5.75 4.64 5.97 4.96 5.97L19.03 5.97C19.36 5.97 19.61 5.75 19.61 5.47C19.61 5.19 19.36 4.97 19.03 4.97L4.96 4.97C4.64 4.97 4.38 5.19 4.38 5.47ZM4.31 9.82C4.31 10.1 4.56 10.32 4.89 10.32L14.96 10.32C15.28 10.32 15.54 10.1 15.54 9.82C15.54 9.54 15.28 9.32 14.96 9.32L4.89 9.32C4.56 9.32 4.31 9.54 4.31 9.82ZM4.38 14.17C4.38 14.45 4.64 14.67 4.96 14.67L15.03 14.67C15.36 14.67 15.61 14.45 15.61 14.17C15.61 13.89 15.36 13.67 15.03 13.67L4.96 13.67C4.64 13.67 4.38 13.89 4.38 14.17ZM4.53 18.54C4.53 18.82 4.75 19.04 5.03 19.04L19.03 19.04C19.31 19.04 19.53 18.82 19.53 18.54C19.53 18.26 19.31 18.04 19.03 18.04L5.03 18.04C4.75 18.04 4.53 18.26 4.53 18.54Z" stroke="#4C4C4C" stroke-opacity="1.000000" stroke-width="0.400000"/>
	</g>
</svg>
