<svg width="24.000000" height="24.000000" viewBox="0 0 24 24" fill="none" xmlns="http://www.w3.org/2000/svg" xmlns:xlink="http://www.w3.org/1999/xlink">
	<desc>
			Created with Pixso.
	</desc>
	<defs>
		<clipPath id="clip221_91">
			<rect id="svg" width="24.000000" height="24.000000" fill="white" fill-opacity="0"/>
		</clipPath>
	</defs>
	<g clip-path="url(#clip221_91)">
		<path id="矢量 60" d="M8.66 5.6C8.38 5.6 8.16 5.82 8.16 6.1C8.16 6.38 8.38 6.6 8.66 6.6L20.66 6.6C20.94 6.6 21.16 6.38 21.16 6.1C21.16 5.82 20.94 5.6 20.66 5.6L8.66 5.6ZM8.66 12.17C8.38 12.17 8.16 12.39 8.16 12.67C8.16 12.95 8.38 13.17 8.66 13.17L20.66 13.17C20.94 13.17 21.16 12.95 21.16 12.67C21.16 12.39 20.94 12.17 20.66 12.17L8.66 12.17ZM8.16 19.15C8.16 18.87 8.38 18.65 8.66 18.65L20.66 18.65C20.94 18.65 21.16 18.87 21.16 19.15C21.16 19.43 20.94 19.65 20.66 19.65L8.66 19.65C8.38 19.65 8.16 19.43 8.16 19.15Z" fill="#4C4C4C" fill-opacity="1.000000" fill-rule="evenodd"/>
		<path id="矢量 60" d="M8.16 6.1C8.16 6.38 8.38 6.6 8.66 6.6L20.66 6.6C20.94 6.6 21.16 6.38 21.16 6.1C21.16 5.82 20.94 5.6 20.66 5.6L8.66 5.6C8.38 5.6 8.16 5.82 8.16 6.1ZM8.16 12.67C8.16 12.95 8.38 13.17 8.66 13.17L20.66 13.17C20.94 13.17 21.16 12.95 21.16 12.67C21.16 12.39 20.94 12.17 20.66 12.17L8.66 12.17C8.38 12.17 8.16 12.39 8.16 12.67ZM8.16 19.15C8.16 19.43 8.38 19.65 8.66 19.65L20.66 19.65C20.94 19.65 21.16 19.43 21.16 19.15C21.16 18.87 20.94 18.65 20.66 18.65L8.66 18.65C8.38 18.65 8.16 18.87 8.16 19.15Z" stroke="#4C4C4C" stroke-opacity="1.000000" stroke-width="0.400000"/>
		<path id="矢量 46" d="M4.19 6.1C4.19 5.55 4.64 5.1 5.19 5.1C5.74 5.1 6.19 5.55 6.19 6.1C6.19 6.66 5.74 7.1 5.19 7.1C4.64 7.1 4.19 6.66 4.19 6.1ZM4.19 12.67C4.19 12.12 4.64 11.67 5.19 11.67C5.74 11.67 6.19 12.12 6.19 12.67C6.19 13.22 5.74 13.67 5.19 13.67C4.64 13.67 4.19 13.22 4.19 12.67ZM5.19 18.15C4.64 18.15 4.19 18.6 4.19 19.15C4.19 19.7 4.64 20.15 5.19 20.15C5.74 20.15 6.19 19.7 6.19 19.15C6.19 18.6 5.74 18.15 5.19 18.15Z" fill="#4C4C4C" fill-opacity="1.000000" fill-rule="evenodd"/>
	</g>
</svg>
