<svg width="24.000000" height="24.000000" viewBox="0 0 24 24" fill="none" xmlns="http://www.w3.org/2000/svg" xmlns:xlink="http://www.w3.org/1999/xlink">
	<desc>
			Created with Pixso.
	</desc>
	<defs>
		<clipPath id="clip272_9">
			<rect id="svg" width="24.000000" height="24.000000" fill="white" fill-opacity="0"/>
		</clipPath>
	</defs>
	<g clip-path="url(#clip272_9)">
		<path id="path" d="M12 5.65C11.89 5.65 11.79 5.66 11.68 5.66C11.58 5.67 11.48 5.67 11.37 5.68C11.27 5.69 11.17 5.71 11.07 5.72C10.96 5.74 10.86 5.76 10.76 5.78C10.66 5.8 10.56 5.82 10.46 5.84C10.35 5.87 10.25 5.9 10.16 5.93C10.06 5.96 9.96 5.99 9.86 6.02C9.76 6.06 9.66 6.1 9.57 6.14C9.47 6.18 9.38 6.22 9.28 6.26C9.19 6.31 9.1 6.35 9.01 6.4C8.91 6.45 8.82 6.5 8.74 6.56C8.65 6.61 8.56 6.67 8.47 6.72C8.39 6.78 8.3 6.84 8.22 6.9C8.13 6.96 8.05 7.03 7.97 7.09C7.89 7.16 7.81 7.23 7.74 7.3C7.66 7.37 7.58 7.44 7.51 7.51C7.44 7.59 7.37 7.66 7.3 7.74C7.23 7.81 7.16 7.89 7.09 7.97C7.03 8.05 6.96 8.13 6.9 8.22C6.84 8.3 6.78 8.39 6.72 8.47C6.66 8.56 6.61 8.65 6.56 8.74C6.5 8.82 6.45 8.91 6.4 9.01C6.35 9.1 6.31 9.19 6.26 9.28C6.22 9.38 6.18 9.47 6.14 9.57C6.1 9.67 6.06 9.76 6.02 9.86C5.99 9.96 5.96 10.06 5.93 10.16C5.9 10.25 5.87 10.35 5.84 10.46C5.82 10.56 5.8 10.66 5.78 10.76C5.76 10.86 5.74 10.96 5.72 11.07C5.71 11.17 5.69 11.27 5.68 11.37C5.67 11.48 5.67 11.58 5.66 11.69C5.66 11.79 5.65 11.89 5.65 12C5.65 12.1 5.66 12.2 5.66 12.31C5.67 12.41 5.67 12.51 5.68 12.62C5.69 12.72 5.71 12.82 5.72 12.93C5.74 13.03 5.76 13.13 5.78 13.23C5.8 13.34 5.82 13.44 5.84 13.54C5.87 13.64 5.9 13.74 5.93 13.84C5.96 13.94 5.99 14.04 6.02 14.13C6.06 14.23 6.1 14.33 6.14 14.42C6.18 14.52 6.22 14.61 6.26 14.71C6.31 14.8 6.35 14.89 6.4 14.99C6.45 15.08 6.5 15.17 6.56 15.26C6.61 15.35 6.66 15.43 6.72 15.52C6.78 15.61 6.84 15.69 6.9 15.77C6.96 15.86 7.03 15.94 7.09 16.02C7.16 16.1 7.23 16.18 7.3 16.26C7.37 16.33 7.44 16.41 7.51 16.48C7.58 16.55 7.66 16.63 7.74 16.7C7.81 16.77 7.89 16.83 7.97 16.9C8.05 16.96 8.13 17.03 8.22 17.09C8.3 17.15 8.39 17.21 8.47 17.27C8.56 17.33 8.65 17.38 8.74 17.44C8.82 17.49 8.91 17.54 9.01 17.59C9.1 17.64 9.19 17.69 9.28 17.73C9.38 17.77 9.47 17.82 9.57 17.86C9.66 17.9 9.76 17.93 9.86 17.97C9.96 18 10.06 18.04 10.16 18.07C10.25 18.1 10.35 18.12 10.46 18.15C10.56 18.17 10.66 18.2 10.76 18.22C10.86 18.24 10.96 18.26 11.07 18.27C11.17 18.29 11.27 18.3 11.37 18.31C11.48 18.32 11.58 18.33 11.68 18.33C11.79 18.34 11.89 18.34 12 18.34C12.1 18.34 12.2 18.34 12.31 18.33C12.41 18.33 12.51 18.32 12.62 18.31C12.72 18.3 12.82 18.29 12.93 18.27C13.03 18.25 13.13 18.24 13.23 18.22C13.33 18.2 13.44 18.17 13.54 18.15C13.64 18.12 13.74 18.1 13.84 18.07C13.94 18.04 14.03 18 14.13 17.97C14.23 17.93 14.33 17.9 14.42 17.86C14.52 17.82 14.61 17.77 14.71 17.73C14.8 17.68 14.89 17.64 14.99 17.59C15.08 17.54 15.17 17.49 15.26 17.44C15.34 17.38 15.43 17.33 15.52 17.27C15.61 17.21 15.69 17.15 15.77 17.09C15.86 17.03 15.94 16.96 16.02 16.9C16.1 16.83 16.18 16.76 16.25 16.7C16.33 16.63 16.41 16.55 16.48 16.48C16.55 16.41 16.62 16.33 16.69 16.26C16.76 16.18 16.83 16.1 16.9 16.02C16.96 15.94 17.03 15.86 17.09 15.77C17.15 15.69 17.21 15.61 17.27 15.52C17.33 15.43 17.38 15.35 17.43 15.26C17.49 15.17 17.54 15.08 17.59 14.99C17.64 14.89 17.68 14.8 17.73 14.71C17.77 14.61 17.81 14.52 17.85 14.42C17.89 14.33 17.93 14.23 17.97 14.13C18 14.03 18.03 13.94 18.06 13.84C18.09 13.74 18.12 13.64 18.15 13.54C18.17 13.44 18.19 13.34 18.21 13.23C18.23 13.13 18.25 13.03 18.27 12.93C18.28 12.82 18.3 12.72 18.31 12.62C18.32 12.51 18.32 12.41 18.33 12.31C18.33 12.2 18.34 12.1 18.34 12C18.34 11.89 18.33 11.79 18.33 11.69C18.32 11.58 18.32 11.48 18.31 11.37C18.3 11.27 18.28 11.17 18.27 11.07C18.25 10.96 18.23 10.86 18.21 10.76C18.19 10.66 18.17 10.56 18.15 10.46C18.12 10.35 18.09 10.26 18.06 10.16C18.03 10.06 18 9.96 17.97 9.86C17.93 9.76 17.89 9.67 17.85 9.57C17.81 9.47 17.77 9.38 17.73 9.29C17.68 9.19 17.64 9.1 17.59 9.01C17.54 8.92 17.49 8.83 17.43 8.74C17.38 8.65 17.33 8.56 17.27 8.47C17.21 8.39 17.15 8.3 17.09 8.22C17.03 8.14 16.96 8.05 16.9 7.97C16.83 7.89 16.76 7.81 16.69 7.74C16.62 7.66 16.55 7.59 16.48 7.51C16.41 7.44 16.33 7.37 16.25 7.3C16.18 7.23 16.1 7.16 16.02 7.09C15.94 7.03 15.86 6.96 15.77 6.9C15.69 6.84 15.61 6.78 15.52 6.72C15.43 6.67 15.34 6.61 15.26 6.56C15.17 6.5 15.08 6.45 14.99 6.4C14.89 6.35 14.8 6.31 14.71 6.26C14.61 6.22 14.52 6.18 14.42 6.14C14.33 6.1 14.23 6.06 14.13 6.03C14.03 5.99 13.94 5.96 13.84 5.93C13.74 5.9 13.64 5.87 13.54 5.84C13.44 5.82 13.33 5.8 13.23 5.78C13.13 5.76 13.03 5.74 12.93 5.72C12.82 5.71 12.72 5.69 12.62 5.68C12.51 5.67 12.41 5.67 12.31 5.66C12.2 5.66 12.1 5.65 12 5.65ZM12 6.57C12.08 6.57 12.17 6.58 12.26 6.58C12.35 6.58 12.44 6.59 12.53 6.6C12.62 6.61 12.7 6.62 12.79 6.63C12.88 6.64 12.97 6.66 13.05 6.68C13.14 6.69 13.23 6.71 13.31 6.74C13.4 6.76 13.49 6.78 13.57 6.81C13.66 6.83 13.74 6.86 13.82 6.89C13.91 6.92 13.99 6.95 14.07 6.99C14.15 7.02 14.23 7.06 14.31 7.09C14.4 7.13 14.47 7.17 14.55 7.21C14.63 7.26 14.71 7.3 14.78 7.34C14.86 7.39 14.94 7.44 15.01 7.49C15.08 7.54 15.16 7.59 15.23 7.64C15.3 7.69 15.37 7.75 15.44 7.8C15.51 7.86 15.57 7.92 15.64 7.98C15.7 8.04 15.77 8.1 15.83 8.16C15.89 8.22 15.95 8.29 16.01 8.35C16.07 8.42 16.13 8.49 16.19 8.56C16.24 8.62 16.3 8.69 16.35 8.77C16.4 8.84 16.46 8.91 16.51 8.98C16.55 9.06 16.6 9.13 16.65 9.21C16.69 9.28 16.74 9.36 16.78 9.44C16.82 9.52 16.86 9.6 16.9 9.68C16.94 9.76 16.97 9.84 17.01 9.92C17.04 10 17.07 10.09 17.1 10.17C17.13 10.25 17.16 10.34 17.19 10.42C17.21 10.51 17.24 10.59 17.26 10.68C17.28 10.76 17.3 10.85 17.32 10.94C17.33 11.03 17.35 11.11 17.36 11.2C17.37 11.29 17.38 11.38 17.39 11.46C17.4 11.55 17.41 11.64 17.41 11.73C17.42 11.82 17.42 11.91 17.42 12C17.42 12.09 17.42 12.17 17.41 12.26C17.41 12.35 17.4 12.44 17.39 12.53C17.38 12.62 17.37 12.7 17.36 12.79C17.35 12.88 17.33 12.97 17.32 13.05C17.3 13.14 17.28 13.23 17.26 13.31C17.24 13.4 17.21 13.49 17.19 13.57C17.16 13.66 17.13 13.74 17.1 13.82C17.07 13.91 17.04 13.99 17.01 14.07C16.97 14.15 16.94 14.23 16.9 14.32C16.86 14.4 16.82 14.47 16.78 14.55C16.74 14.63 16.69 14.71 16.65 14.78C16.6 14.86 16.55 14.94 16.51 15.01C16.46 15.08 16.4 15.16 16.35 15.23C16.3 15.3 16.24 15.37 16.19 15.44C16.13 15.51 16.07 15.57 16.01 15.64C15.95 15.7 15.89 15.77 15.83 15.83C15.77 15.89 15.7 15.96 15.64 16.01C15.57 16.07 15.51 16.13 15.44 16.19C15.37 16.25 15.3 16.3 15.23 16.35C15.16 16.41 15.08 16.46 15.01 16.51C14.94 16.56 14.86 16.6 14.78 16.65C14.71 16.69 14.63 16.74 14.55 16.78C14.47 16.82 14.4 16.86 14.31 16.9C14.23 16.94 14.15 16.97 14.07 17.01C13.99 17.04 13.91 17.07 13.82 17.1C13.74 17.13 13.66 17.16 13.57 17.19C13.49 17.21 13.4 17.24 13.31 17.26C13.23 17.28 13.14 17.3 13.05 17.32C12.97 17.33 12.88 17.35 12.79 17.36C12.7 17.37 12.62 17.38 12.53 17.39C12.44 17.4 12.35 17.41 12.26 17.41C12.17 17.42 12.08 17.42 12 17.42C11.91 17.42 11.82 17.42 11.73 17.41C11.64 17.41 11.55 17.4 11.46 17.39C11.38 17.38 11.29 17.37 11.2 17.36C11.11 17.35 11.03 17.33 10.94 17.32C10.85 17.3 10.76 17.28 10.68 17.26C10.59 17.24 10.51 17.21 10.42 17.19C10.34 17.16 10.25 17.13 10.17 17.1C10.09 17.07 10 17.04 9.92 17.01C9.84 16.97 9.76 16.94 9.68 16.9C9.6 16.86 9.52 16.82 9.44 16.78C9.36 16.74 9.28 16.69 9.21 16.65C9.13 16.6 9.06 16.56 8.98 16.51C8.91 16.46 8.84 16.41 8.77 16.35C8.69 16.3 8.62 16.25 8.56 16.19C8.49 16.13 8.42 16.07 8.35 16.01C8.29 15.96 8.22 15.89 8.16 15.83C8.1 15.77 8.04 15.7 7.98 15.64C7.92 15.57 7.86 15.51 7.8 15.44C7.75 15.37 7.69 15.3 7.64 15.23C7.59 15.16 7.54 15.08 7.49 15.01C7.44 14.94 7.39 14.86 7.34 14.78C7.3 14.71 7.26 14.63 7.21 14.55C7.17 14.47 7.13 14.4 7.09 14.32C7.06 14.24 7.02 14.15 6.99 14.07C6.95 13.99 6.92 13.91 6.89 13.82C6.86 13.74 6.83 13.66 6.81 13.57C6.78 13.49 6.76 13.4 6.74 13.31C6.71 13.23 6.69 13.14 6.68 13.05C6.66 12.97 6.64 12.88 6.63 12.79C6.62 12.7 6.61 12.62 6.6 12.53C6.59 12.44 6.58 12.35 6.58 12.26C6.58 12.17 6.57 12.09 6.57 12C6.57 11.91 6.58 11.82 6.58 11.73C6.58 11.64 6.59 11.55 6.6 11.46C6.61 11.38 6.62 11.29 6.63 11.2C6.64 11.11 6.66 11.03 6.68 10.94C6.69 10.85 6.71 10.76 6.74 10.68C6.76 10.59 6.78 10.51 6.81 10.42C6.83 10.34 6.86 10.25 6.89 10.17C6.92 10.09 6.95 10 6.99 9.92C7.02 9.84 7.06 9.76 7.09 9.68C7.13 9.6 7.17 9.52 7.21 9.44C7.26 9.36 7.3 9.28 7.34 9.21C7.39 9.13 7.44 9.06 7.49 8.98C7.54 8.91 7.59 8.84 7.64 8.77C7.69 8.69 7.75 8.62 7.8 8.56C7.86 8.49 7.92 8.42 7.98 8.35C8.04 8.29 8.1 8.22 8.16 8.16C8.22 8.1 8.29 8.04 8.35 7.98C8.42 7.92 8.49 7.86 8.56 7.8C8.62 7.75 8.69 7.69 8.77 7.64C8.84 7.59 8.91 7.54 8.98 7.49C9.06 7.44 9.13 7.39 9.21 7.34C9.28 7.3 9.36 7.26 9.44 7.21C9.52 7.17 9.6 7.13 9.68 7.09C9.76 7.06 9.84 7.02 9.92 6.99C10 6.95 10.09 6.92 10.17 6.89C10.25 6.86 10.34 6.83 10.42 6.81C10.51 6.78 10.59 6.76 10.68 6.74C10.76 6.71 10.85 6.69 10.94 6.68C11.03 6.66 11.11 6.64 11.2 6.63C11.29 6.62 11.38 6.61 11.46 6.6C11.55 6.59 11.64 6.58 11.73 6.58C11.82 6.58 11.91 6.57 12 6.57Z" fill="#4C4C4C" fill-opacity="1.000000" fill-rule="nonzero"/>
		<path id="path" d="M11.68 5.66C11.58 5.67 11.48 5.67 11.37 5.68C11.27 5.69 11.17 5.71 11.07 5.72C10.96 5.74 10.86 5.76 10.76 5.78C10.66 5.8 10.56 5.82 10.46 5.84C10.35 5.87 10.25 5.9 10.16 5.93C10.06 5.96 9.96 5.99 9.86 6.02C9.76 6.06 9.66 6.1 9.57 6.14C9.47 6.18 9.38 6.22 9.28 6.26C9.19 6.31 9.1 6.35 9.01 6.4C8.91 6.45 8.82 6.5 8.74 6.56C8.65 6.61 8.56 6.67 8.47 6.72C8.39 6.78 8.3 6.84 8.22 6.9C8.13 6.96 8.05 7.03 7.97 7.09C7.89 7.16 7.81 7.23 7.74 7.3C7.66 7.37 7.58 7.44 7.51 7.51C7.44 7.59 7.37 7.66 7.3 7.74C7.23 7.81 7.16 7.89 7.09 7.97C7.03 8.05 6.96 8.13 6.9 8.22C6.84 8.3 6.78 8.39 6.72 8.47C6.66 8.56 6.61 8.65 6.56 8.74C6.5 8.82 6.45 8.91 6.4 9.01C6.35 9.1 6.31 9.19 6.26 9.28C6.22 9.38 6.18 9.47 6.14 9.57C6.1 9.67 6.06 9.76 6.02 9.86C5.99 9.96 5.96 10.06 5.93 10.16C5.9 10.25 5.87 10.35 5.84 10.46C5.82 10.56 5.8 10.66 5.78 10.76C5.76 10.86 5.74 10.96 5.72 11.07C5.71 11.17 5.69 11.27 5.68 11.37C5.67 11.48 5.67 11.58 5.66 11.69C5.66 11.79 5.65 11.89 5.65 12C5.65 12.1 5.66 12.2 5.66 12.31C5.67 12.41 5.67 12.51 5.68 12.62C5.69 12.72 5.71 12.82 5.72 12.93C5.74 13.03 5.76 13.13 5.78 13.23C5.8 13.34 5.82 13.44 5.84 13.54C5.87 13.64 5.9 13.74 5.93 13.84C5.96 13.94 5.99 14.04 6.02 14.13C6.06 14.23 6.1 14.33 6.14 14.42C6.18 14.52 6.22 14.61 6.26 14.71C6.31 14.8 6.35 14.89 6.4 14.99C6.45 15.08 6.5 15.17 6.56 15.26C6.61 15.35 6.66 15.43 6.72 15.52C6.78 15.61 6.84 15.69 6.9 15.77C6.96 15.86 7.03 15.94 7.09 16.02C7.16 16.1 7.23 16.18 7.3 16.26C7.37 16.33 7.44 16.41 7.51 16.48C7.58 16.55 7.66 16.63 7.74 16.7C7.81 16.77 7.89 16.83 7.97 16.9C8.05 16.96 8.13 17.03 8.22 17.09C8.3 17.15 8.39 17.21 8.47 17.27C8.56 17.33 8.65 17.38 8.74 17.44C8.82 17.49 8.91 17.54 9.01 17.59C9.1 17.64 9.19 17.69 9.28 17.73C9.38 17.77 9.47 17.82 9.57 17.86C9.66 17.9 9.76 17.93 9.86 17.97C9.96 18 10.06 18.04 10.16 18.07C10.25 18.1 10.35 18.12 10.46 18.15C10.56 18.17 10.66 18.2 10.76 18.22C10.86 18.24 10.96 18.26 11.07 18.27C11.17 18.29 11.27 18.3 11.37 18.31C11.48 18.32 11.58 18.33 11.68 18.33C11.79 18.34 11.89 18.34 12 18.34C12.1 18.34 12.2 18.34 12.31 18.33C12.41 18.33 12.51 18.32 12.62 18.31C12.72 18.3 12.82 18.29 12.93 18.27C13.03 18.25 13.13 18.24 13.23 18.22C13.33 18.2 13.44 18.17 13.54 18.15C13.64 18.12 13.74 18.1 13.84 18.07C13.94 18.04 14.03 18 14.13 17.97C14.23 17.93 14.33 17.9 14.42 17.86C14.52 17.82 14.61 17.77 14.71 17.73C14.8 17.68 14.89 17.64 14.99 17.59C15.08 17.54 15.17 17.49 15.26 17.44C15.34 17.38 15.43 17.33 15.52 17.27C15.61 17.21 15.69 17.15 15.77 17.09C15.86 17.03 15.94 16.96 16.02 16.9C16.1 16.83 16.18 16.76 16.25 16.7C16.33 16.63 16.41 16.55 16.48 16.48C16.55 16.41 16.62 16.33 16.69 16.26C16.76 16.18 16.83 16.1 16.9 16.02C16.96 15.94 17.03 15.86 17.09 15.77C17.15 15.69 17.21 15.61 17.27 15.52C17.33 15.43 17.38 15.35 17.43 15.26C17.49 15.17 17.54 15.08 17.59 14.99C17.64 14.89 17.68 14.8 17.73 14.71C17.77 14.61 17.81 14.52 17.85 14.42C17.89 14.33 17.93 14.23 17.97 14.13C18 14.03 18.03 13.94 18.06 13.84C18.09 13.74 18.12 13.64 18.15 13.54C18.17 13.44 18.19 13.34 18.21 13.23C18.23 13.13 18.25 13.03 18.27 12.93C18.28 12.82 18.3 12.72 18.31 12.62C18.32 12.51 18.32 12.41 18.33 12.31C18.33 12.2 18.34 12.1 18.34 12C18.34 11.89 18.33 11.79 18.33 11.69C18.32 11.58 18.32 11.48 18.31 11.37C18.3 11.27 18.28 11.17 18.27 11.07C18.25 10.96 18.23 10.86 18.21 10.76C18.19 10.66 18.17 10.56 18.15 10.46C18.12 10.35 18.09 10.26 18.06 10.16C18.03 10.06 18 9.96 17.97 9.86C17.93 9.76 17.89 9.67 17.85 9.57C17.81 9.47 17.77 9.38 17.73 9.29C17.68 9.19 17.64 9.1 17.59 9.01C17.54 8.92 17.49 8.83 17.43 8.74C17.38 8.65 17.33 8.56 17.27 8.47C17.21 8.39 17.15 8.3 17.09 8.22C17.03 8.14 16.96 8.05 16.9 7.97C16.83 7.89 16.76 7.81 16.69 7.74C16.62 7.66 16.55 7.59 16.48 7.51C16.41 7.44 16.33 7.37 16.25 7.3C16.18 7.23 16.1 7.16 16.02 7.09C15.94 7.03 15.86 6.96 15.77 6.9C15.69 6.84 15.61 6.78 15.52 6.72C15.43 6.67 15.34 6.61 15.26 6.56C15.17 6.5 15.08 6.45 14.99 6.4C14.89 6.35 14.8 6.31 14.71 6.26C14.61 6.22 14.52 6.18 14.42 6.14C14.33 6.1 14.23 6.06 14.13 6.03C14.03 5.99 13.94 5.96 13.84 5.93C13.74 5.9 13.64 5.87 13.54 5.84C13.44 5.82 13.33 5.8 13.23 5.78C13.13 5.76 13.03 5.74 12.93 5.72C12.82 5.71 12.72 5.69 12.62 5.68C12.51 5.67 12.41 5.67 12.31 5.66C12.2 5.66 12.1 5.65 12 5.65C11.89 5.65 11.79 5.66 11.68 5.66ZM12.26 6.58C12.35 6.58 12.44 6.59 12.53 6.6C12.62 6.61 12.7 6.62 12.79 6.63C12.88 6.64 12.97 6.66 13.05 6.68C13.14 6.69 13.23 6.71 13.31 6.74C13.4 6.76 13.49 6.78 13.57 6.81C13.66 6.83 13.74 6.86 13.82 6.89C13.91 6.92 13.99 6.95 14.07 6.99C14.15 7.02 14.23 7.06 14.31 7.09C14.4 7.13 14.47 7.17 14.55 7.21C14.63 7.26 14.71 7.3 14.78 7.34C14.86 7.39 14.94 7.44 15.01 7.49C15.08 7.54 15.16 7.59 15.23 7.64C15.3 7.69 15.37 7.75 15.44 7.8C15.51 7.86 15.57 7.92 15.64 7.98C15.7 8.04 15.77 8.1 15.83 8.16C15.89 8.22 15.95 8.29 16.01 8.35C16.07 8.42 16.13 8.49 16.19 8.56C16.24 8.62 16.3 8.69 16.35 8.77C16.4 8.84 16.46 8.91 16.51 8.98C16.55 9.06 16.6 9.13 16.65 9.21C16.69 9.28 16.74 9.36 16.78 9.44C16.82 9.52 16.86 9.6 16.9 9.68C16.94 9.76 16.97 9.84 17.01 9.92C17.04 10 17.07 10.09 17.1 10.17C17.13 10.25 17.16 10.34 17.19 10.42C17.21 10.51 17.24 10.59 17.26 10.68C17.28 10.76 17.3 10.85 17.32 10.94C17.33 11.03 17.35 11.11 17.36 11.2C17.37 11.29 17.38 11.38 17.39 11.46C17.4 11.55 17.41 11.64 17.41 11.73C17.42 11.82 17.42 11.91 17.42 12C17.42 12.09 17.42 12.17 17.41 12.26C17.41 12.35 17.4 12.44 17.39 12.53C17.38 12.62 17.37 12.7 17.36 12.79C17.35 12.88 17.33 12.97 17.32 13.05C17.3 13.14 17.28 13.23 17.26 13.31C17.24 13.4 17.21 13.49 17.19 13.57C17.16 13.66 17.13 13.74 17.1 13.82C17.07 13.91 17.04 13.99 17.01 14.07C16.97 14.15 16.94 14.23 16.9 14.32C16.86 14.4 16.82 14.47 16.78 14.55C16.74 14.63 16.69 14.71 16.65 14.78C16.6 14.86 16.55 14.94 16.51 15.01C16.46 15.08 16.4 15.16 16.35 15.23C16.3 15.3 16.24 15.37 16.19 15.44C16.13 15.51 16.07 15.57 16.01 15.64C15.95 15.7 15.89 15.77 15.83 15.83C15.77 15.89 15.7 15.96 15.64 16.01C15.57 16.07 15.51 16.13 15.44 16.19C15.37 16.25 15.3 16.3 15.23 16.35C15.16 16.41 15.08 16.46 15.01 16.51C14.94 16.56 14.86 16.6 14.78 16.65C14.71 16.69 14.63 16.74 14.55 16.78C14.47 16.82 14.4 16.86 14.31 16.9C14.23 16.94 14.15 16.97 14.07 17.01C13.99 17.04 13.91 17.07 13.82 17.1C13.74 17.13 13.66 17.16 13.57 17.19C13.49 17.21 13.4 17.24 13.31 17.26C13.23 17.28 13.14 17.3 13.05 17.32C12.97 17.33 12.88 17.35 12.79 17.36C12.7 17.37 12.62 17.38 12.53 17.39C12.44 17.4 12.35 17.41 12.26 17.41C12.17 17.42 12.08 17.42 12 17.42C11.91 17.42 11.82 17.42 11.73 17.41C11.64 17.41 11.55 17.4 11.46 17.39C11.38 17.38 11.29 17.37 11.2 17.36C11.11 17.35 11.03 17.33 10.94 17.32C10.85 17.3 10.76 17.28 10.68 17.26C10.59 17.24 10.51 17.21 10.42 17.19C10.34 17.16 10.25 17.13 10.17 17.1C10.09 17.07 10 17.04 9.92 17.01C9.84 16.97 9.76 16.94 9.68 16.9C9.6 16.86 9.52 16.82 9.44 16.78C9.36 16.74 9.28 16.69 9.21 16.65C9.13 16.6 9.06 16.56 8.98 16.51C8.91 16.46 8.84 16.41 8.77 16.35C8.69 16.3 8.62 16.25 8.56 16.19C8.49 16.13 8.42 16.07 8.35 16.01C8.29 15.96 8.22 15.89 8.16 15.83C8.1 15.77 8.04 15.7 7.98 15.64C7.92 15.57 7.86 15.51 7.8 15.44C7.75 15.37 7.69 15.3 7.64 15.23C7.59 15.16 7.54 15.08 7.49 15.01C7.44 14.94 7.39 14.86 7.34 14.78C7.3 14.71 7.26 14.63 7.21 14.55C7.17 14.47 7.13 14.4 7.09 14.32C7.06 14.24 7.02 14.15 6.99 14.07C6.95 13.99 6.92 13.91 6.89 13.82C6.86 13.74 6.83 13.66 6.81 13.57C6.78 13.49 6.76 13.4 6.74 13.31C6.71 13.23 6.69 13.14 6.68 13.05C6.66 12.97 6.64 12.88 6.63 12.79C6.62 12.7 6.61 12.62 6.6 12.53C6.59 12.44 6.58 12.35 6.58 12.26C6.58 12.17 6.57 12.09 6.57 12C6.57 11.91 6.58 11.82 6.58 11.73C6.58 11.64 6.59 11.55 6.6 11.46C6.61 11.38 6.62 11.29 6.63 11.2C6.64 11.11 6.66 11.03 6.68 10.94C6.69 10.85 6.71 10.76 6.74 10.68C6.76 10.59 6.78 10.51 6.81 10.42C6.83 10.34 6.86 10.25 6.89 10.17C6.92 10.09 6.95 10 6.99 9.92C7.02 9.84 7.06 9.76 7.09 9.68C7.13 9.6 7.17 9.52 7.21 9.44C7.26 9.36 7.3 9.28 7.34 9.21C7.39 9.13 7.44 9.06 7.49 8.98C7.54 8.91 7.59 8.84 7.64 8.77C7.69 8.69 7.75 8.62 7.8 8.56C7.86 8.49 7.92 8.42 7.98 8.35C8.04 8.29 8.1 8.22 8.16 8.16C8.22 8.1 8.29 8.04 8.35 7.98C8.42 7.92 8.49 7.86 8.56 7.8C8.62 7.75 8.69 7.69 8.77 7.64C8.84 7.59 8.91 7.54 8.98 7.49C9.06 7.44 9.13 7.39 9.21 7.34C9.28 7.3 9.36 7.26 9.44 7.21C9.52 7.17 9.6 7.13 9.68 7.09C9.76 7.06 9.84 7.02 9.92 6.99C10 6.95 10.09 6.92 10.17 6.89C10.25 6.86 10.34 6.83 10.42 6.81C10.51 6.78 10.59 6.76 10.68 6.74C10.76 6.71 10.85 6.69 10.94 6.68C11.03 6.66 11.11 6.64 11.2 6.63C11.29 6.62 11.38 6.61 11.46 6.6C11.55 6.59 11.64 6.58 11.73 6.58C11.82 6.58 11.91 6.57 12 6.57C12.08 6.57 12.17 6.58 12.26 6.58Z" stroke="#4C4C4C" stroke-opacity="1.000000" stroke-width="0.250000"/>
		<path id="path" d="M12.22 11.74L12.22 8.52C12.22 8.49 12.22 8.46 12.21 8.43C12.21 8.4 12.2 8.37 12.19 8.34C12.17 8.32 12.16 8.29 12.14 8.26C12.13 8.24 12.11 8.22 12.09 8.19C12.06 8.17 12.04 8.15 12.02 8.14C11.99 8.12 11.96 8.11 11.94 8.09C11.91 8.08 11.88 8.07 11.85 8.07C11.82 8.06 11.79 8.06 11.76 8.06C11.73 8.06 11.7 8.06 11.67 8.07C11.64 8.07 11.61 8.08 11.58 8.09C11.56 8.11 11.53 8.12 11.51 8.14C11.48 8.15 11.46 8.17 11.44 8.19C11.41 8.22 11.4 8.24 11.38 8.26C11.36 8.29 11.35 8.32 11.34 8.34C11.32 8.37 11.32 8.4 11.31 8.43C11.3 8.46 11.3 8.49 11.3 8.52L11.3 11.83C11.3 12.29 11.67 12.66 12.13 12.66L15.44 12.66C15.47 12.66 15.5 12.65 15.53 12.65C15.56 12.64 15.59 12.63 15.61 12.62C15.64 12.61 15.67 12.59 15.69 12.58C15.72 12.56 15.74 12.54 15.76 12.52C15.78 12.5 15.8 12.48 15.82 12.45C15.84 12.43 15.85 12.4 15.86 12.37C15.87 12.34 15.88 12.32 15.89 12.29C15.89 12.26 15.9 12.23 15.9 12.2C15.9 12.17 15.89 12.14 15.89 12.11C15.88 12.08 15.87 12.05 15.86 12.02C15.85 11.99 15.84 11.97 15.82 11.94C15.8 11.92 15.78 11.89 15.76 11.87C15.74 11.85 15.72 11.83 15.69 11.81C15.67 11.8 15.64 11.78 15.61 11.77C15.59 11.76 15.56 11.75 15.53 11.75C15.5 11.74 15.47 11.74 15.44 11.74L12.22 11.74Z" fill="#4C4C4C" fill-opacity="1.000000" fill-rule="nonzero"/>
		<path id="path" d="M12.22 8.52C12.22 8.49 12.22 8.46 12.21 8.43C12.21 8.4 12.2 8.37 12.19 8.34C12.17 8.32 12.16 8.29 12.14 8.26C12.13 8.24 12.11 8.22 12.09 8.19C12.06 8.17 12.04 8.15 12.02 8.14C11.99 8.12 11.96 8.11 11.94 8.09C11.91 8.08 11.88 8.07 11.85 8.07C11.82 8.06 11.79 8.06 11.76 8.06C11.73 8.06 11.7 8.06 11.67 8.07C11.64 8.07 11.61 8.08 11.58 8.09C11.56 8.11 11.53 8.12 11.51 8.14C11.48 8.15 11.46 8.17 11.44 8.19C11.41 8.22 11.4 8.24 11.38 8.26C11.36 8.29 11.35 8.32 11.34 8.34C11.32 8.37 11.32 8.4 11.31 8.43C11.3 8.46 11.3 8.49 11.3 8.52L11.3 11.83C11.3 12.29 11.67 12.66 12.13 12.66L15.44 12.66C15.47 12.66 15.5 12.65 15.53 12.65C15.56 12.64 15.59 12.63 15.61 12.62C15.64 12.61 15.67 12.59 15.69 12.58C15.72 12.56 15.74 12.54 15.76 12.52C15.78 12.5 15.8 12.48 15.82 12.45C15.84 12.43 15.85 12.4 15.86 12.37C15.87 12.34 15.88 12.32 15.89 12.29C15.89 12.26 15.9 12.23 15.9 12.2C15.9 12.17 15.89 12.14 15.89 12.11C15.88 12.08 15.87 12.05 15.86 12.02C15.85 11.99 15.84 11.97 15.82 11.94C15.8 11.92 15.78 11.89 15.76 11.87C15.74 11.85 15.72 11.83 15.69 11.81C15.67 11.8 15.64 11.78 15.61 11.77C15.59 11.76 15.56 11.75 15.53 11.75C15.5 11.74 15.47 11.74 15.44 11.74L12.22 11.74L12.22 8.52Z" stroke="#4C4C4C" stroke-opacity="1.000000" stroke-width="0.250000"/>
	</g>
</svg>
