<svg width="14.000000" height="14.000000" viewBox="0 0 14 14" fill="none" xmlns="http://www.w3.org/2000/svg" xmlns:xlink="http://www.w3.org/1999/xlink">
	<desc>
			Created with Pixso.
	</desc>
	<defs>
		<clipPath id="clip221_766">
			<rect id="svg" width="14.000000" height="14.000000" fill="white" fill-opacity="0"/>
		</clipPath>
	</defs>
	<g clip-path="url(#clip221_766)">
		<path id="path" d="M5.55 9.66L2.67 6.78C2.65 6.76 2.63 6.74 2.61 6.72C2.58 6.71 2.56 6.69 2.53 6.68C2.5 6.67 2.48 6.66 2.45 6.66C2.42 6.65 2.39 6.65 2.36 6.65C2.33 6.65 2.3 6.65 2.28 6.65C2.25 6.66 2.22 6.67 2.19 6.68C2.17 6.69 2.14 6.7 2.12 6.72C2.09 6.74 2.07 6.75 2.05 6.77C2.03 6.79 2.01 6.82 1.99 6.84C1.98 6.87 1.96 6.89 1.95 6.92C1.94 6.94 1.93 6.97 1.93 7C1.92 7.03 1.92 7.06 1.92 7.09C1.92 7.12 1.92 7.15 1.93 7.17C1.94 7.2 1.94 7.23 1.96 7.26C1.97 7.28 1.98 7.31 2 7.33C2.01 7.36 2.03 7.38 2.05 7.4L5.55 10.9L12.55 3.9C12.57 3.88 12.59 3.86 12.61 3.83C12.62 3.81 12.64 3.78 12.65 3.76C12.66 3.73 12.66 3.7 12.67 3.68C12.67 3.65 12.68 3.62 12.68 3.59C12.68 3.56 12.67 3.53 12.67 3.51C12.66 3.48 12.65 3.45 12.64 3.43C12.63 3.4 12.62 3.37 12.6 3.35C12.59 3.33 12.57 3.31 12.55 3.29C12.53 3.26 12.51 3.25 12.48 3.23C12.46 3.22 12.43 3.2 12.41 3.19C12.38 3.18 12.36 3.17 12.33 3.17C12.3 3.16 12.27 3.16 12.24 3.16C12.21 3.16 12.19 3.16 12.16 3.16C12.13 3.17 12.1 3.18 12.08 3.19C12.05 3.2 12.03 3.21 12 3.23C11.98 3.24 11.96 3.26 11.94 3.28L5.55 9.66Z" fill="#409EFF" fill-opacity="1.000000" fill-rule="nonzero"/>
	</g>
</svg>
