<svg width="24.000000" height="24.000000" viewBox="0 0 24 24" fill="none" xmlns="http://www.w3.org/2000/svg" xmlns:xlink="http://www.w3.org/1999/xlink">
	<desc>
			Created with Pixso.
	</desc>
	<defs>
		<clipPath id="clip272_60">
			<rect id="svg" width="24.000000" height="24.000000" fill="white" fill-opacity="0"/>
		</clipPath>
	</defs>
	<g clip-path="url(#clip272_60)">
		<path id="path" d="M6.98 4.84L14.14 4.84L17.72 8.42L17.72 18.44C17.72 18.83 17.4 19.15 17.01 19.15L6.98 19.15C6.59 19.15 6.27 18.83 6.27 18.44L6.27 5.55C6.27 5.16 6.59 4.84 6.98 4.84Z" fill="#000000" fill-opacity="0" fill-rule="nonzero"/>
		<path id="path" d="M14.14 4.84L17.72 8.42L17.72 18.44C17.72 18.83 17.4 19.15 17.01 19.15L6.98 19.15C6.59 19.15 6.27 18.83 6.27 18.44L6.27 5.55C6.27 5.16 6.59 4.84 6.98 4.84L14.14 4.84Z" stroke="#4C4C4C" stroke-opacity="1.000000" stroke-width="1.000000" stroke-linejoin="round"/>
		<path id="path" d="M13.95 10.33C13.84 10.24 13.73 10.16 13.61 10.08C13.49 10.01 13.36 9.94 13.23 9.88C13.1 9.83 12.97 9.78 12.83 9.74C12.7 9.7 12.56 9.67 12.42 9.65C12.28 9.63 12.14 9.62 12 9.62C11.76 9.62 11.54 9.64 11.31 9.7C11.08 9.75 10.87 9.83 10.66 9.93L10.64 9.94L10.63 9.95C10.55 9.99 10.46 10.03 10.38 10.08L10.36 10.1Q10.17 10.22 10.01 10.36Q9.97 10.39 9.94 10.43C9.82 10.53 9.89 10.72 10.04 10.74L10.88 10.88C11.04 10.9 11.16 10.74 11.1 10.6L11.09 10.57C11.04 10.47 11.09 10.35 11.19 10.32C11.41 10.24 11.64 10.2 11.88 10.19L12 10.18L12.1 10.18C12.22 10.19 12.33 10.2 12.44 10.22C12.56 10.24 12.67 10.27 12.78 10.31C12.89 10.35 12.99 10.39 13.09 10.44C13.2 10.49 13.3 10.55 13.39 10.62C13.49 10.68 13.57 10.75 13.66 10.83C13.74 10.91 13.82 10.99 13.9 11.08C13.97 11.17 14.04 11.26 14.1 11.36C14.12 11.4 14.15 11.44 14.17 11.49C14.22 11.58 14.34 11.63 14.44 11.58L14.67 11.49C14.73 11.46 14.75 11.39 14.72 11.34C14.66 11.21 14.59 11.09 14.51 10.97C14.44 10.85 14.35 10.74 14.25 10.63C14.16 10.53 14.06 10.43 13.95 10.33ZM9.21 12.16L9.37 12.19C9.48 12.21 9.55 12.31 9.54 12.42C9.53 12.5 9.53 12.58 9.53 12.66C9.53 13.19 9.7 13.7 10 14.11C10.06 14.19 10.17 14.19 10.24 14.13C10.33 14.03 10.49 14.09 10.51 14.22L10.58 14.68L10.59 14.69L10.59 14.71L10.59 14.71L10.59 14.72L10.64 15.02C10.66 15.18 10.5 15.3 10.36 15.21Q10.29 15.17 10.23 15.12L10.21 15.11C10.13 15.05 10.05 14.99 9.98 14.92L9.91 14.86L9.88 14.83C9.85 14.8 9.82 14.77 9.79 14.74C9.66 14.6 9.54 14.45 9.44 14.29Q9.37 14.17 9.3 14.04L9.3 14.04L9.3 14.04Q9.24 13.91 9.18 13.78C9.11 13.6 9.06 13.41 9.02 13.23C8.99 13.04 8.97 12.85 8.97 12.66C8.97 12.54 8.97 12.43 8.99 12.33C9 12.22 9.1 12.14 9.21 12.16ZM14.98 13.16Q14.98 13.17 14.98 13.17Q14.95 13.36 14.89 13.55L14.88 13.57C14.87 13.62 14.85 13.67 14.83 13.72L14.82 13.74C14.78 13.87 14.72 13.99 14.66 14.1C14.59 14.22 14.52 14.33 14.45 14.44C14.37 14.55 14.28 14.65 14.19 14.75C14.1 14.84 14 14.93 13.9 15.02C13.8 15.1 13.69 15.18 13.57 15.25C13.46 15.32 13.34 15.38 13.22 15.43C13.1 15.49 12.98 15.53 12.85 15.57C12.73 15.61 12.6 15.63 12.48 15.65C12.46 15.65 12.45 15.66 12.44 15.66C12.39 15.65 12.33 15.61 12.33 15.56L12.3 15.31C12.29 15.2 12.37 15.1 12.48 15.08Q12.53 15.07 12.58 15.06C12.68 15.03 12.77 15 12.87 14.97C12.96 14.93 13.06 14.89 13.15 14.84C13.24 14.8 13.32 14.74 13.41 14.68C13.49 14.63 13.57 14.56 13.65 14.49C13.72 14.43 13.79 14.35 13.86 14.28C13.93 14.2 13.99 14.12 14.04 14.03C14.07 14 14.09 13.96 14.11 13.93C14.16 13.84 14.12 13.74 14.03 13.7C13.91 13.65 13.89 13.48 14.01 13.41L14.7 12.98C14.84 12.89 15.01 12.99 14.98 13.15Q14.98 13.16 14.98 13.16Z" fill="#4C4C4C" fill-opacity="1.000000" fill-rule="evenodd"/>
		<path id="path" d="M14.89 13.55L14.88 13.57C14.87 13.62 14.85 13.67 14.83 13.72L14.82 13.74C14.78 13.87 14.72 13.99 14.66 14.1C14.59 14.22 14.52 14.33 14.45 14.44C14.37 14.55 14.28 14.65 14.19 14.75C14.1 14.84 14 14.93 13.9 15.02C13.8 15.1 13.69 15.18 13.57 15.25C13.46 15.32 13.34 15.38 13.22 15.43C13.1 15.49 12.98 15.53 12.85 15.57C12.73 15.61 12.6 15.63 12.48 15.65C12.46 15.65 12.45 15.66 12.44 15.66C12.39 15.65 12.33 15.61 12.33 15.56L12.3 15.31C12.29 15.2 12.37 15.1 12.48 15.08C12.51 15.07 12.54 15.07 12.58 15.06C12.68 15.03 12.77 15 12.87 14.97C12.96 14.93 13.06 14.89 13.15 14.84C13.24 14.8 13.32 14.74 13.41 14.68C13.49 14.63 13.57 14.56 13.65 14.49C13.72 14.43 13.79 14.35 13.86 14.28C13.93 14.2 13.99 14.12 14.04 14.03C14.07 14 14.09 13.96 14.11 13.93C14.16 13.84 14.12 13.74 14.03 13.7C13.91 13.65 13.89 13.48 14.01 13.41L14.7 12.98C14.84 12.89 15.01 12.99 14.98 13.15C14.96 13.28 14.93 13.42 14.89 13.55ZM9.37 12.19C9.48 12.21 9.55 12.31 9.54 12.42C9.53 12.5 9.53 12.58 9.53 12.66C9.53 13.19 9.7 13.7 10 14.11C10.06 14.19 10.17 14.19 10.24 14.13C10.33 14.03 10.49 14.09 10.51 14.22L10.58 14.68L10.59 14.69L10.59 14.71L10.59 14.71L10.59 14.72L10.64 15.02C10.66 15.18 10.5 15.3 10.36 15.21C10.32 15.18 10.27 15.15 10.23 15.12L10.21 15.11C10.13 15.05 10.05 14.99 9.98 14.92L9.91 14.86L9.88 14.83C9.85 14.8 9.82 14.77 9.79 14.74C9.66 14.6 9.54 14.45 9.44 14.29C9.34 14.12 9.25 13.95 9.18 13.78C9.11 13.6 9.06 13.41 9.02 13.23C8.99 13.04 8.97 12.85 8.97 12.66C8.97 12.54 8.97 12.43 8.99 12.33C9 12.22 9.1 12.14 9.21 12.16L9.37 12.19ZM13.95 10.33C14.06 10.43 14.16 10.53 14.25 10.63C14.35 10.74 14.44 10.85 14.51 10.97C14.59 11.09 14.66 11.21 14.72 11.34C14.75 11.39 14.73 11.46 14.67 11.49L14.44 11.58C14.34 11.63 14.22 11.58 14.17 11.49C14.15 11.44 14.12 11.4 14.1 11.36C14.04 11.26 13.97 11.17 13.9 11.08C13.82 10.99 13.74 10.91 13.66 10.83C13.57 10.75 13.49 10.68 13.39 10.62C13.3 10.55 13.2 10.49 13.09 10.44C12.99 10.39 12.89 10.35 12.78 10.31C12.67 10.27 12.56 10.24 12.44 10.22C12.33 10.2 12.22 10.19 12.1 10.18L12 10.18L11.88 10.19C11.64 10.2 11.41 10.24 11.19 10.32C11.09 10.35 11.04 10.47 11.09 10.57L11.1 10.6C11.16 10.74 11.04 10.9 10.88 10.88L10.04 10.74C9.89 10.72 9.82 10.53 9.94 10.43C10.07 10.31 10.21 10.2 10.36 10.1L10.38 10.08C10.46 10.03 10.55 9.99 10.63 9.95L10.64 9.94L10.66 9.93C10.87 9.83 11.08 9.75 11.31 9.7C11.54 9.64 11.76 9.62 12 9.62C12.14 9.62 12.28 9.63 12.42 9.65C12.56 9.67 12.7 9.7 12.83 9.74C12.97 9.78 13.1 9.83 13.23 9.88C13.36 9.94 13.49 10.01 13.61 10.08C13.73 10.16 13.84 10.24 13.95 10.33Z" stroke="#4C4C4C" stroke-opacity="1.000000" stroke-width="0.250000"/>
	</g>
</svg>
