<svg width="24.000000" height="24.000000" viewBox="0 0 24 24" fill="none" xmlns="http://www.w3.org/2000/svg" xmlns:xlink="http://www.w3.org/1999/xlink">
	<desc>
			Created with Pixso.
	</desc>
	<defs>
		<clipPath id="clip221_313">
			<rect id="svg" width="24.000000" height="24.000000" fill="white" fill-opacity="0"/>
		</clipPath>
	</defs>
	<g clip-path="url(#clip221_313)">
		<path id="矢量 52" d="M7.3 16.03C6.92 16.03 6.66 15.65 6.8 15.3L11.18 4.06C11.31 3.73 11.63 3.51 11.99 3.51C12.35 3.51 12.67 3.73 12.8 4.06L17.17 15.26C17.32 15.63 17.04 16.03 16.64 16.03C16.41 16.03 16.19 15.88 16.11 15.66L14.7 11.82L9.25 11.82L7.8 15.68C7.72 15.89 7.52 16.03 7.3 16.03ZM11.94 4.43C11.46 5.95 10.98 7.27 10.42 8.73L9.56 11L14.39 11L13.55 8.73C12.97 7.27 12.51 5.95 12.01 4.43L11.94 4.43ZM4.19 19.88C4.19 19.55 4.45 19.28 4.79 19.28L19.2 19.28C19.54 19.28 19.8 19.55 19.8 19.88C19.8 20.22 19.54 20.48 19.2 20.48L4.79 20.48C4.45 20.48 4.19 20.22 4.19 19.88Z" fill="#4C4C4C" fill-opacity="1.000000" fill-rule="evenodd"/>
		<path id="矢量 52" d="M4.19 19.88C4.19 20.22 4.45 20.48 4.79 20.48L19.2 20.48C19.54 20.48 19.8 20.22 19.8 19.88C19.8 19.55 19.54 19.28 19.2 19.28L4.79 19.28C4.45 19.28 4.19 19.55 4.19 19.88ZM11.94 4.43L12.01 4.43C12.51 5.95 12.97 7.27 13.55 8.73L14.39 11L9.56 11L10.42 8.73C10.98 7.27 11.46 5.95 11.94 4.43ZM9.25 11.82L14.7 11.82L16.11 15.66C16.19 15.88 16.41 16.03 16.64 16.03C17.04 16.03 17.32 15.63 17.17 15.26L12.8 4.06C12.67 3.73 12.35 3.51 11.99 3.51C11.63 3.51 11.31 3.73 11.18 4.06L6.8 15.3C6.66 15.65 6.92 16.03 7.3 16.03C7.52 16.03 7.72 15.89 7.8 15.68L9.25 11.82Z" stroke="#4C4C4C" stroke-opacity="1.000000" stroke-width="0.200000"/>
	</g>
</svg>
