<svg width="24.000000" height="24.000000" viewBox="0 0 24 24" fill="none" xmlns="http://www.w3.org/2000/svg" xmlns:xlink="http://www.w3.org/1999/xlink">
	<desc>
			Created with Pixso.
	</desc>
	<defs>
		<clipPath id="clip243_81">
			<rect id="svg" width="24.000000" height="24.000000" fill="white" fill-opacity="0"/>
		</clipPath>
	</defs>
	<g clip-path="url(#clip243_81)">
		<path id="矢量 39" d="M17.17 5.64L6.82 5.64C5.87 5.64 5.09 6.42 5.09 7.37L5.09 10.82C5.09 11.77 5.87 12.55 6.82 12.55L17.17 12.55C18.12 12.55 18.9 11.77 18.9 10.82L18.9 7.37C18.9 6.42 18.12 5.64 17.17 5.64ZM17.91 10.82C17.91 11.02 17.84 11.2 17.69 11.34C17.55 11.48 17.37 11.56 17.17 11.56L6.82 11.56C6.62 11.56 6.44 11.48 6.3 11.34C6.16 11.2 6.08 11.02 6.08 10.82L6.08 7.37C6.08 7.17 6.16 6.99 6.3 6.85C6.44 6.71 6.62 6.63 6.82 6.63L17.17 6.63C17.37 6.63 17.55 6.71 17.69 6.85C17.83 6.99 17.91 7.17 17.91 7.37L17.91 10.82ZM15.55 14.49L6.79 14.49C6.52 14.49 6.3 14.71 6.3 14.98C6.3 15.26 6.52 15.48 6.79 15.48L15.55 15.48C15.82 15.48 16.04 15.26 16.04 14.98C16.04 14.71 15.82 14.49 15.55 14.49ZM13.48 17.36L6.79 17.36C6.52 17.36 6.3 17.58 6.3 17.85C6.3 18.13 6.52 18.35 6.79 18.35L13.48 18.35C13.75 18.35 13.97 18.13 13.97 17.85C13.97 17.58 13.75 17.36 13.48 17.36Z" fill="#4C4C4C" fill-opacity="1.000000" fill-rule="nonzero"/>
		<path id="矢量 39" d="M6.82 5.64C5.87 5.64 5.09 6.42 5.09 7.37L5.09 10.82C5.09 11.77 5.87 12.55 6.82 12.55L17.17 12.55C18.12 12.55 18.9 11.77 18.9 10.82L18.9 7.37C18.9 6.42 18.12 5.64 17.17 5.64L6.82 5.64ZM17.69 11.34C17.55 11.48 17.37 11.56 17.17 11.56L6.82 11.56C6.62 11.56 6.44 11.48 6.3 11.34C6.16 11.2 6.08 11.02 6.08 10.82L6.08 7.37C6.08 7.17 6.16 6.99 6.3 6.85C6.44 6.71 6.62 6.63 6.82 6.63L17.17 6.63C17.37 6.63 17.55 6.71 17.69 6.85C17.83 6.99 17.91 7.17 17.91 7.37L17.91 10.82C17.91 11.02 17.84 11.2 17.69 11.34ZM6.79 14.49C6.52 14.49 6.3 14.71 6.3 14.98C6.3 15.26 6.52 15.48 6.79 15.48L15.55 15.48C15.82 15.48 16.04 15.26 16.04 14.98C16.04 14.71 15.82 14.49 15.55 14.49L6.79 14.49ZM6.79 17.36C6.52 17.36 6.3 17.58 6.3 17.85C6.3 18.13 6.52 18.35 6.79 18.35L13.48 18.35C13.75 18.35 13.97 18.13 13.97 17.85C13.97 17.58 13.75 17.36 13.48 17.36L6.79 17.36Z" stroke="#4C4C4C" stroke-opacity="1.000000" stroke-width="0.250000"/>
	</g>
</svg>
