<svg width="24.000000" height="24.000000" viewBox="0 0 24 24" fill="none" xmlns="http://www.w3.org/2000/svg" xmlns:xlink="http://www.w3.org/1999/xlink">
	<desc>
			Created with Pixso.
	</desc>
	<defs>
		<clipPath id="clip221_113">
			<rect id="svg" width="24.000000" height="24.000000" fill="white" fill-opacity="0"/>
		</clipPath>
	</defs>
	<g clip-path="url(#clip221_113)">
		<path id="矢量 62" d="M5.93 6.1C5.93 5.82 6.19 5.6 6.51 5.6L20.58 5.6C20.91 5.6 21.16 5.82 21.16 6.1C21.16 6.38 20.91 6.6 20.58 6.6L6.51 6.6C6.19 6.6 5.93 6.38 5.93 6.1ZM10.93 10.45C10.93 10.17 11.19 9.95 11.51 9.95L20.58 9.95C20.91 9.95 21.16 10.17 21.16 10.45C21.16 10.73 20.91 10.95 20.58 10.95L11.51 10.95C11.19 10.95 10.93 10.73 10.93 10.45ZM11.51 14.3C11.19 14.3 10.93 14.52 10.93 14.8C10.93 15.08 11.19 15.3 11.51 15.3L20.58 15.3C20.91 15.3 21.16 15.08 21.16 14.8C21.16 14.52 20.91 14.3 20.58 14.3L11.51 14.3ZM6.16 19.15C6.16 18.87 6.38 18.65 6.66 18.65L20.66 18.65C20.94 18.65 21.16 18.87 21.16 19.15C21.16 19.43 20.94 19.65 20.66 19.65L6.66 19.65C6.38 19.65 6.16 19.43 6.16 19.15Z" fill="#4C4C4C" fill-opacity="1.000000" fill-rule="evenodd"/>
		<path id="矢量 62" d="M5.93 6.1C5.93 6.38 6.19 6.6 6.51 6.6L20.58 6.6C20.91 6.6 21.16 6.38 21.16 6.1C21.16 5.82 20.91 5.6 20.58 5.6L6.51 5.6C6.19 5.6 5.93 5.82 5.93 6.1ZM10.93 10.45C10.93 10.73 11.19 10.95 11.51 10.95L20.58 10.95C20.91 10.95 21.16 10.73 21.16 10.45C21.16 10.17 20.91 9.95 20.58 9.95L11.51 9.95C11.19 9.95 10.93 10.17 10.93 10.45ZM10.93 14.8C10.93 15.08 11.19 15.3 11.51 15.3L20.58 15.3C20.91 15.3 21.16 15.08 21.16 14.8C21.16 14.52 20.91 14.3 20.58 14.3L11.51 14.3C11.19 14.3 10.93 14.52 10.93 14.8ZM6.16 19.15C6.16 19.43 6.38 19.65 6.66 19.65L20.66 19.65C20.94 19.65 21.16 19.43 21.16 19.15C21.16 18.87 20.94 18.65 20.66 18.65L6.66 18.65C6.38 18.65 6.16 18.87 6.16 19.15Z" stroke="#4C4C4C" stroke-opacity="1.000000" stroke-width="0.400000"/>
		<path id="矢量 63" d="M8.45 11.31L7.14 12.62L8.45 13.93C8.65 14.13 8.65 14.44 8.45 14.64C8.25 14.84 7.94 14.84 7.74 14.64L6.08 12.98C5.98 12.88 5.93 12.76 5.93 12.62C5.93 12.48 5.98 12.37 6.08 12.27L7.74 10.6C7.94 10.4 8.25 10.4 8.45 10.6C8.65 10.8 8.65 11.11 8.45 11.31Z" fill="#4C4C4C" fill-opacity="1.000000" fill-rule="evenodd"/>
	</g>
</svg>
