<svg width="32.000000" height="32.000000" viewBox="0 0 32 32" fill="none" xmlns="http://www.w3.org/2000/svg" xmlns:xlink="http://www.w3.org/1999/xlink">
	<desc>
			Created with Pixso.
	</desc>
	<defs>
		<clipPath id="clip21_1654">
			<rect id="svg" width="24.000000" height="24.000000" transform="translate(4.000000 4.000000)" fill="white" fill-opacity="0"/>
		</clipPath>
	</defs>
	<rect id="矩形 350" rx="2.000000" width="32.000000" height="32.000000" fill-opacity="0.130000"/>
	<rect id="矩形 350" x="0.200012" y="0.199951" rx="2.000000" width="31.600000" height="31.600000" stroke="#ECEFE6" stroke-opacity="1.000000" stroke-width="0.400000"/>
	<g clip-path="url(#clip21_1654)">
		<path id="矢量 4" d="M13.85 7L26.79 7C27.09 7 27.32 7.21 27.32 7.5C27.32 7.78 27.09 8 26.79 8L13.85 8C13.55 8 13.32 7.78 13.32 7.5C13.32 7.21 13.55 7 13.85 7Z" fill="#666666" fill-opacity="1.000000" fill-rule="evenodd"/>
		<path id="矢量 29" d="M13.85 15L26.79 15C27.09 15 27.32 15.22 27.32 15.5C27.32 15.78 27.09 16 26.79 16L13.85 16C13.55 16 13.32 15.78 13.32 15.5C13.32 15.22 13.55 15 13.85 15Z" fill="#666666" fill-opacity="1.000000" fill-rule="evenodd"/>
		<path id="矢量 30" d="M13.85 23L26.79 23C27.09 23 27.32 23.22 27.32 23.5C27.32 23.78 27.09 24 26.79 24L13.85 24C13.55 24 13.32 23.78 13.32 23.5C13.32 23.22 13.55 23 13.85 23Z" fill="#666666" fill-opacity="1.000000" fill-rule="evenodd"/>
		<path id="一、" d="M8.75 6.67L4.23 6.67L4.23 7.14L8.75 7.14L8.75 6.67ZM10.46 8.52Q10.19 8.22 9.87 8.01L9.58 8.27C9.78 8.42 9.97 8.6 10.15 8.79C10.33 8.98 10.48 9.16 10.59 9.32L10.92 9.05Q10.72 8.78 10.46 8.52Z" fill="#666666" fill-opacity="1.000000" fill-rule="evenodd"/>
		<path id="二、" d="M8.28 13.16L4.71 13.16L4.71 13.62L8.28 13.62L8.28 13.16ZM10.46 16.52Q10.19 16.23 9.87 16.01L9.58 16.27C9.78 16.42 9.97 16.6 10.15 16.79C10.33 16.98 10.48 17.16 10.59 17.32L10.92 17.05Q10.72 16.78 10.46 16.52ZM8.74 16.31L4.25 16.31L4.25 16.78L8.74 16.78L8.74 16.31Z" fill="#666666" fill-opacity="1.000000" fill-rule="evenodd"/>
		<path id="三、" d="M8.46 21.49L4.55 21.49L4.55 21.96L8.46 21.96L8.46 21.49ZM8.09 23.21L4.91 23.21L4.91 23.67L8.09 23.67L8.09 23.21ZM10.46 25.02Q10.19 24.73 9.87 24.51L9.58 24.77C9.78 24.92 9.97 25.1 10.15 25.29C10.33 25.48 10.48 25.66 10.59 25.82L10.92 25.55Q10.72 25.28 10.46 25.02ZM8.75 25.05L4.24 25.05L4.24 25.52L8.75 25.52L8.75 25.05Z" fill="#666666" fill-opacity="1.000000" fill-rule="evenodd"/>
	</g>
</svg>
