<svg width="32.000000" height="32.000000" viewBox="0 0 32 32" fill="none" xmlns="http://www.w3.org/2000/svg" xmlns:xlink="http://www.w3.org/1999/xlink">
	<desc>
			Created with Pixso.
	</desc>
	<defs>
		<clipPath id="clip21_1647">
			<rect id="svg" width="24.000000" height="24.000000" transform="translate(4.000000 4.000000)" fill="white" fill-opacity="0"/>
		</clipPath>
	</defs>
	<rect id="矩形 350" rx="2.000000" width="32.000000" height="32.000000"  fill-opacity="0.130000"/>
	<rect id="矩形 350" x="0.200012" y="0.199951" rx="2.000000" width="31.600000" height="31.600000"  stroke-opacity="1.000000" stroke-width="0.400000"/>
	<g clip-path="url(#clip21_1647)">
		<path id="path" d="M6.21 3.99L6.8 3.99L6.8 8.76L6.02 8.76L6.02 4.94C5.73 5.2 5.37 5.39 4.93 5.52L4.93 4.74C5.14 4.69 5.37 4.59 5.61 4.46C5.85 4.31 6.05 4.16 6.21 3.99ZM6.47 11.9C6.93 11.9 7.31 12.04 7.61 12.3C7.9 12.57 8.05 12.91 8.05 13.34C8.05 13.75 7.89 14.12 7.58 14.46C7.4 14.66 7.06 14.92 6.6 15.23C6.11 15.55 5.82 15.83 5.71 16.07L8.06 16.07L8.06 16.76L4.74 16.76C4.74 16.27 4.89 15.85 5.21 15.49C5.38 15.29 5.75 15 6.3 14.62C6.61 14.4 6.82 14.22 6.96 14.08C7.05 13.98 7.13 13.87 7.18 13.74C7.24 13.61 7.27 13.47 7.27 13.33C7.27 13.07 7.2 12.88 7.06 12.75C6.92 12.62 6.72 12.56 6.44 12.56C6.15 12.56 5.93 12.66 5.78 12.86C5.64 13.05 5.56 13.34 5.54 13.71L4.76 13.71C4.77 13.18 4.92 12.75 5.23 12.42C5.54 12.08 5.96 11.9 6.47 11.9ZM6.44 19.91C6.92 19.91 7.32 20.02 7.61 20.25C7.9 20.49 8.04 20.81 8.04 21.22C8.04 21.74 7.78 22.09 7.25 22.26C7.53 22.35 7.75 22.47 7.9 22.65C8.06 22.83 8.14 23.06 8.14 23.34C8.14 23.78 7.98 24.14 7.68 24.42C7.36 24.71 6.94 24.85 6.42 24.85C5.92 24.85 5.52 24.73 5.22 24.47C4.89 24.19 4.7 23.78 4.66 23.25L5.46 23.25C5.47 23.55 5.56 23.79 5.75 23.96C5.92 24.11 6.14 24.19 6.41 24.19C6.71 24.19 6.95 24.11 7.12 23.94C7.2 23.87 7.26 23.78 7.3 23.68C7.34 23.58 7.36 23.48 7.36 23.37C7.36 23.1 7.27 22.9 7.11 22.77C6.95 22.64 6.72 22.58 6.41 22.58L6.08 22.58L6.08 21.99L6.41 21.99C6.69 21.99 6.9 21.93 7.05 21.81C7.19 21.69 7.26 21.51 7.26 21.28C7.26 21.05 7.2 20.87 7.07 20.75C6.93 20.63 6.72 20.57 6.45 20.57C6.17 20.57 5.96 20.64 5.8 20.78C5.64 20.92 5.55 21.13 5.52 21.42L4.76 21.42C4.8 20.94 4.97 20.57 5.29 20.3C5.59 20.03 5.98 19.91 6.44 19.91Z" fill="#666666" fill-opacity="1.000000" fill-rule="nonzero"/>
		<path id="矢量 4" d="M13.51 7L26.45 7C26.74 7 26.98 7.21 26.98 7.5C26.98 7.78 26.74 8 26.45 8L13.51 8C13.21 8 12.98 7.78 12.98 7.5C12.98 7.21 13.21 7 13.51 7Z" fill="#666666" fill-opacity="1.000000" fill-rule="evenodd"/>
		<path id="矢量 29" d="M13.51 15L26.45 15C26.74 15 26.98 15.22 26.98 15.5C26.98 15.78 26.74 16 26.45 16L13.51 16C13.21 16 12.98 15.78 12.98 15.5C12.98 15.22 13.21 15 13.51 15Z" fill="#666666" fill-opacity="1.000000" fill-rule="evenodd"/>
		<path id="矢量 30" d="M13.51 23L26.45 23C26.74 23 26.98 23.22 26.98 23.5C26.98 23.78 26.74 24 26.45 24L13.51 24C13.21 24 12.98 23.78 12.98 23.5C12.98 23.22 13.21 23 13.51 23Z" fill="#666666" fill-opacity="1.000000" fill-rule="evenodd"/>
		<circle id="椭圆 64" cx="9.344604" cy="7.927979" r="0.500000" fill="#666666" fill-opacity="1.000000"/>
		<circle id="椭圆 65" cx="9.344604" cy="15.881104" r="0.500000" fill="#666666" fill-opacity="1.000000"/>
		<circle id="椭圆 66" cx="9.344604" cy="23.834229" r="0.500000" fill="#666666" fill-opacity="1.000000"/>
	</g>
</svg>
