<svg width="32.000000" height="32.000000" viewBox="0 0 32 32" fill="none" xmlns="http://www.w3.org/2000/svg" xmlns:xlink="http://www.w3.org/1999/xlink">
	<desc>
			Created with Pixso.
	</desc>
	<defs>
		<clipPath id="clip21_1675">
			<rect id="svg" width="24.000000" height="24.000000" transform="translate(4.000000 4.000000)" fill="white" fill-opacity="0"/>
		</clipPath>
	</defs>
	<rect id="矩形 350" x="0.200012" y="0.199951" rx="2.000000" width="31.600000" height="31.600000"  stroke-opacity="1.000000" stroke-width="0.400000"/>
	<g clip-path="url(#clip21_1675)">
		<path id="矢量 4" d="M13.65 7L26.59 7C26.89 7 27.12 7.21 27.12 7.5C27.12 7.78 26.89 8 26.59 8L13.65 8C13.36 8 13.12 7.78 13.12 7.5C13.12 7.21 13.36 7 13.65 7Z" fill="#666666" fill-opacity="1.000000" fill-rule="evenodd"/>
		<path id="矢量 29" d="M13.65 15L26.59 15C26.89 15 27.12 15.22 27.12 15.5C27.12 15.78 26.89 16 26.59 16L13.65 16C13.36 16 13.12 15.78 13.12 15.5C13.12 15.22 13.36 15 13.65 15Z" fill="#666666" fill-opacity="1.000000" fill-rule="evenodd"/>
		<path id="矢量 30" d="M13.65 23L26.59 23C26.89 23 27.12 23.22 27.12 23.5C27.12 23.78 26.89 24 26.59 24L13.65 24C13.36 24 13.12 23.78 13.12 23.5C13.12 23.22 13.36 23 13.65 23Z" fill="#666666" fill-opacity="1.000000" fill-rule="evenodd"/>
		<circle id="椭圆 67" cx="8.144409" cy="6.887329" r="2.051001" stroke="#666666" stroke-opacity="0.990000" stroke-width="0.200000"/>
		<path id="1" d="M8.42 8.38L8.42 5.53L8.09 5.53Q7.96 5.67 7.74 5.81C7.6 5.89 7.46 5.95 7.33 5.98L7.33 6.41Q7.72 6.3 7.99 6.05L7.99 6.05L7.99 8.38L8.42 8.38Z" fill="#666666" fill-opacity="1.000000" fill-rule="evenodd"/>
		<circle id="椭圆 67" cx="8.144409" cy="15.000122" r="2.051001" stroke="#666666" stroke-opacity="0.990000" stroke-width="0.200000"/>
		<path id="2" d="M8.74 13.74Q8.5 13.58 8.17 13.58Q7.86 13.58 7.63 13.72Q7.52 13.79 7.43 13.89Q7.4 13.93 7.36 13.97Q7.16 14.24 7.16 14.66L7.59 14.66Q7.6 14.31 7.74 14.13Q7.78 14.08 7.83 14.04Q7.96 13.95 8.15 13.95Q8.41 13.95 8.54 14.07C8.63 14.15 8.67 14.27 8.67 14.43Q8.67 14.47 8.67 14.52Q8.64 14.72 8.48 14.9C8.4 14.98 8.26 15.09 8.07 15.23Q7.57 15.57 7.42 15.75Q7.28 15.91 7.21 16.1Q7.14 16.28 7.14 16.5L9.11 16.5L9.11 16.11L7.68 16.11C7.74 15.95 7.92 15.77 8.23 15.57Q8.66 15.28 8.82 15.11Q9.04 14.87 9.09 14.6Q9.1 14.52 9.1 14.44Q9.1 14.21 9.01 14.04Q8.95 13.92 8.84 13.82Q8.79 13.77 8.74 13.74Z" fill="#666666" fill-opacity="1.000000" fill-rule="evenodd"/>
		<circle id="椭圆 67" cx="8.144409" cy="23.500122" r="2.051001" stroke="#666666" stroke-opacity="0.990000" stroke-width="0.200000"/>
		<path id="3" d="M8.84 22.29Q8.58 22.08 8.15 22.08Q7.79 22.08 7.55 22.25Q7.51 22.28 7.47 22.32Q7.39 22.38 7.34 22.46Q7.18 22.67 7.15 22.98L7.58 22.98C7.6 22.81 7.65 22.68 7.75 22.59Q7.75 22.58 7.76 22.58Q7.9 22.46 8.16 22.46Q8.42 22.46 8.54 22.57Q8.57 22.59 8.58 22.61Q8.67 22.72 8.67 22.9C8.67 23.04 8.62 23.15 8.53 23.23C8.44 23.31 8.31 23.35 8.14 23.35L7.93 23.35L7.93 23.67L8.14 23.67Q8.42 23.67 8.57 23.79Q8.6 23.82 8.62 23.85Q8.72 23.97 8.72 24.17Q8.72 24.27 8.69 24.36Q8.65 24.45 8.58 24.52Q8.54 24.56 8.49 24.59Q8.34 24.68 8.13 24.68Q7.93 24.68 7.79 24.59Q7.75 24.57 7.72 24.54C7.61 24.44 7.54 24.29 7.54 24.09L7.1 24.09Q7.13 24.49 7.33 24.73Q7.38 24.78 7.43 24.83Q7.45 24.84 7.47 24.86Q7.73 25.05 8.14 25.05Q8.5 25.05 8.77 24.88Q8.83 24.84 8.88 24.79Q8.99 24.69 9.06 24.57Q9.16 24.38 9.16 24.15Q9.16 23.94 9.06 23.79Q9.04 23.76 9.01 23.73C8.92 23.62 8.79 23.55 8.63 23.5C8.94 23.39 9.1 23.18 9.1 22.87Q9.1 22.64 9 22.47Q8.94 22.37 8.84 22.29Z" fill="#666666" fill-opacity="1.000000" fill-rule="evenodd"/>
	</g>
</svg>
