<svg width="32.000000" height="32.000000" viewBox="0 0 32 32" fill="none" xmlns="http://www.w3.org/2000/svg" xmlns:xlink="http://www.w3.org/1999/xlink">
	<desc>
			Created with Pixso.
	</desc>
	<defs>
		<clipPath id="clip21_1668">
			<rect id="svg" width="24.000000" height="24.000000" transform="translate(4.000000 4.000000)" fill="white" fill-opacity="0"/>
		</clipPath>
	</defs>
	<rect id="矩形 350" x="0.200012" y="0.200012" rx="2.000000" width="31.600000" height="31.600000" stroke="#ECEFE6" stroke-opacity="1.000000" stroke-width="0.400000"/>
	<g clip-path="url(#clip21_1668)">
		<path id="矢量 4" d="M13.64 7L26.58 7C26.88 7 27.11 7.22 27.11 7.5C27.11 7.77 26.88 8 26.58 8L13.64 8C13.34 8 13.11 7.77 13.11 7.5C13.11 7.22 13.34 7 13.64 7Z" fill="#666666" fill-opacity="1.000000" fill-rule="evenodd"/>
		<path id="矢量 29" d="M13.64 15L26.58 15C26.88 15 27.11 15.22 27.11 15.5C27.11 15.78 26.88 16 26.58 16L13.64 16C13.34 16 13.11 15.78 13.11 15.5C13.11 15.22 13.34 15 13.64 15Z" fill="#666666" fill-opacity="1.000000" fill-rule="evenodd"/>
		<path id="矢量 30" d="M13.64 23L26.58 23C26.88 23 27.11 23.22 27.11 23.5C27.11 23.78 26.88 24 26.58 24L13.64 24C13.34 24 13.11 23.78 13.11 23.5C13.11 23.22 13.34 23 13.64 23Z" fill="#666666" fill-opacity="1.000000" fill-rule="evenodd"/>
		<path id="a" d="M6.76 5.15Q6.44 4.81 5.75 4.81Q5.13 4.81 4.8 5.04Q4.69 5.11 4.61 5.2Q4.38 5.45 4.33 5.85L4.96 5.85Q4.98 5.68 5.07 5.57Q5.13 5.5 5.21 5.44Q5.38 5.32 5.71 5.32Q6.09 5.32 6.26 5.51Q6.41 5.67 6.41 5.97L6.41 6.05L5.72 6.06Q5.09 6.06 4.7 6.3Q4.51 6.41 4.4 6.58Q4.24 6.82 4.24 7.17Q4.24 7.42 4.34 7.61Q4.41 7.74 4.52 7.83Q4.54 7.84 4.55 7.85Q4.83 8.08 5.29 8.08Q5.69 8.08 6 7.93Q6.28 7.79 6.45 7.56L6.45 7.99L7.04 7.99L7.04 6.01Q7.04 5.45 6.76 5.15Q6.76 5.15 6.76 5.15ZM5.76 6.54L6.41 6.54L6.41 6.7Q6.41 6.93 6.31 7.12Q6.25 7.24 6.14 7.33Q6.08 7.39 6 7.43Q5.76 7.57 5.43 7.57Q5.17 7.57 5.03 7.45Q4.96 7.4 4.93 7.32Q4.89 7.24 4.89 7.15Q4.89 6.95 4.98 6.82Q5.17 6.54 5.76 6.54Z" fill="#666666" fill-opacity="1.000000" fill-rule="evenodd"/>
		<path id="b" d="M4.99 12.21L4.36 12.21L4.36 16.57L4.95 16.57L4.95 16.2Q5.07 16.37 5.23 16.47Q5.51 16.66 5.91 16.66Q6.32 16.66 6.63 16.48Q6.83 16.36 6.98 16.17Q7 16.15 7.02 16.12Q7.34 15.68 7.34 15.01Q7.34 14.42 7.08 14Q7.04 13.94 6.99 13.87Q6.83 13.68 6.63 13.56Q6.34 13.39 5.94 13.39Q5.75 13.39 5.59 13.45Q5.25 13.57 4.99 13.93L4.99 12.21ZM5.44 13.99Q5.59 13.9 5.8 13.9Q6.14 13.9 6.35 14.07Q6.43 14.13 6.49 14.22Q6.69 14.49 6.69 15.01Q6.69 15.51 6.5 15.81Q6.42 15.92 6.31 16Q6.11 16.14 5.81 16.14Q5.59 16.14 5.42 16.04Q5.28 15.96 5.17 15.81Q4.97 15.51 4.97 15.05L4.97 15Q4.97 14.49 5.22 14.19Q5.31 14.06 5.44 13.99Z" fill="#666666" fill-opacity="1.000000" fill-rule="evenodd"/>
		<path id="c" d="M6.69 21.31Q6.33 21.04 5.74 21.04Q5.26 21.04 4.92 21.26Q4.75 21.36 4.61 21.53Q4.56 21.59 4.51 21.66Q4.24 22.08 4.24 22.68Q4.24 23.32 4.54 23.74Q4.58 23.8 4.62 23.84Q4.74 23.98 4.88 24.08Q5.23 24.31 5.72 24.31Q6.29 24.31 6.65 24.04Q6.67 24.03 6.68 24.01Q7.05 23.7 7.16 23.08L6.53 23.08Q6.48 23.44 6.28 23.62Q6.08 23.79 5.73 23.79Q5.47 23.79 5.29 23.67Q5.19 23.6 5.11 23.5Q4.89 23.2 4.89 22.67Q4.89 22.14 5.12 21.86Q5.21 21.74 5.33 21.66Q5.5 21.56 5.74 21.56Q6.06 21.56 6.26 21.71Q6.45 21.85 6.51 22.18L7.14 22.18Q7.07 21.68 6.78 21.39Q6.74 21.35 6.69 21.31Z" fill="#666666" fill-opacity="1.000000" fill-rule="evenodd"/>
		<circle id="椭圆 64" cx="8.500000" cy="7.749390" r="0.500000" fill="#666666" fill-opacity="1.000000"/>
		<circle id="椭圆 65" cx="8.500000" cy="16.000000" r="0.500000" fill="#666666" fill-opacity="1.000000"/>
		<circle id="椭圆 66" cx="8.500000" cy="23.834106" r="0.500000" fill="#666666" fill-opacity="1.000000"/>
	</g>
</svg>
