<svg width="24.000000" height="24.000000" viewBox="0 0 24 24" fill="none" xmlns="http://www.w3.org/2000/svg" xmlns:xlink="http://www.w3.org/1999/xlink">
	<desc>
			Created with Pixso.
	</desc>
	<defs>
		<clipPath id="clip221_69">
			<rect id="svg" width="24.000000" height="24.000000" fill="white" fill-opacity="0"/>
		</clipPath>
	</defs>
	<g clip-path="url(#clip221_69)">
		<path id="矢量 44" d="M3.55 10.63C3.6 10.57 3.67 10.52 3.75 10.46C3.91 10.33 4.08 10.24 4.24 10.18C4.47 10.1 4.78 10.09 4.98 10.12Q5.05 10.14 5.13 10.17Q5.47 10.31 5.71 10.68C5.78 10.78 5.83 10.89 5.86 11C5.88 11.08 5.89 11.16 5.89 11.25C5.89 11.42 5.84 11.6 5.76 11.79C5.63 12.06 5.41 12.34 5.09 12.63C5.03 12.68 4.97 12.74 4.9 12.79L5.75 12.79C5.94 12.79 6.1 12.95 6.1 13.14C6.1 13.34 5.94 13.49 5.75 13.49L3.83 13.49C3.75 13.5 3.68 13.48 3.62 13.44C3.54 13.4 3.48 13.32 3.46 13.23C3.44 13.14 3.45 13.05 3.5 12.97C3.53 12.91 3.58 12.86 3.65 12.83C3.73 12.78 3.83 12.71 3.95 12.63C4.2 12.46 4.43 12.29 4.62 12.11C4.87 11.89 5.04 11.68 5.13 11.49C5.19 11.36 5.17 11.17 5.13 11.07C5.03 10.92 4.92 10.83 4.81 10.8C4.72 10.78 4.61 10.79 4.49 10.84C4.39 10.87 4.28 10.93 4.17 11.02C4.12 11.06 4.08 11.09 4.05 11.12C3.91 11.26 3.69 11.26 3.55 11.12C3.41 10.98 3.41 10.76 3.55 10.63Z" fill="#4C4C4C" fill-opacity="1.000000" fill-rule="evenodd"/>
		<path id="矢量 45" d="M3.51 16.82C3.55 16.77 3.6 16.7 3.66 16.64Q3.85 16.43 4.07 16.31C4.23 16.22 4.4 16.16 4.57 16.13C4.63 16.12 4.75 16.12 4.82 16.12C5.09 16.13 5.35 16.23 5.62 16.4C5.89 16.59 6.09 16.85 6.17 17.1C6.19 17.16 6.2 17.22 6.2 17.28C6.21 17.45 6.18 17.63 6.11 17.8C6.06 17.92 5.99 18.04 5.9 18.15C5.99 18.27 6.06 18.38 6.11 18.5Q6.22 18.76 6.2 19.02L6.2 19.02C6.2 19.08 6.17 19.19 6.15 19.25C6.07 19.5 5.89 19.72 5.62 19.9C5.35 20.08 5.03 20.17 4.76 20.18Q4.66 20.18 4.57 20.17L4.57 20.17C4.4 20.15 4.23 20.09 4.07 20C3.92 19.91 3.79 19.8 3.66 19.67C3.6 19.6 3.55 19.54 3.51 19.48C3.4 19.32 3.44 19.1 3.61 19C3.77 18.89 4.06 19.03 4.17 19.19C4.25 19.27 4.33 19.34 4.42 19.39C4.51 19.44 4.6 19.47 4.7 19.48C4.87 19.5 5.04 19.44 5.23 19.32C5.38 19.22 5.47 19.12 5.49 19.02C5.51 18.95 5.5 18.87 5.46 18.78C5.43 18.69 5.37 18.61 5.3 18.52C5.29 18.51 5.29 18.51 5.28 18.5L4.77 18.5C4.58 18.5 4.42 18.35 4.42 18.15C4.42 17.96 4.58 17.8 4.77 17.8L5.28 17.8C5.28 17.79 5.29 17.79 5.3 17.78C5.37 17.7 5.43 17.61 5.46 17.53C5.5 17.44 5.51 17.36 5.49 17.29Q5.45 17.13 5.23 16.98C5.04 16.86 4.87 16.81 4.7 16.82C4.6 16.83 4.51 16.86 4.42 16.92C4.33 16.97 4.17 17.13 4.09 17.21C3.98 17.37 3.77 17.42 3.61 17.31C3.44 17.2 3.4 16.99 3.51 16.82Z" fill="#4C4C4C" fill-opacity="1.000000" fill-rule="evenodd"/>
		<path id="矢量 43" d="M5.12 4.19L5.12 6.73L5.75 6.73C5.94 6.73 6.1 6.88 6.1 7.08C6.1 7.27 5.94 7.43 5.75 7.43L3.8 7.43C3.6 7.43 3.45 7.27 3.45 7.08C3.45 6.88 3.6 6.73 3.8 6.73L4.42 6.73L4.42 4.81L3.99 5.1C3.83 5.21 3.62 5.16 3.51 5C3.4 4.84 3.44 4.62 3.61 4.51L4.55 3.88C4.59 3.85 4.64 3.83 4.69 3.82C4.77 3.8 4.85 3.8 4.91 3.84C5.01 3.88 5.08 3.96 5.11 4.06C5.12 4.1 5.13 4.15 5.12 4.19Z" fill="#4C4C4C" fill-opacity="1.000000" fill-rule="evenodd"/>
		<path id="矢量 59" d="M8.66 5.6C8.38 5.6 8.16 5.82 8.16 6.1C8.16 6.38 8.38 6.6 8.66 6.6L20.66 6.6C20.94 6.6 21.16 6.38 21.16 6.1C21.16 5.82 20.94 5.6 20.66 5.6L8.66 5.6ZM8.66 12.17C8.38 12.17 8.16 12.39 8.16 12.67C8.16 12.95 8.38 13.17 8.66 13.17L20.66 13.17C20.94 13.17 21.16 12.95 21.16 12.67C21.16 12.39 20.94 12.17 20.66 12.17L8.66 12.17ZM8.16 19.15C8.16 18.87 8.38 18.65 8.66 18.65L20.66 18.65C20.94 18.65 21.16 18.87 21.16 19.15C21.16 19.43 20.94 19.65 20.66 19.65L8.66 19.65C8.38 19.65 8.16 19.43 8.16 19.15Z" fill="#4C4C4C" fill-opacity="1.000000" fill-rule="evenodd"/>
		<path id="矢量 59" d="M8.16 6.1C8.16 6.38 8.38 6.6 8.66 6.6L20.66 6.6C20.94 6.6 21.16 6.38 21.16 6.1C21.16 5.82 20.94 5.6 20.66 5.6L8.66 5.6C8.38 5.6 8.16 5.82 8.16 6.1ZM8.16 12.67C8.16 12.95 8.38 13.17 8.66 13.17L20.66 13.17C20.94 13.17 21.16 12.95 21.16 12.67C21.16 12.39 20.94 12.17 20.66 12.17L8.66 12.17C8.38 12.17 8.16 12.39 8.16 12.67ZM8.16 19.15C8.16 19.43 8.38 19.65 8.66 19.65L20.66 19.65C20.94 19.65 21.16 19.43 21.16 19.15C21.16 18.87 20.94 18.65 20.66 18.65L8.66 18.65C8.38 18.65 8.16 18.87 8.16 19.15Z" stroke="#4C4C4C" stroke-opacity="1.000000" stroke-width="0.400000"/>
	</g>
</svg>
