<svg width="24.000000" height="24.000000" viewBox="0 0 24 24" fill="none" xmlns="http://www.w3.org/2000/svg" xmlns:xlink="http://www.w3.org/1999/xlink">
	<desc>
			Created with Pixso.
	</desc>
	<defs>
		<clipPath id="clip243_25">
			<rect id="svg" width="24.000000" height="24.000000" fill="white" fill-opacity="0"/>
		</clipPath>
	</defs>
	<g clip-path="url(#clip243_25)">
		<path id="矢量 73" d="M17.66 6.1L6.33 6.1C6.24 6.1 6.15 6.1 6.07 6.12C5.99 6.14 5.92 6.16 5.85 6.19C5.78 6.22 5.71 6.26 5.65 6.3Q5.64 6.3 5.64 6.31L5.64 6.31Q5.54 6.37 5.46 6.46C5.4 6.52 5.35 6.58 5.3 6.65C5.26 6.71 5.22 6.78 5.19 6.85C5.16 6.92 5.14 6.99 5.12 7.07C5.1 7.15 5.1 7.24 5.1 7.33L5.1 16.66C5.1 16.83 5.13 16.99 5.19 17.14C5.25 17.27 5.32 17.38 5.41 17.49C5.43 17.5 5.44 17.52 5.46 17.53C5.46 17.54 5.47 17.55 5.48 17.55C5.57 17.65 5.68 17.72 5.8 17.78C5.82 17.78 5.83 17.79 5.85 17.8C6 17.86 6.16 17.89 6.33 17.89L17.66 17.89C17.83 17.89 17.99 17.86 18.14 17.8C18.29 17.74 18.42 17.65 18.53 17.53C18.65 17.42 18.73 17.29 18.8 17.14C18.86 16.99 18.89 16.83 18.89 16.66L18.89 7.33C18.89 7.24 18.89 7.15 18.87 7.07C18.85 6.99 18.83 6.92 18.8 6.85C18.73 6.7 18.65 6.57 18.53 6.46C18.47 6.4 18.41 6.35 18.34 6.3C18.28 6.26 18.21 6.22 18.14 6.19C17.99 6.13 17.83 6.1 17.66 6.1ZM17.74 14.16L17.66 7.23L6.26 7.26L6.31 13.88L8.59 11.59C8.71 11.47 8.84 11.41 8.96 11.4C9.09 11.4 9.22 11.45 9.35 11.55L10.59 12.54L12.23 10.63C12.35 10.49 12.47 10.42 12.6 10.4C12.73 10.39 12.86 10.44 13.01 10.54L17.74 14.16ZM6.33 16.76L6.32 15.47L9.04 12.75L10.31 13.77C10.45 13.88 10.59 13.93 10.72 13.92C10.85 13.91 10.97 13.83 11.09 13.7L12.74 11.77L17.75 15.6L17.76 16.66L6.33 16.76ZM9.53 9.79C9.57 9.7 9.59 9.6 9.59 9.49C9.59 9.39 9.57 9.29 9.53 9.2C9.49 9.11 9.44 9.03 9.36 8.96C9.29 8.89 9.21 8.83 9.12 8.79C9.03 8.76 8.93 8.74 8.83 8.74C8.72 8.74 8.63 8.76 8.54 8.79C8.45 8.83 8.37 8.89 8.29 8.96C8.22 9.03 8.16 9.11 8.13 9.2C8.09 9.29 8.07 9.39 8.07 9.49C8.07 9.6 8.09 9.7 8.13 9.79C8.16 9.87 8.22 9.96 8.29 10.03C8.37 10.1 8.45 10.16 8.54 10.2C8.63 10.23 8.72 10.25 8.83 10.25C8.93 10.25 9.03 10.23 9.12 10.2C9.21 10.16 9.29 10.1 9.36 10.03C9.44 9.96 9.49 9.87 9.53 9.79ZM9.05 9.4C9.05 9.41 9.05 9.43 9.06 9.45C9.06 9.5 9.06 9.57 9.05 9.59C9.03 9.61 8.95 9.71 8.92 9.72C8.91 9.72 8.9 9.72 8.88 9.72C8.83 9.72 8.76 9.73 8.74 9.72C8.71 9.7 8.62 9.62 8.6 9.59C8.6 9.58 8.6 9.56 8.6 9.54C8.6 9.49 8.59 9.42 8.6 9.4C8.63 9.38 8.71 9.28 8.74 9.27C8.74 9.27 8.76 9.27 8.78 9.27L8.78 9.27C8.83 9.27 8.9 9.26 8.92 9.27C8.95 9.28 9.03 9.38 9.05 9.4Z" fill="#4C4C4C" fill-opacity="1.000000" fill-rule="evenodd"/>
	</g>
</svg>
