<svg width="24.000000" height="24.000000" viewBox="0 0 24 24" fill="none" xmlns="http://www.w3.org/2000/svg" xmlns:xlink="http://www.w3.org/1999/xlink">
	<desc>
			Created with Pixso.
	</desc>
	<defs>
		<clipPath id="clip221_358">
			<rect id="svg" width="24.000000" height="24.000000" transform="matrix(-1 0 0 1 24 0)" fill="white" fill-opacity="0"/>
		</clipPath>
	</defs>
	<g clip-path="url(#clip221_358)">
		<path id="矢量 55" d="M17.93 6.94L16.33 5.57C16.03 5.31 15.99 4.88 16.25 4.58C16.5 4.28 16.94 4.25 17.24 4.5L20.18 7.02C20.39 7.13 20.52 7.33 20.52 7.59C20.54 7.78 20.45 7.99 20.32 8.14L17.28 11.18C17 11.46 16.56 11.46 16.29 11.18C16.01 10.91 16.01 10.47 16.29 10.2L18.14 8.34L9.82 8.34C9.55 8.34 9.28 8.37 9.01 8.41C8.65 8.47 8.3 8.58 7.96 8.72C7.73 8.82 7.5 8.93 7.29 9.06C6.97 9.25 6.68 9.48 6.4 9.75C6.13 10.01 5.89 10.3 5.68 10.61C5.54 10.82 5.42 11.04 5.31 11.27C5.16 11.6 5.04 11.94 4.97 12.3L4.97 12.3Q4.88 12.7 4.87 13.11C4.86 13.42 4.87 13.72 4.92 14.02C4.97 14.38 5.07 14.73 5.21 15.08C5.3 15.32 5.42 15.56 5.55 15.79C5.75 16.12 5.99 16.43 6.27 16.72C6.54 17 6.84 17.25 7.16 17.46C7.39 17.61 7.62 17.73 7.87 17.84C8.21 17.99 8.56 18.1 8.92 18.17C9.21 18.23 9.52 18.26 9.82 18.26L17.22 18.26C17.61 18.26 17.92 18.56 17.92 18.96C17.92 19.35 17.61 19.66 17.22 19.66L9.82 19.66C9.42 19.66 9.02 19.62 8.63 19.54C8.18 19.45 7.74 19.31 7.3 19.12C6.97 18.98 6.66 18.81 6.36 18.61C5.96 18.35 5.6 18.04 5.26 17.69C4.92 17.34 4.62 16.95 4.38 16.54C4.19 16.24 4.04 15.93 3.9 15.59C3.73 15.16 3.61 14.71 3.54 14.26C3.48 13.86 3.45 13.46 3.47 13.06C3.48 12.69 3.53 12.32 3.61 11.97C3.7 11.53 3.85 11.1 4.04 10.68C4.19 10.37 4.35 10.07 4.54 9.79C4.8 9.41 5.09 9.06 5.43 8.74C5.77 8.41 6.13 8.13 6.52 7.89C6.81 7.71 7.11 7.56 7.42 7.43C7.85 7.25 8.29 7.12 8.73 7.04C9.09 6.98 9.45 6.94 9.82 6.94L17.93 6.94Z" fill="#4C4C4C" fill-opacity="1.000000" fill-rule="evenodd"/>
	</g>
</svg>
