<svg width="24.000000" height="24.000000" viewBox="0 0 24 24" fill="none" xmlns="http://www.w3.org/2000/svg" xmlns:xlink="http://www.w3.org/1999/xlink">
	<desc>
			Created with Pixso.
	</desc>
	<defs>
		<clipPath id="clip216_120">
			<rect id="svg" width="24.000000" height="24.000000" fill="white" fill-opacity="0"/>
		</clipPath>
	</defs>
	<g clip-path="url(#clip216_120)">
		<path id="矢量 14" d="M10.42 11.62L5.53 11.62C5.5 11.62 5.46 11.62 5.43 11.61C5.4 11.61 5.37 11.61 5.34 11.6C5.31 11.59 5.28 11.59 5.25 11.58C5.22 11.57 5.19 11.56 5.16 11.54C5.13 11.53 5.1 11.52 5.07 11.5C5.04 11.49 5.02 11.47 4.99 11.45C4.96 11.44 4.94 11.42 4.91 11.4C4.89 11.38 4.87 11.35 4.85 11.33C4.82 11.31 4.8 11.28 4.78 11.26C4.76 11.24 4.75 11.21 4.73 11.18C4.71 11.16 4.7 11.13 4.68 11.1C4.67 11.07 4.66 11.04 4.64 11.01C4.63 10.99 4.62 10.96 4.62 10.92C4.61 10.89 4.6 10.86 4.6 10.83C4.59 10.8 4.59 10.77 4.59 10.74C4.59 10.71 4.59 10.68 4.59 10.65L4.59 5.81C4.59 5.75 4.59 5.69 4.6 5.63C4.62 5.57 4.63 5.51 4.66 5.46C4.68 5.4 4.71 5.35 4.75 5.3C4.78 5.25 4.82 5.2 4.86 5.16C4.91 5.11 4.95 5.07 5 5.04C5.06 5.01 5.11 4.98 5.17 4.95C5.22 4.93 5.28 4.91 5.34 4.9C5.4 4.89 5.47 4.88 5.53 4.88L10.42 4.88C10.45 4.88 10.48 4.88 10.51 4.88C10.55 4.89 10.58 4.89 10.61 4.89C10.64 4.9 10.67 4.9 10.7 4.91C10.73 4.92 10.76 4.93 10.79 4.94C10.82 4.95 10.85 4.96 10.88 4.98C10.91 4.99 10.94 5.01 10.96 5.02C10.99 5.04 11.02 5.06 11.04 5.08C11.07 5.1 11.09 5.12 11.12 5.14C11.14 5.16 11.16 5.18 11.18 5.21C11.2 5.23 11.22 5.26 11.24 5.28C11.26 5.31 11.27 5.33 11.29 5.36C11.3 5.39 11.32 5.42 11.33 5.45C11.34 5.47 11.35 5.5 11.36 5.53C11.37 5.56 11.38 5.59 11.39 5.62C11.39 5.66 11.4 5.69 11.4 5.72C11.41 5.75 11.41 5.78 11.41 5.81L11.41 10.65C11.41 10.68 11.41 10.71 11.41 10.74C11.41 10.77 11.4 10.81 11.4 10.84C11.39 10.87 11.38 10.9 11.38 10.93C11.37 10.96 11.36 11 11.35 11.03C11.33 11.06 11.32 11.09 11.31 11.11C11.29 11.14 11.27 11.17 11.26 11.2C11.24 11.23 11.22 11.25 11.2 11.28C11.18 11.3 11.16 11.33 11.13 11.35C11.11 11.37 11.09 11.39 11.06 11.41C11.03 11.43 11.01 11.45 10.98 11.47C10.95 11.49 10.92 11.5 10.9 11.52C10.87 11.53 10.84 11.55 10.81 11.56C10.77 11.57 10.74 11.58 10.71 11.59C10.68 11.6 10.65 11.6 10.62 11.61C10.58 11.61 10.55 11.62 10.52 11.62C10.48 11.62 10.45 11.62 10.42 11.62ZM10.42 5.81L5.57 5.81L5.63 10.6L10.42 10.6L10.42 5.81ZM15.73 11.86C15.61 11.86 15.48 11.84 15.36 11.79C15.24 11.74 15.14 11.67 15.05 11.58L12.33 8.9C12.31 8.88 12.28 8.86 12.26 8.83C12.24 8.81 12.22 8.78 12.2 8.76C12.19 8.73 12.17 8.71 12.15 8.68C12.14 8.65 12.13 8.62 12.11 8.59C12.1 8.57 12.09 8.54 12.08 8.51C12.07 8.48 12.06 8.45 12.06 8.42C12.05 8.38 12.04 8.35 12.04 8.32C12.04 8.29 12.04 8.26 12.04 8.23C12.04 8.2 12.04 8.17 12.04 8.13C12.04 8.1 12.05 8.07 12.06 8.04C12.06 8.01 12.07 7.98 12.08 7.95C12.09 7.92 12.1 7.89 12.11 7.86C12.13 7.83 12.14 7.81 12.15 7.78C12.17 7.75 12.19 7.72 12.2 7.7C12.22 7.67 12.24 7.65 12.26 7.62C12.28 7.6 12.31 7.58 12.33 7.56L15.04 4.87C15.06 4.85 15.08 4.83 15.11 4.81C15.13 4.79 15.16 4.77 15.18 4.75C15.21 4.73 15.24 4.72 15.26 4.7C15.29 4.69 15.32 4.67 15.35 4.66C15.38 4.65 15.41 4.64 15.44 4.63C15.47 4.62 15.5 4.61 15.53 4.6C15.56 4.6 15.59 4.59 15.63 4.59C15.66 4.59 15.69 4.59 15.72 4.59C15.75 4.59 15.78 4.59 15.82 4.59C15.85 4.59 15.88 4.6 15.91 4.6C15.94 4.61 15.97 4.62 16 4.63C16.03 4.64 16.06 4.65 16.09 4.66C16.12 4.67 16.15 4.69 16.18 4.7C16.2 4.72 16.23 4.73 16.26 4.75C16.28 4.77 16.31 4.79 16.33 4.81C16.36 4.83 16.38 4.85 16.4 4.87L19.11 7.56C19.13 7.58 19.16 7.6 19.18 7.62C19.2 7.65 19.22 7.67 19.24 7.7C19.25 7.72 19.27 7.75 19.29 7.78C19.3 7.81 19.32 7.83 19.33 7.86C19.34 7.89 19.35 7.92 19.36 7.95C19.37 7.98 19.38 8.01 19.39 8.04C19.39 8.07 19.4 8.1 19.4 8.13C19.4 8.17 19.4 8.2 19.4 8.23C19.4 8.26 19.4 8.29 19.4 8.32C19.4 8.35 19.39 8.38 19.39 8.42C19.38 8.45 19.37 8.48 19.36 8.51C19.35 8.54 19.34 8.57 19.33 8.59C19.32 8.62 19.3 8.65 19.29 8.68C19.27 8.71 19.25 8.73 19.24 8.76C19.22 8.78 19.2 8.81 19.18 8.83C19.16 8.86 19.13 8.88 19.11 8.9L16.4 11.58C16.31 11.67 16.21 11.74 16.1 11.79C15.98 11.84 15.86 11.86 15.73 11.86ZM13.11 8.27L15.73 10.81L18.34 8.27L15.73 5.64L13.11 8.27ZM10.42 19.4L5.53 19.4C5.5 19.4 5.46 19.4 5.43 19.4C5.4 19.4 5.37 19.39 5.34 19.38C5.31 19.38 5.28 19.37 5.25 19.36C5.22 19.35 5.19 19.34 5.16 19.33C5.13 19.32 5.1 19.3 5.07 19.29C5.04 19.27 5.02 19.26 4.99 19.24C4.96 19.22 4.94 19.2 4.91 19.18C4.89 19.16 4.87 19.14 4.85 19.12C4.82 19.09 4.8 19.07 4.78 19.04C4.76 19.02 4.75 18.99 4.73 18.97C4.71 18.94 4.7 18.91 4.68 18.88C4.67 18.86 4.66 18.83 4.64 18.8C4.63 18.77 4.62 18.74 4.62 18.71C4.61 18.68 4.6 18.65 4.6 18.62C4.59 18.59 4.59 18.55 4.59 18.52C4.59 18.49 4.59 18.46 4.59 18.43L4.59 13.56C4.59 13.5 4.59 13.44 4.6 13.38C4.62 13.32 4.63 13.26 4.66 13.2C4.68 13.15 4.71 13.09 4.75 13.04C4.78 12.99 4.82 12.95 4.86 12.9C4.91 12.86 4.95 12.82 5 12.79C5.06 12.75 5.11 12.72 5.17 12.7C5.22 12.68 5.28 12.66 5.34 12.65C5.4 12.64 5.47 12.63 5.53 12.63L10.42 12.63C10.45 12.63 10.48 12.63 10.51 12.63C10.55 12.63 10.58 12.64 10.61 12.64C10.64 12.64 10.67 12.65 10.7 12.66C10.73 12.67 10.76 12.68 10.79 12.69C10.82 12.7 10.85 12.71 10.88 12.72C10.91 12.74 10.94 12.75 10.96 12.77C10.99 12.79 11.02 12.8 11.04 12.82C11.07 12.84 11.09 12.86 11.12 12.89C11.14 12.91 11.16 12.93 11.18 12.95C11.2 12.98 11.22 13 11.24 13.03C11.26 13.05 11.27 13.08 11.29 13.11C11.3 13.14 11.32 13.16 11.33 13.19C11.34 13.22 11.35 13.25 11.36 13.28C11.37 13.31 11.38 13.34 11.39 13.37C11.39 13.4 11.4 13.43 11.4 13.46C11.41 13.5 11.41 13.53 11.41 13.56L11.41 18.39C11.41 18.42 11.41 18.46 11.41 18.49C11.41 18.52 11.41 18.56 11.4 18.59C11.4 18.62 11.39 18.66 11.39 18.69C11.38 18.72 11.37 18.75 11.36 18.78C11.35 18.82 11.33 18.85 11.32 18.88C11.31 18.91 11.29 18.93 11.27 18.96C11.25 18.99 11.23 19.02 11.21 19.04C11.19 19.07 11.17 19.1 11.15 19.12C11.12 19.14 11.1 19.17 11.07 19.19C11.05 19.21 11.02 19.23 10.99 19.25C10.97 19.27 10.94 19.28 10.91 19.3C10.88 19.31 10.85 19.33 10.81 19.34C10.78 19.35 10.75 19.36 10.72 19.37C10.69 19.38 10.65 19.39 10.62 19.39C10.59 19.4 10.55 19.4 10.52 19.4C10.49 19.4 10.45 19.4 10.42 19.4ZM10.42 13.6L5.57 13.64L5.63 18.43L10.42 18.38L10.42 13.6ZM18.17 19.4L13.27 19.4C13.24 19.4 13.21 19.4 13.17 19.4C13.14 19.4 13.11 19.39 13.08 19.38C13.05 19.38 13.02 19.37 12.99 19.36C12.96 19.35 12.93 19.34 12.9 19.33C12.87 19.32 12.84 19.3 12.81 19.29C12.79 19.27 12.76 19.26 12.73 19.24C12.71 19.22 12.68 19.2 12.66 19.18C12.63 19.16 12.61 19.14 12.59 19.12C12.57 19.09 12.54 19.07 12.53 19.04C12.51 19.02 12.49 18.99 12.47 18.97C12.45 18.94 12.44 18.91 12.42 18.88C12.41 18.86 12.4 18.83 12.39 18.8C12.38 18.77 12.37 18.74 12.36 18.71C12.35 18.68 12.34 18.65 12.34 18.62C12.33 18.59 12.33 18.55 12.33 18.52C12.33 18.49 12.33 18.46 12.33 18.43L12.33 13.56C12.33 13.5 12.34 13.44 12.35 13.38C12.36 13.32 12.38 13.26 12.4 13.2C12.42 13.15 12.45 13.09 12.49 13.04C12.52 12.99 12.56 12.95 12.6 12.9C12.65 12.86 12.7 12.82 12.75 12.79C12.8 12.75 12.85 12.72 12.91 12.7C12.97 12.68 13.03 12.66 13.09 12.65C13.15 12.64 13.21 12.63 13.27 12.63L18.17 12.63C18.23 12.63 18.29 12.64 18.35 12.65C18.41 12.66 18.47 12.68 18.53 12.7C18.59 12.72 18.64 12.75 18.69 12.79C18.74 12.82 18.79 12.86 18.84 12.9C18.88 12.95 18.92 12.99 18.95 13.04C18.99 13.09 19.02 13.15 19.04 13.2C19.06 13.26 19.08 13.32 19.09 13.38C19.11 13.44 19.11 13.5 19.11 13.56L19.11 18.39C19.11 18.42 19.12 18.46 19.12 18.49C19.11 18.52 19.11 18.55 19.11 18.58C19.1 18.62 19.1 18.65 19.09 18.68C19.09 18.71 19.08 18.74 19.07 18.77C19.06 18.8 19.04 18.83 19.03 18.86C19.02 18.89 19 18.92 18.98 18.95C18.97 18.98 18.95 19 18.93 19.03C18.91 19.05 18.89 19.08 18.87 19.1C18.85 19.13 18.82 19.15 18.8 19.17C18.77 19.19 18.75 19.21 18.72 19.23C18.69 19.25 18.67 19.27 18.64 19.28C18.61 19.3 18.58 19.31 18.55 19.33C18.52 19.34 18.49 19.35 18.46 19.36C18.43 19.37 18.4 19.38 18.37 19.38C18.33 19.39 18.3 19.4 18.27 19.4C18.24 19.4 18.2 19.4 18.17 19.4ZM18.11 13.56L13.27 13.6L13.33 18.39L18.11 18.35L18.11 13.56Z" fill="#4C4C4C" fill-opacity="1.000000" fill-rule="nonzero"/>
		<path id="矢量 14" d="M5.53 11.62C5.5 11.62 5.46 11.62 5.43 11.61C5.4 11.61 5.37 11.61 5.34 11.6C5.31 11.59 5.28 11.59 5.25 11.58C5.22 11.57 5.19 11.56 5.16 11.54C5.13 11.53 5.1 11.52 5.07 11.5C5.04 11.49 5.02 11.47 4.99 11.45C4.96 11.44 4.94 11.42 4.91 11.4C4.89 11.38 4.87 11.35 4.85 11.33C4.82 11.31 4.8 11.28 4.78 11.26C4.76 11.24 4.75 11.21 4.73 11.18C4.71 11.16 4.7 11.13 4.68 11.1C4.67 11.07 4.66 11.04 4.64 11.01C4.63 10.99 4.62 10.96 4.62 10.92C4.61 10.89 4.6 10.86 4.6 10.83C4.59 10.8 4.59 10.77 4.59 10.74C4.59 10.71 4.59 10.68 4.59 10.65L4.59 5.81C4.59 5.75 4.59 5.69 4.6 5.63C4.62 5.57 4.63 5.51 4.66 5.46C4.68 5.4 4.71 5.35 4.75 5.3C4.78 5.25 4.82 5.2 4.86 5.16C4.91 5.11 4.95 5.07 5 5.04C5.06 5.01 5.11 4.98 5.17 4.95C5.22 4.93 5.28 4.91 5.34 4.9C5.4 4.89 5.47 4.88 5.53 4.88L10.42 4.88C10.45 4.88 10.48 4.88 10.51 4.88C10.55 4.89 10.58 4.89 10.61 4.89C10.64 4.9 10.67 4.9 10.7 4.91C10.73 4.92 10.76 4.93 10.79 4.94C10.82 4.95 10.85 4.96 10.88 4.98C10.91 4.99 10.94 5.01 10.96 5.02C10.99 5.04 11.02 5.06 11.04 5.08C11.07 5.1 11.09 5.12 11.12 5.14C11.14 5.16 11.16 5.18 11.18 5.21C11.2 5.23 11.22 5.26 11.24 5.28C11.26 5.31 11.27 5.33 11.29 5.36C11.3 5.39 11.32 5.42 11.33 5.45C11.34 5.47 11.35 5.5 11.36 5.53C11.37 5.56 11.38 5.59 11.39 5.62C11.39 5.66 11.4 5.69 11.4 5.72C11.41 5.75 11.41 5.78 11.41 5.81L11.41 10.65C11.41 10.68 11.41 10.71 11.41 10.74C11.41 10.77 11.4 10.81 11.4 10.84C11.39 10.87 11.38 10.9 11.38 10.93C11.37 10.96 11.36 11 11.35 11.03C11.33 11.06 11.32 11.09 11.31 11.11C11.29 11.14 11.27 11.17 11.26 11.2C11.24 11.23 11.22 11.25 11.2 11.28C11.18 11.3 11.16 11.33 11.13 11.35C11.11 11.37 11.09 11.39 11.06 11.41C11.03 11.43 11.01 11.45 10.98 11.47C10.95 11.49 10.92 11.5 10.9 11.52C10.87 11.53 10.84 11.55 10.81 11.56C10.77 11.57 10.74 11.58 10.71 11.59C10.68 11.6 10.65 11.6 10.62 11.61C10.58 11.61 10.55 11.62 10.52 11.62C10.48 11.62 10.45 11.62 10.42 11.62L5.53 11.62ZM5.57 5.81L5.63 10.6L10.42 10.6L10.42 5.81L5.57 5.81ZM15.36 11.79C15.24 11.74 15.14 11.67 15.05 11.58L12.33 8.9C12.31 8.88 12.28 8.86 12.26 8.83C12.24 8.81 12.22 8.78 12.2 8.76C12.19 8.73 12.17 8.71 12.15 8.68C12.14 8.65 12.13 8.62 12.11 8.59C12.1 8.57 12.09 8.54 12.08 8.51C12.07 8.48 12.06 8.45 12.06 8.42C12.05 8.38 12.04 8.35 12.04 8.32C12.04 8.29 12.04 8.26 12.04 8.23C12.04 8.2 12.04 8.17 12.04 8.13C12.04 8.1 12.05 8.07 12.06 8.04C12.06 8.01 12.07 7.98 12.08 7.95C12.09 7.92 12.1 7.89 12.11 7.86C12.13 7.83 12.14 7.81 12.15 7.78C12.17 7.75 12.19 7.72 12.2 7.7C12.22 7.67 12.24 7.65 12.26 7.62C12.28 7.6 12.31 7.58 12.33 7.56L15.04 4.87C15.06 4.85 15.08 4.83 15.11 4.81C15.13 4.79 15.16 4.77 15.18 4.75C15.21 4.73 15.24 4.72 15.26 4.7C15.29 4.69 15.32 4.67 15.35 4.66C15.38 4.65 15.41 4.64 15.44 4.63C15.47 4.62 15.5 4.61 15.53 4.6C15.56 4.6 15.59 4.59 15.63 4.59C15.66 4.59 15.69 4.59 15.72 4.59C15.75 4.59 15.78 4.59 15.82 4.59C15.85 4.59 15.88 4.6 15.91 4.6C15.94 4.61 15.97 4.62 16 4.63C16.03 4.64 16.06 4.65 16.09 4.66C16.12 4.67 16.15 4.69 16.18 4.7C16.2 4.72 16.23 4.73 16.26 4.75C16.28 4.77 16.31 4.79 16.33 4.81C16.36 4.83 16.38 4.85 16.4 4.87L19.11 7.56C19.13 7.58 19.16 7.6 19.18 7.62C19.2 7.65 19.22 7.67 19.24 7.7C19.25 7.72 19.27 7.75 19.29 7.78C19.3 7.81 19.32 7.83 19.33 7.86C19.34 7.89 19.35 7.92 19.36 7.95C19.37 7.98 19.38 8.01 19.39 8.04C19.39 8.07 19.4 8.1 19.4 8.13C19.4 8.17 19.4 8.2 19.4 8.23C19.4 8.26 19.4 8.29 19.4 8.32C19.4 8.35 19.39 8.38 19.39 8.42C19.38 8.45 19.37 8.48 19.36 8.51C19.35 8.54 19.34 8.57 19.33 8.59C19.32 8.62 19.3 8.65 19.29 8.68C19.27 8.71 19.25 8.73 19.24 8.76C19.22 8.78 19.2 8.81 19.18 8.83C19.16 8.86 19.13 8.88 19.11 8.9L16.4 11.58C16.31 11.67 16.21 11.74 16.1 11.79C15.98 11.84 15.86 11.86 15.73 11.86C15.61 11.86 15.48 11.84 15.36 11.79ZM15.73 10.81L18.34 8.27L15.73 5.64L13.11 8.27L15.73 10.81ZM5.53 19.4C5.5 19.4 5.46 19.4 5.43 19.4C5.4 19.4 5.37 19.39 5.34 19.38C5.31 19.38 5.28 19.37 5.25 19.36C5.22 19.35 5.19 19.34 5.16 19.33C5.13 19.32 5.1 19.3 5.07 19.29C5.04 19.27 5.02 19.26 4.99 19.24C4.96 19.22 4.94 19.2 4.91 19.18C4.89 19.16 4.87 19.14 4.85 19.12C4.82 19.09 4.8 19.07 4.78 19.04C4.76 19.02 4.75 18.99 4.73 18.97C4.71 18.94 4.7 18.91 4.68 18.88C4.67 18.86 4.66 18.83 4.64 18.8C4.63 18.77 4.62 18.74 4.62 18.71C4.61 18.68 4.6 18.65 4.6 18.62C4.59 18.59 4.59 18.55 4.59 18.52C4.59 18.49 4.59 18.46 4.59 18.43L4.59 13.56C4.59 13.5 4.59 13.44 4.6 13.38C4.62 13.32 4.63 13.26 4.66 13.2C4.68 13.15 4.71 13.09 4.75 13.04C4.78 12.99 4.82 12.95 4.86 12.9C4.91 12.86 4.95 12.82 5 12.79C5.06 12.75 5.11 12.72 5.17 12.7C5.22 12.68 5.28 12.66 5.34 12.65C5.4 12.64 5.47 12.63 5.53 12.63L10.42 12.63C10.45 12.63 10.48 12.63 10.51 12.63C10.55 12.63 10.58 12.64 10.61 12.64C10.64 12.64 10.67 12.65 10.7 12.66C10.73 12.67 10.76 12.68 10.79 12.69C10.82 12.7 10.85 12.71 10.88 12.72C10.91 12.74 10.94 12.75 10.96 12.77C10.99 12.79 11.02 12.8 11.04 12.82C11.07 12.84 11.09 12.86 11.12 12.89C11.14 12.91 11.16 12.93 11.18 12.95C11.2 12.98 11.22 13 11.24 13.03C11.26 13.05 11.27 13.08 11.29 13.11C11.3 13.14 11.32 13.16 11.33 13.19C11.34 13.22 11.35 13.25 11.36 13.28C11.37 13.31 11.38 13.34 11.39 13.37C11.39 13.4 11.4 13.43 11.4 13.46C11.41 13.5 11.41 13.53 11.41 13.56L11.41 18.39C11.41 18.42 11.41 18.46 11.41 18.49C11.41 18.52 11.41 18.56 11.4 18.59C11.4 18.62 11.39 18.66 11.39 18.69C11.38 18.72 11.37 18.75 11.36 18.78C11.35 18.82 11.33 18.85 11.32 18.88C11.31 18.91 11.29 18.93 11.27 18.96C11.25 18.99 11.23 19.02 11.21 19.04C11.19 19.07 11.17 19.1 11.15 19.12C11.12 19.14 11.1 19.17 11.07 19.19C11.05 19.21 11.02 19.23 10.99 19.25C10.97 19.27 10.94 19.28 10.91 19.3C10.88 19.31 10.85 19.33 10.81 19.34C10.78 19.35 10.75 19.36 10.72 19.37C10.69 19.38 10.65 19.39 10.62 19.39C10.59 19.4 10.55 19.4 10.52 19.4C10.49 19.4 10.45 19.4 10.42 19.4L5.53 19.4ZM5.57 13.64L5.63 18.43L10.42 18.38L10.42 13.6L5.57 13.64ZM13.27 19.4C13.24 19.4 13.21 19.4 13.17 19.4C13.14 19.4 13.11 19.39 13.08 19.38C13.05 19.38 13.02 19.37 12.99 19.36C12.96 19.35 12.93 19.34 12.9 19.33C12.87 19.32 12.84 19.3 12.81 19.29C12.79 19.27 12.76 19.26 12.73 19.24C12.71 19.22 12.68 19.2 12.66 19.18C12.63 19.16 12.61 19.14 12.59 19.12C12.57 19.09 12.54 19.07 12.53 19.04C12.51 19.02 12.49 18.99 12.47 18.97C12.45 18.94 12.44 18.91 12.42 18.88C12.41 18.86 12.4 18.83 12.39 18.8C12.38 18.77 12.37 18.74 12.36 18.71C12.35 18.68 12.34 18.65 12.34 18.62C12.33 18.59 12.33 18.55 12.33 18.52C12.33 18.49 12.33 18.46 12.33 18.43L12.33 13.56C12.33 13.5 12.34 13.44 12.35 13.38C12.36 13.32 12.38 13.26 12.4 13.2C12.42 13.15 12.45 13.09 12.49 13.04C12.52 12.99 12.56 12.95 12.6 12.9C12.65 12.86 12.7 12.82 12.75 12.79C12.8 12.75 12.85 12.72 12.91 12.7C12.97 12.68 13.03 12.66 13.09 12.65C13.15 12.64 13.21 12.63 13.27 12.63L18.17 12.63C18.23 12.63 18.29 12.64 18.35 12.65C18.41 12.66 18.47 12.68 18.53 12.7C18.59 12.72 18.64 12.75 18.69 12.79C18.74 12.82 18.79 12.86 18.84 12.9C18.88 12.95 18.92 12.99 18.95 13.04C18.99 13.09 19.02 13.15 19.04 13.2C19.06 13.26 19.08 13.32 19.09 13.38C19.11 13.44 19.11 13.5 19.11 13.56L19.11 18.39C19.11 18.42 19.12 18.46 19.12 18.49C19.11 18.52 19.11 18.55 19.11 18.58C19.1 18.62 19.1 18.65 19.09 18.68C19.09 18.71 19.08 18.74 19.07 18.77C19.06 18.8 19.04 18.83 19.03 18.86C19.02 18.89 19 18.92 18.98 18.95C18.97 18.98 18.95 19 18.93 19.03C18.91 19.05 18.89 19.08 18.87 19.1C18.85 19.13 18.82 19.15 18.8 19.17C18.77 19.19 18.75 19.21 18.72 19.23C18.69 19.25 18.67 19.27 18.64 19.28C18.61 19.3 18.58 19.31 18.55 19.33C18.52 19.34 18.49 19.35 18.46 19.36C18.43 19.37 18.4 19.38 18.37 19.38C18.33 19.39 18.3 19.4 18.27 19.4C18.24 19.4 18.2 19.4 18.17 19.4L13.27 19.4ZM13.27 13.6L13.33 18.39L18.11 18.35L18.11 13.56L13.27 13.6Z" stroke="#4C4C4C" stroke-opacity="1.000000" stroke-width="0.300000"/>
	</g>
</svg>
