<svg width="24.000000" height="24.000000" viewBox="0 0 24 24" fill="none" xmlns="http://www.w3.org/2000/svg" xmlns:xlink="http://www.w3.org/1999/xlink">
	<desc>
			Created with Pixso.
	</desc>
	<defs>
		<clipPath id="clip272_13">
			<rect id="svg" width="24.000000" height="24.000000" fill="white" fill-opacity="0"/>
		</clipPath>
	</defs>
	<g clip-path="url(#clip272_13)">
		<path id="path" d="M5.21 18.12L5.19 18.14C4.8 18.14 4.49 17.83 4.49 17.44C4.49 17.05 4.8 16.74 5.19 16.74L5.21 16.76L5.21 18.12ZM18.78 16.76L18.8 16.74C19.19 16.74 19.5 17.05 19.5 17.44C19.5 17.83 19.19 18.14 18.8 18.14L18.78 18.12L18.78 16.76Z" fill="#000000" fill-opacity="0" fill-rule="nonzero"/>
		<path id="path" d="M5.19 17.44L9.96 17.44C7.69 15.95 6.55 14.14 6.55 12C6.55 8.78 8.94 6.55 12 6.55C15.06 6.55 17.44 8.93 17.44 12C17.44 14.04 16.3 15.85 14.04 17.44L18.8 17.44" stroke="#4C4C4C" stroke-opacity="1.000000" stroke-width="1.400000" stroke-linejoin="round" stroke-linecap="round"/>
	</g>
</svg>
