<svg width="24.000000" height="24.000000" viewBox="0 0 24 24" fill="none" xmlns="http://www.w3.org/2000/svg" xmlns:xlink="http://www.w3.org/1999/xlink">
	<desc>
			Created with Pixso.
	</desc>
	<defs>
		<clipPath id="clip221_102">
			<rect id="svg" width="24.000000" height="24.000000" fill="white" fill-opacity="0"/>
		</clipPath>
	</defs>
	<g clip-path="url(#clip221_102)">
		<path id="矢量 61" d="M8.66 5.6C8.38 5.6 8.16 5.82 8.16 6.1C8.16 6.38 8.38 6.6 8.66 6.6L20.66 6.6C20.94 6.6 21.16 6.38 21.16 6.1C21.16 5.82 20.94 5.6 20.66 5.6L8.66 5.6ZM8.66 12.17C8.38 12.17 8.16 12.39 8.16 12.67C8.16 12.95 8.38 13.17 8.66 13.17L20.66 13.17C20.94 13.17 21.16 12.95 21.16 12.67C21.16 12.39 20.94 12.17 20.66 12.17L8.66 12.17ZM8.16 19.15C8.16 18.87 8.38 18.65 8.66 18.65L20.66 18.65C20.94 18.65 21.16 18.87 21.16 19.15C21.16 19.43 20.94 19.65 20.66 19.65L8.66 19.65C8.38 19.65 8.16 19.43 8.16 19.15Z" fill="#4C4C4C" fill-opacity="1.000000" fill-rule="evenodd"/>
		<path id="矢量 61" d="M8.16 6.1C8.16 6.38 8.38 6.6 8.66 6.6L20.66 6.6C20.94 6.6 21.16 6.38 21.16 6.1C21.16 5.82 20.94 5.6 20.66 5.6L8.66 5.6C8.38 5.6 8.16 5.82 8.16 6.1ZM8.16 12.67C8.16 12.95 8.38 13.17 8.66 13.17L20.66 13.17C20.94 13.17 21.16 12.95 21.16 12.67C21.16 12.39 20.94 12.17 20.66 12.17L8.66 12.17C8.38 12.17 8.16 12.39 8.16 12.67ZM8.16 19.15C8.16 19.43 8.38 19.65 8.66 19.65L20.66 19.65C20.94 19.65 21.16 19.43 21.16 19.15C21.16 18.87 20.94 18.65 20.66 18.65L8.66 18.65C8.38 18.65 8.16 18.87 8.16 19.15Z" stroke="#4C4C4C" stroke-opacity="1.000000" stroke-width="0.400000"/>
		<path id="矢量 70" d="M6.61 5.08L4.72 6.97C4.62 7.07 4.5 7.12 4.37 7.12C4.23 7.12 4.11 7.07 4.01 6.97L3.06 6.03C2.87 5.83 2.87 5.52 3.06 5.32C3.26 5.12 3.57 5.12 3.77 5.32L4.37 5.91L5.91 4.37C6.1 4.17 6.42 4.17 6.61 4.37C6.81 4.57 6.81 4.88 6.61 5.08ZM6.61 11.65L4.72 13.54C4.62 13.64 4.5 13.69 4.37 13.69C4.23 13.69 4.11 13.64 4.01 13.54L3.06 12.59C2.87 12.39 2.87 12.08 3.06 11.89C3.26 11.69 3.57 11.69 3.77 11.89L4.37 12.48L5.91 10.94C6.1 10.74 6.42 10.74 6.61 10.94C6.81 11.14 6.81 11.45 6.61 11.65ZM6.61 18.07L4.72 19.97C4.62 20.07 4.5 20.12 4.37 20.12C4.23 20.12 4.11 20.07 4.01 19.97L3.06 19.02C2.87 18.82 2.87 18.51 3.06 18.31C3.26 18.12 3.57 18.12 3.77 18.31L4.37 18.91L5.91 17.37C6.1 17.17 6.42 17.17 6.61 17.37C6.81 17.57 6.81 17.88 6.61 18.07Z" fill="#4C4C4C" fill-opacity="1.000000" fill-rule="evenodd"/>
	</g>
</svg>
