<svg width="24.000000" height="24.000000" viewBox="0 0 24 24" fill="none" xmlns="http://www.w3.org/2000/svg" xmlns:xlink="http://www.w3.org/1999/xlink">
	<desc>
			Created with Pixso.
	</desc>
	<defs>
		<clipPath id="clip21_1710">
			<rect id="svg" width="24.000000" height="24.000000" fill="white" fill-opacity="0"/>
		</clipPath>
	</defs>
	<g clip-path="url(#clip21_1710)">
		<circle id="椭圆 61" cx="2.500000" cy="3.500000" r="1.500000" fill="#666666" fill-opacity="1.000000"/>
		<circle id="椭圆 62" cx="2.500000" cy="11.500000" r="1.500000" fill="#666666" fill-opacity="1.000000"/>
		<circle id="椭圆 63" cx="2.500000" cy="19.500000" r="1.500000" fill="#666666" fill-opacity="1.000000"/>
		<path id="矢量 31" d="M5.68 3L22.31 3C22.69 3 23 3.21 23 3.5C23 3.78 22.69 4 22.31 4L5.68 4C5.3 4 5 3.78 5 3.5C5 3.21 5.3 3 5.68 3Z" fill="#666666" fill-opacity="1.000000" fill-rule="evenodd"/>
		<path id="矢量 32" d="M5.68 11L22.31 11C22.69 11 23 11.22 23 11.5C23 11.78 22.69 12 22.31 12L5.68 12C5.3 12 5 11.78 5 11.5C5 11.22 5.3 11 5.68 11Z" fill="#666666" fill-opacity="1.000000" fill-rule="evenodd"/>
		<path id="矢量 33" d="M5.68 19L22.31 19C22.69 19 23 19.21 23 19.5C23 19.78 22.69 20 22.31 20L5.68 20C5.3 20 5 19.78 5 19.5C5 19.21 5.3 19 5.68 19Z" fill="#666666" fill-opacity="1.000000" fill-rule="evenodd"/>
	</g>
</svg>
