<svg width="24.000000" height="24.000000" viewBox="0 0 24 24" fill="none" xmlns="http://www.w3.org/2000/svg" xmlns:xlink="http://www.w3.org/1999/xlink">
	<desc>
			Created with Pixso.
	</desc>
	<defs>
		<clipPath id="clip221_363">
			<rect id="svg" width="24.000000" height="24.000000" fill="white" fill-opacity="0"/>
		</clipPath>
	</defs>
	<g clip-path="url(#clip221_363)">
		<path id="矢量 54" d="M6.06 6.94L7.66 5.57C7.96 5.31 8 4.88 7.74 4.58C7.49 4.28 7.05 4.25 6.75 4.5L3.83 7.01C3.59 7.11 3.42 7.31 3.42 7.59C3.42 7.64 3.43 7.69 3.44 7.75C3.48 7.88 3.55 8.01 3.65 8.11C3.65 8.12 3.66 8.13 3.67 8.14L6.71 11.18C6.99 11.46 7.43 11.46 7.7 11.18C7.98 10.91 7.98 10.47 7.7 10.2L5.85 8.34L14.17 8.34C14.44 8.34 14.71 8.37 14.98 8.41C15.34 8.47 15.69 8.58 16.03 8.72C16.61 8.96 17.13 9.3 17.59 9.75C17.86 10.01 18.1 10.3 18.31 10.61C18.45 10.82 18.57 11.04 18.68 11.27C18.83 11.6 18.95 11.94 19.02 12.3L19.02 12.3Q19.11 12.7 19.12 13.11C19.13 13.42 19.12 13.72 19.07 14.02C19.02 14.38 18.92 14.73 18.78 15.08C18.54 15.69 18.19 16.24 17.72 16.72C17.45 17 17.15 17.25 16.83 17.46C16.6 17.61 16.37 17.73 16.12 17.84C15.5 18.12 14.85 18.26 14.17 18.26L6.77 18.26C6.38 18.26 6.07 18.56 6.07 18.96C6.07 19.35 6.38 19.66 6.77 19.66L14.17 19.66C14.57 19.66 14.97 19.62 15.36 19.54C15.81 19.45 16.25 19.31 16.69 19.12C17.02 18.98 17.33 18.81 17.63 18.61C18.03 18.35 18.39 18.04 18.73 17.69C19.07 17.34 19.37 16.96 19.61 16.54C19.8 16.24 19.95 15.93 20.09 15.59C20.41 14.78 20.56 13.93 20.52 13.06C20.51 12.69 20.46 12.32 20.38 11.97C20.29 11.53 20.14 11.1 19.95 10.68C19.8 10.37 19.64 10.07 19.45 9.79C19.19 9.41 18.9 9.06 18.56 8.74C17.97 8.17 17.31 7.74 16.57 7.43C16.14 7.25 15.7 7.12 15.26 7.04C14.9 6.98 14.54 6.94 14.17 6.94L6.06 6.94Z" fill="#4C4C4C" fill-opacity="1.000000" fill-rule="evenodd"/>
	</g>
</svg>
