<svg width="24.000000" height="24.000000" viewBox="0 0 24 24" fill="none" xmlns="http://www.w3.org/2000/svg" xmlns:xlink="http://www.w3.org/1999/xlink">
	<desc>
			Created with Pixso.
	</desc>
	<defs>
		<clipPath id="clip272_69">
			<rect id="svg" width="24.000000" height="24.000000" fill="white" fill-opacity="0"/>
		</clipPath>
	</defs>
	<g clip-path="url(#clip272_69)">
		<path id="path" d="M6.98 4.84L14.14 4.84L17.72 8.42L17.72 18.44C17.72 18.83 17.4 19.15 17.01 19.15L6.98 19.15C6.59 19.15 6.27 18.83 6.27 18.44L6.27 5.55C6.27 5.16 6.59 4.84 6.98 4.84Z" fill="#000000" fill-opacity="0" fill-rule="nonzero"/>
		<path id="path" d="M14.14 4.84L17.72 8.42L17.72 18.44C17.72 18.83 17.4 19.15 17.01 19.15L6.98 19.15C6.59 19.15 6.27 18.83 6.27 18.44L6.27 5.55C6.27 5.16 6.59 4.84 6.98 4.84L14.14 4.84Z" stroke="#4C4C4C" stroke-opacity="1.000000" stroke-width="1.000000" stroke-linejoin="round"/>
		<path id="path" d="M8.82 10.65L8.79 10.64C8.75 10.45 8.87 10.26 9.06 10.22C9.25 10.18 9.44 10.3 9.48 10.49L9.46 10.51L8.82 10.65ZM14.53 10.51L14.52 10.49C14.56 10.3 14.74 10.18 14.93 10.22C15.13 10.26 15.24 10.45 15.2 10.64L15.18 10.65L14.53 10.51Z" fill="#000000" fill-opacity="0" fill-rule="nonzero"/>
		<path id="path" d="M9.13 10.56L10.21 15.57L12 12L13.79 15.57L14.86 10.56" stroke="#4C4C4C" stroke-opacity="1.000000" stroke-width="0.700000" stroke-linejoin="round" stroke-linecap="round"/>
	</g>
</svg>
