<svg width="24.000000" height="24.000000" viewBox="0 0 24 24" fill="none" xmlns="http://www.w3.org/2000/svg" xmlns:xlink="http://www.w3.org/1999/xlink">
	<desc>
			Created with Pixso.
	</desc>
	<defs>
		<clipPath id="clip221_316">
			<rect id="svg" width="24.000000" height="24.000000" fill="white" fill-opacity="0"/>
		</clipPath>
	</defs>
	<g clip-path="url(#clip221_316)">
		<path id="矢量 53" d="M18.91 9.17C19.05 9.03 19.28 9.03 19.42 9.17C19.56 9.31 19.56 9.54 19.42 9.68L16.85 12.24C16.51 12.58 16.06 12.77 15.58 12.77C15.37 12.77 15.17 12.73 14.98 12.67L12.6 15.05C12.53 15.11 12.44 15.15 12.34 15.15L5.52 15.15C5.32 15.15 5.16 14.99 5.16 14.79L5.16 13.72C5.16 13.62 5.2 13.53 5.27 13.47L10.53 8.22C10.46 8.04 10.43 7.84 10.43 7.63C10.43 7.15 10.61 6.7 10.95 6.37L13.53 3.8C13.67 3.66 13.89 3.66 14.03 3.8C14.17 3.94 14.17 4.17 14.03 4.31L11.46 6.87C11.26 7.07 11.15 7.34 11.15 7.63C11.15 7.92 11.26 8.19 11.46 8.39L14.81 11.74C15.23 12.16 15.92 12.16 16.34 11.74L18.91 9.17ZM5.88 14.44L12.2 14.44L14.35 12.29C14.34 12.27 14.32 12.26 14.31 12.24L10.95 8.9C10.94 8.88 10.92 8.87 10.91 8.85L5.88 13.87L5.88 14.44ZM4.46 19.73C4.46 19.41 4.72 19.16 5.03 19.16L18.72 19.16C19.04 19.16 19.29 19.41 19.29 19.73C19.29 20.05 19.04 20.3 18.72 20.3L5.03 20.3C4.72 20.3 4.46 20.05 4.46 19.73Z" fill="#4C4C4C" fill-opacity="1.000000" fill-rule="evenodd"/>
		<path id="矢量 53" d="M18.91 9.17L16.34 11.74C15.92 12.16 15.23 12.16 14.81 11.74L11.46 8.39C11.26 8.19 11.15 7.92 11.15 7.63C11.15 7.34 11.26 7.07 11.46 6.87L14.03 4.31C14.17 4.17 14.17 3.94 14.03 3.8C13.89 3.66 13.67 3.66 13.53 3.8L10.95 6.37C10.61 6.7 10.43 7.15 10.43 7.63C10.43 7.84 10.46 8.04 10.53 8.22L5.27 13.47C5.2 13.53 5.16 13.62 5.16 13.72L5.16 14.79C5.16 14.99 5.32 15.15 5.52 15.15L12.34 15.15C12.44 15.15 12.53 15.11 12.6 15.05L14.98 12.67C15.17 12.73 15.37 12.77 15.58 12.77C16.06 12.77 16.51 12.58 16.85 12.24L19.42 9.68C19.56 9.54 19.56 9.31 19.42 9.17C19.28 9.03 19.05 9.03 18.91 9.17ZM5.88 14.44L5.88 13.87L10.91 8.85C10.92 8.87 10.94 8.88 10.95 8.9L14.31 12.24C14.32 12.26 14.34 12.27 14.35 12.29L12.2 14.44L5.88 14.44ZM4.46 19.73C4.46 20.05 4.72 20.3 5.03 20.3L18.72 20.3C19.04 20.3 19.29 20.05 19.29 19.73C19.29 19.41 19.04 19.16 18.72 19.16L5.03 19.16C4.72 19.16 4.46 19.41 4.46 19.73Z" stroke="#4C4C4C" stroke-opacity="1.000000" stroke-width="0.400000"/>
	</g>
</svg>
