<svg width="24.000000" height="24.000000" viewBox="0 0 24 24" fill="none" xmlns="http://www.w3.org/2000/svg" xmlns:xlink="http://www.w3.org/1999/xlink">
	<desc>
			Created with Pixso.
	</desc>
	<defs>
		<clipPath id="clip243_77">
			<rect id="svg" width="24.000000" height="24.000000" fill="white" fill-opacity="0"/>
		</clipPath>
	</defs>
	<g clip-path="url(#clip243_77)">
		<path id="矢量 76" d="M5.3 17.65L5.3 6.34C5.3 6.04 5.54 5.8 5.85 5.8C6.15 5.8 6.39 6.04 6.39 6.34L6.39 17.65C6.39 17.95 6.15 18.19 5.85 18.19C5.54 18.19 5.3 17.95 5.3 17.65ZM17.64 6.06C17.54 6.04 17.45 6.03 17.35 6.03L9.76 6.03C9.66 6.03 9.57 6.04 9.48 6.06C9.4 6.08 9.32 6.11 9.24 6.14C9.16 6.17 9.09 6.21 9.02 6.26C8.95 6.3 8.88 6.36 8.82 6.42C8.75 6.49 8.7 6.56 8.65 6.63C8.6 6.7 8.56 6.77 8.53 6.85C8.5 6.92 8.47 7 8.46 7.08C8.44 7.18 8.43 7.27 8.43 7.37L8.43 9.96C8.43 10.06 8.44 10.15 8.46 10.24C8.47 10.32 8.5 10.4 8.53 10.48C8.56 10.56 8.6 10.63 8.65 10.7C8.7 10.77 8.75 10.84 8.82 10.9C8.88 10.97 8.95 11.02 9.02 11.07C9.09 11.12 9.16 11.16 9.24 11.19C9.32 11.22 9.4 11.25 9.48 11.26C9.57 11.28 9.66 11.29 9.76 11.29L17.35 11.29C17.45 11.29 17.54 11.28 17.64 11.26C17.72 11.25 17.8 11.22 17.87 11.19C17.95 11.16 18.02 11.12 18.09 11.07C18.16 11.02 18.23 10.97 18.3 10.9C18.36 10.84 18.42 10.77 18.47 10.7C18.51 10.63 18.55 10.56 18.58 10.48C18.61 10.4 18.64 10.32 18.66 10.24C18.68 10.15 18.69 10.06 18.69 9.96L18.69 7.37C18.69 7.27 18.68 7.18 18.66 7.08C18.64 7 18.61 6.92 18.58 6.85C18.55 6.77 18.51 6.7 18.47 6.63C18.42 6.56 18.36 6.49 18.3 6.42C18.23 6.36 18.16 6.3 18.09 6.26C18.02 6.21 17.95 6.17 17.87 6.14C17.8 6.11 17.72 6.08 17.64 6.06ZM9.76 7.12L17.35 7.12C17.38 7.13 17.51 7.17 17.53 7.19C17.54 7.22 17.6 7.33 17.6 7.37L17.6 9.96C17.59 9.99 17.55 10.11 17.53 10.14C17.5 10.15 17.39 10.21 17.35 10.21L9.76 10.21C9.73 10.2 9.61 10.16 9.58 10.14C9.57 10.11 9.51 10 9.51 9.96L9.51 7.37C9.52 7.34 9.56 7.22 9.58 7.19C9.61 7.17 9.73 7.13 9.76 7.12ZM17.35 12.87C17.45 12.87 17.54 12.88 17.64 12.9C17.72 12.91 17.8 12.94 17.87 12.97C17.95 13 18.02 13.04 18.09 13.09C18.16 13.14 18.23 13.19 18.3 13.26C18.36 13.32 18.42 13.39 18.46 13.46C18.51 13.53 18.55 13.6 18.58 13.68C18.61 13.76 18.64 13.84 18.66 13.92C18.68 14.01 18.69 14.1 18.69 14.2L18.69 16.8C18.69 16.89 18.68 16.99 18.66 17.08C18.64 17.16 18.61 17.24 18.58 17.31C18.55 17.39 18.51 17.46 18.46 17.53C18.42 17.61 18.36 17.67 18.3 17.74C18.23 17.8 18.16 17.86 18.09 17.91C18.02 17.95 17.95 17.99 17.87 18.02C17.8 18.05 17.72 18.08 17.64 18.1C17.54 18.12 17.45 18.13 17.35 18.13L9.76 18.13C9.66 18.13 9.57 18.12 9.48 18.1C9.4 18.08 9.32 18.05 9.24 18.02C9.16 17.99 9.09 17.95 9.02 17.91C8.95 17.86 8.88 17.8 8.82 17.74C8.75 17.67 8.7 17.61 8.65 17.53C8.6 17.46 8.56 17.39 8.53 17.31C8.5 17.24 8.47 17.16 8.46 17.08C8.44 16.99 8.43 16.89 8.43 16.8L8.43 14.2C8.43 14.1 8.44 14.01 8.46 13.92C8.47 13.84 8.5 13.76 8.53 13.68C8.56 13.6 8.6 13.53 8.65 13.46C8.7 13.39 8.75 13.32 8.82 13.26C8.88 13.19 8.95 13.14 9.02 13.09C9.09 13.04 9.16 13 9.24 12.97C9.32 12.94 9.4 12.91 9.48 12.9C9.57 12.88 9.66 12.87 9.76 12.87L17.35 12.87ZM17.35 13.95L9.76 13.95C9.73 13.96 9.61 14 9.58 14.02C9.56 14.05 9.52 14.17 9.51 14.2L9.51 16.8C9.51 16.83 9.57 16.94 9.58 16.97C9.61 16.99 9.73 17.03 9.76 17.04L17.35 17.04C17.39 17.04 17.5 16.98 17.53 16.97C17.55 16.95 17.59 16.82 17.6 16.8L17.6 14.2C17.6 14.16 17.54 14.05 17.53 14.02C17.5 14 17.38 13.96 17.35 13.95Z" fill="#4C4C4C" fill-opacity="1.000000" fill-rule="evenodd"/>
		<path id="矢量 76" d="M5.3 6.34C5.3 6.04 5.54 5.8 5.85 5.8C6.15 5.8 6.39 6.04 6.39 6.34L6.39 17.65C6.39 17.95 6.15 18.19 5.85 18.19C5.54 18.19 5.3 17.95 5.3 17.65L5.3 6.34ZM17.35 6.03L9.76 6.03C9.66 6.03 9.57 6.04 9.48 6.06C9.4 6.08 9.32 6.11 9.24 6.14C9.16 6.17 9.09 6.21 9.02 6.26C8.95 6.3 8.88 6.36 8.82 6.42C8.75 6.49 8.7 6.56 8.65 6.63C8.6 6.7 8.56 6.77 8.53 6.85C8.5 6.92 8.47 7 8.46 7.08C8.44 7.18 8.43 7.27 8.43 7.37L8.43 9.96C8.43 10.06 8.44 10.15 8.46 10.24C8.47 10.32 8.5 10.4 8.53 10.48C8.56 10.56 8.6 10.63 8.65 10.7C8.7 10.77 8.75 10.84 8.82 10.9C8.88 10.97 8.95 11.02 9.02 11.07C9.09 11.12 9.16 11.16 9.24 11.19C9.32 11.22 9.4 11.25 9.48 11.26C9.57 11.28 9.66 11.29 9.76 11.29L17.35 11.29C17.45 11.29 17.54 11.28 17.64 11.26C17.72 11.25 17.8 11.22 17.87 11.19C17.95 11.16 18.02 11.12 18.09 11.07C18.16 11.02 18.23 10.97 18.3 10.9C18.36 10.84 18.42 10.77 18.47 10.7C18.51 10.63 18.55 10.56 18.58 10.48C18.61 10.4 18.64 10.32 18.66 10.24C18.68 10.15 18.69 10.06 18.69 9.96L18.69 7.37C18.69 7.27 18.68 7.18 18.66 7.08C18.64 7 18.61 6.92 18.58 6.85C18.55 6.77 18.51 6.7 18.47 6.63C18.42 6.56 18.36 6.49 18.3 6.42C18.23 6.36 18.16 6.3 18.09 6.26C18.02 6.21 17.95 6.17 17.87 6.14C17.8 6.11 17.72 6.08 17.64 6.06C17.54 6.04 17.45 6.03 17.35 6.03ZM17.35 7.12C17.38 7.13 17.51 7.17 17.53 7.19C17.54 7.22 17.6 7.33 17.6 7.37L17.6 9.96C17.59 9.99 17.55 10.11 17.53 10.14C17.5 10.15 17.39 10.21 17.35 10.21L9.76 10.21C9.73 10.2 9.61 10.16 9.58 10.14C9.57 10.11 9.51 10 9.51 9.96L9.51 7.37C9.52 7.34 9.56 7.22 9.58 7.19C9.61 7.17 9.73 7.13 9.76 7.12L17.35 7.12ZM17.35 12.87L9.76 12.87C9.66 12.87 9.57 12.88 9.48 12.9C9.4 12.91 9.32 12.94 9.24 12.97C9.16 13 9.09 13.04 9.02 13.09C8.95 13.14 8.88 13.19 8.82 13.26C8.75 13.32 8.7 13.39 8.65 13.46C8.6 13.53 8.56 13.6 8.53 13.68C8.5 13.76 8.47 13.84 8.46 13.92C8.44 14.01 8.43 14.1 8.43 14.2L8.43 16.8C8.43 16.89 8.44 16.99 8.46 17.08C8.47 17.16 8.5 17.24 8.53 17.31C8.56 17.39 8.6 17.46 8.65 17.53C8.7 17.61 8.75 17.67 8.82 17.74C8.88 17.8 8.95 17.86 9.02 17.91C9.09 17.95 9.16 17.99 9.24 18.02C9.32 18.05 9.4 18.08 9.48 18.1C9.57 18.12 9.66 18.13 9.76 18.13L17.35 18.13C17.45 18.13 17.54 18.12 17.64 18.1C17.72 18.08 17.8 18.05 17.87 18.02C17.95 17.99 18.02 17.95 18.09 17.91C18.16 17.86 18.23 17.8 18.3 17.74C18.36 17.67 18.42 17.61 18.46 17.53C18.51 17.46 18.55 17.39 18.58 17.31C18.61 17.24 18.64 17.16 18.66 17.08C18.68 16.99 18.69 16.89 18.69 16.8L18.69 14.2C18.69 14.1 18.68 14.01 18.66 13.92C18.64 13.84 18.61 13.76 18.58 13.68C18.55 13.6 18.51 13.53 18.46 13.46C18.42 13.39 18.36 13.32 18.3 13.26C18.23 13.19 18.16 13.14 18.09 13.09C18.02 13.04 17.95 13 17.87 12.97C17.8 12.94 17.72 12.91 17.64 12.9C17.54 12.88 17.45 12.87 17.35 12.87ZM17.35 13.95C17.38 13.96 17.5 14 17.53 14.02C17.54 14.05 17.6 14.16 17.6 14.2L17.6 16.8C17.59 16.82 17.55 16.95 17.53 16.97C17.5 16.98 17.39 17.04 17.35 17.04L9.76 17.04C9.73 17.03 9.61 16.99 9.58 16.97C9.57 16.94 9.51 16.83 9.51 16.8L9.51 14.2C9.52 14.17 9.56 14.05 9.58 14.02C9.61 14 9.73 13.96 9.76 13.95L17.35 13.95Z" stroke="#4C4C4C" stroke-opacity="1.000000" stroke-width="0.250000"/>
	</g>
</svg>
