<svg width="24.000000" height="24.000000" viewBox="0 0 24 24" fill="none" xmlns="http://www.w3.org/2000/svg" xmlns:xlink="http://www.w3.org/1999/xlink">
	<desc>
			Created with Pixso.
	</desc>
	<defs>
		<clipPath id="clip221_320">
			<rect id="svg" width="24.000000" height="24.000000" fill="white" fill-opacity="0"/>
		</clipPath>
	</defs>
	<g clip-path="url(#clip221_320)">
		<path id="矢量 58" d="M16.31 8.18C16.31 8.52 16.27 8.85 16.2 9.16C16.14 9.43 16.06 9.69 15.95 9.94C15.84 10.2 15.71 10.44 15.56 10.67C15.39 10.92 15.2 11.16 14.99 11.37C14.93 11.43 14.87 11.49 14.81 11.54C14.91 11.57 15 11.61 15.09 11.65Q15.47 11.81 15.81 12.03L15.81 12.03C16.07 12.2 16.3 12.4 16.52 12.62C16.74 12.83 16.93 13.07 17.1 13.32C17.25 13.55 17.38 13.79 17.49 14.05C17.59 14.3 17.68 14.56 17.74 14.83C17.81 15.15 17.84 15.47 17.84 15.81C17.84 16.14 17.81 16.47 17.74 16.79C17.68 17.05 17.59 17.31 17.49 17.56C17.38 17.82 17.25 18.07 17.1 18.3C16.93 18.55 16.74 18.78 16.52 19C16.3 19.22 16.07 19.41 15.81 19.58L15.81 19.58Q15.47 19.8 15.09 19.96C14.84 20.07 14.58 20.16 14.31 20.22C14 20.29 13.67 20.32 13.34 20.32L6.85 20.32C6.66 20.32 6.49 20.25 6.35 20.11C6.22 19.98 6.15 19.81 6.15 19.62L6.15 12L6.15 4.37C6.15 4.18 6.22 4.01 6.35 3.88C6.49 3.74 6.66 3.67 6.85 3.67L11.8 3.67C12.14 3.67 12.46 3.71 12.77 3.77C13.04 3.83 13.3 3.92 13.56 4.03Q13.94 4.19 14.27 4.41C14.53 4.58 14.77 4.77 14.99 4.99C15.2 5.21 15.39 5.44 15.56 5.69C15.71 5.92 15.84 6.17 15.95 6.43C16.06 6.68 16.14 6.94 16.2 7.2C16.27 7.52 16.31 7.85 16.31 8.18ZM7.55 11.3L11.8 11.3C12.04 11.3 12.27 11.27 12.5 11.22C12.67 11.18 12.84 11.12 13.01 11.05C13.18 10.98 13.34 10.9 13.49 10.8C13.67 10.68 13.84 10.54 14 10.38C14.15 10.23 14.28 10.07 14.4 9.89C14.5 9.74 14.59 9.57 14.66 9.39C14.73 9.23 14.79 9.06 14.83 8.89C14.88 8.66 14.91 8.42 14.91 8.18C14.91 7.94 14.88 7.71 14.83 7.48C14.79 7.31 14.73 7.14 14.66 6.97C14.59 6.8 14.5 6.63 14.4 6.47C14.28 6.3 14.15 6.13 14 5.98C13.84 5.82 13.67 5.69 13.49 5.57C13.34 5.47 13.18 5.39 13.01 5.31C12.84 5.24 12.67 5.19 12.5 5.15C12.27 5.1 12.04 5.07 11.8 5.07L7.55 5.07L7.55 11.3ZM7.55 12.7L7.55 18.92L13.34 18.92C13.58 18.92 13.81 18.89 14.03 18.84C14.21 18.8 14.38 18.75 14.55 18.68C14.72 18.6 14.87 18.52 15.03 18.42C15.21 18.3 15.38 18.17 15.53 18.01C15.68 17.86 15.82 17.69 15.93 17.52C16.04 17.36 16.12 17.2 16.2 17.02C16.27 16.85 16.32 16.68 16.36 16.51C16.42 16.28 16.44 16.05 16.44 15.81C16.44 15.57 16.42 15.33 16.36 15.1C16.32 14.93 16.27 14.76 16.2 14.6C16.12 14.42 16.04 14.25 15.93 14.1C15.82 13.92 15.68 13.76 15.53 13.61C15.38 13.45 15.21 13.31 15.03 13.19C14.87 13.09 14.72 13.01 14.55 12.94C14.38 12.87 14.21 12.81 14.03 12.77C13.81 12.72 13.58 12.7 13.34 12.7L7.55 12.7Z" fill="#4C4C4C" fill-opacity="1.000000" fill-rule="evenodd"/>
	</g>
</svg>
