<svg width="24.000000" height="24.000000" viewBox="0 0 24 24" fill="none" xmlns="http://www.w3.org/2000/svg" xmlns:xlink="http://www.w3.org/1999/xlink">
	<desc>
			Created with Pixso.
	</desc>
	<defs>
		<clipPath id="clip216_53">
			<rect id="svg" width="24.000000" height="24.000000" fill="white" fill-opacity="0"/>
		</clipPath>
	</defs>
	<g clip-path="url(#clip216_53)">
		<path id="矢量 57" d="M15.16 3.67C14.96 3.65 14.79 3.69 14.64 3.81L6.93 9.61L6.93 9.61L2.31 13.09C2.16 13.21 2.07 13.36 2.04 13.55C2.02 13.75 2.06 13.92 2.18 14.07L5.02 17.85L6.17 19.38C6.24 19.46 6.32 19.53 6.42 19.58C6.52 19.63 6.62 19.65 6.73 19.65L11.4 19.65C11.45 19.65 11.49 19.65 11.53 19.64L20.65 19.62C20.99 19.62 21.25 19.36 21.25 19.02C21.25 18.69 20.99 18.42 20.65 18.42L13.19 18.42L13.5 18.17L14.99 17.14L21.17 12.48C21.32 12.36 21.42 12.21 21.44 12.02C21.47 11.82 21.42 11.65 21.31 11.5L15.62 3.94C15.5 3.79 15.35 3.7 15.16 3.67ZM14.92 5.35L8.19 10.42L13.24 16.65L14.18 15.99L19.77 11.78L14.92 5.35ZM3.72 13.79L7.07 11.26L12.12 17.49L11.16 18.25L7.08 18.25L6.14 17.01L3.72 13.79Z" fill="#4C4C4C" fill-opacity="1.000000" fill-rule="evenodd"/>
	</g>
</svg>
