<svg width="24.000000" height="24.000000" viewBox="0 0 24 24" fill="none" xmlns="http://www.w3.org/2000/svg" xmlns:xlink="http://www.w3.org/1999/xlink">
	<desc>
			Created with Pixso.
	</desc>
	<defs>
		<clipPath id="clip243_56">
			<rect id="svg" width="24.000000" height="24.000000" fill="white" fill-opacity="0"/>
		</clipPath>
	</defs>
	<g clip-path="url(#clip243_56)">
		<path id="矢量 74" d="M10.93 19C10.66 18.95 10.48 18.69 10.53 18.42L12.8 5.4C12.85 5.12 13.11 4.94 13.38 4.99C13.66 5.04 13.84 5.3 13.79 5.57L11.51 18.59C11.46 18.87 11.21 19.05 10.93 19ZM9.75 8.76L6.19 12.45L9.74 15.87C9.94 16.06 9.95 16.37 9.75 16.57C9.56 16.77 9.25 16.78 9.04 16.59L5.14 12.82C5.04 12.73 4.99 12.61 4.99 12.47C4.98 12.33 5.03 12.21 5.13 12.11L9.03 8.07C9.23 7.87 9.54 7.86 9.74 8.05C9.94 8.25 9.95 8.56 9.75 8.76ZM14.96 8.07C14.76 7.87 14.45 7.86 14.25 8.05C14.05 8.25 14.04 8.56 14.24 8.76L17.8 12.45L14.25 15.87C14.05 16.06 14.04 16.37 14.24 16.57C14.43 16.77 14.74 16.78 14.95 16.59L18.85 12.82C18.95 12.73 19 12.61 19 12.47C19.01 12.33 18.96 12.21 18.86 12.11L14.96 8.07Z" fill="#4C4C4C" fill-opacity="1.000000" fill-rule="evenodd"/>
		<path id="矢量 74" d="M6.19 12.45L9.74 15.87C9.94 16.06 9.95 16.37 9.75 16.57C9.56 16.77 9.25 16.78 9.04 16.59L5.14 12.82C5.04 12.73 4.99 12.61 4.99 12.47C4.98 12.33 5.03 12.21 5.13 12.11L9.03 8.07C9.23 7.87 9.54 7.86 9.74 8.05C9.94 8.25 9.95 8.56 9.75 8.76L6.19 12.45ZM14.25 8.05C14.05 8.25 14.04 8.56 14.24 8.76L17.8 12.45L14.25 15.87C14.05 16.06 14.04 16.37 14.24 16.57C14.43 16.77 14.74 16.78 14.95 16.59L18.85 12.82C18.95 12.73 19 12.61 19 12.47C19.01 12.33 18.96 12.21 18.86 12.11L14.96 8.07C14.76 7.87 14.45 7.86 14.25 8.05ZM10.93 19C11.21 19.05 11.46 18.87 11.51 18.59L13.79 5.57C13.84 5.3 13.66 5.04 13.38 4.99C13.11 4.94 12.85 5.12 12.8 5.4L10.53 18.42C10.48 18.69 10.66 18.95 10.93 19Z" stroke="#4C4C4C" stroke-opacity="1.000000" stroke-width="0.250000"/>
	</g>
</svg>
