<svg width="24.000000" height="24.000000" viewBox="0 0 24 24" fill="none" xmlns="http://www.w3.org/2000/svg" xmlns:xlink="http://www.w3.org/1999/xlink">
	<desc>
			Created with Pixso.
	</desc>
	<defs>
		<clipPath id="clip243_62">
			<rect id="svg" width="24.000000" height="24.000000" fill="white" fill-opacity="0"/>
		</clipPath>
	</defs>
	<g clip-path="url(#clip243_62)">
		<path id="矢量 75" d="M11.68 17.57L6.59 17.57C6.48 17.57 6.37 17.56 6.27 17.54C6.18 17.52 6.09 17.49 6 17.45C5.91 17.42 5.83 17.37 5.75 17.32C5.66 17.26 5.59 17.2 5.51 17.13C5.44 17.05 5.37 16.97 5.32 16.89C5.27 16.81 5.22 16.73 5.18 16.64C5.15 16.55 5.12 16.46 5.1 16.37C5.08 16.26 5.06 16.15 5.06 16.04L5.06 7.78C5.06 7.67 5.08 7.56 5.1 7.46C5.12 7.37 5.15 7.28 5.18 7.19C5.22 7.1 5.27 7.02 5.32 6.94C5.37 6.85 5.44 6.77 5.51 6.7C5.59 6.63 5.66 6.56 5.75 6.51C5.83 6.46 5.91 6.41 6 6.37C6.09 6.34 6.18 6.31 6.27 6.29C6.37 6.26 6.48 6.25 6.59 6.25L17.4 6.25C17.51 6.25 17.62 6.26 17.72 6.29C17.81 6.31 17.9 6.34 17.99 6.37C18.08 6.41 18.16 6.46 18.24 6.51C18.33 6.56 18.41 6.63 18.48 6.7C18.55 6.77 18.62 6.85 18.67 6.94C18.72 7.02 18.77 7.1 18.81 7.19C18.84 7.28 18.87 7.37 18.89 7.46C18.91 7.56 18.93 7.67 18.93 7.78L18.93 12.51C18.93 12.83 18.67 13.09 18.35 13.09C18.03 13.09 17.77 12.83 17.77 12.51L17.77 11.22L6.22 11.22L6.22 16.04C6.22 16.1 6.23 16.14 6.24 16.19C6.26 16.23 6.29 16.27 6.33 16.31C6.36 16.35 6.4 16.37 6.45 16.39C6.49 16.41 6.54 16.42 6.59 16.42L11.68 16.42C12 16.42 12.25 16.67 12.25 17C12.25 17.32 12 17.57 11.68 17.57ZM6.22 10.07L17.77 10.07L17.77 7.78C17.77 7.73 17.76 7.68 17.75 7.64C17.73 7.59 17.7 7.55 17.66 7.52C17.63 7.48 17.59 7.45 17.54 7.43C17.5 7.42 17.45 7.41 17.4 7.41L6.59 7.41C6.54 7.41 6.49 7.42 6.45 7.43C6.4 7.45 6.36 7.48 6.33 7.52C6.29 7.55 6.26 7.59 6.24 7.64C6.23 7.68 6.22 7.73 6.22 7.78L6.22 10.07ZM15.47 15.07L14.49 16.04L15.47 17.02C15.63 17.18 15.63 17.45 15.47 17.61C15.3 17.78 15.04 17.78 14.88 17.61L13.6 16.34C13.52 16.26 13.48 16.16 13.48 16.04C13.48 15.93 13.52 15.83 13.6 15.75L14.88 14.48C15.04 14.31 15.3 14.31 15.47 14.48C15.63 14.64 15.63 14.9 15.47 15.07ZM16.78 14.48C16.95 14.31 17.21 14.31 17.38 14.48L18.65 15.75C18.73 15.83 18.77 15.93 18.77 16.04C18.77 16.16 18.73 16.26 18.65 16.34L17.38 17.61C17.21 17.78 16.95 17.78 16.78 17.61C16.62 17.45 16.62 17.18 16.78 17.02L17.76 16.04L16.78 15.07C16.62 14.9 16.62 14.64 16.78 14.48Z" fill="#4C4C4C" fill-opacity="1.000000" fill-rule="evenodd"/>
		<path id="矢量 75" d="M11.68 17.57C12 17.57 12.25 17.32 12.25 17C12.25 16.67 12 16.42 11.68 16.42L6.59 16.42C6.54 16.42 6.49 16.41 6.45 16.39C6.4 16.37 6.36 16.35 6.33 16.31C6.29 16.27 6.26 16.23 6.24 16.19C6.23 16.14 6.22 16.1 6.22 16.04L6.22 7.78C6.22 7.73 6.23 7.68 6.24 7.64C6.26 7.59 6.29 7.55 6.33 7.52C6.36 7.48 6.4 7.45 6.45 7.43C6.49 7.42 6.54 7.41 6.59 7.41L17.4 7.41C17.45 7.41 17.5 7.42 17.54 7.43C17.59 7.45 17.63 7.48 17.66 7.52C17.7 7.55 17.73 7.59 17.75 7.64C17.76 7.68 17.77 7.73 17.77 7.78L17.77 12.51C17.77 12.83 18.03 13.09 18.35 13.09C18.67 13.09 18.93 12.83 18.93 12.51L18.93 7.78C18.93 7.67 18.91 7.56 18.89 7.46C18.87 7.37 18.84 7.28 18.81 7.19C18.77 7.1 18.72 7.02 18.67 6.94C18.62 6.85 18.55 6.77 18.48 6.7C18.41 6.63 18.33 6.56 18.24 6.51C18.16 6.46 18.08 6.41 17.99 6.37C17.9 6.34 17.81 6.31 17.72 6.29C17.62 6.26 17.51 6.25 17.4 6.25L6.59 6.25C6.48 6.25 6.37 6.26 6.27 6.29C6.18 6.31 6.09 6.34 6 6.37C5.91 6.41 5.83 6.46 5.75 6.51C5.66 6.56 5.59 6.63 5.51 6.7C5.44 6.77 5.37 6.85 5.32 6.94C5.27 7.02 5.22 7.1 5.18 7.19C5.15 7.28 5.12 7.37 5.1 7.46C5.08 7.56 5.06 7.67 5.06 7.78L5.06 16.04C5.06 16.15 5.08 16.26 5.1 16.37C5.12 16.46 5.15 16.55 5.18 16.64C5.22 16.73 5.27 16.81 5.32 16.89C5.37 16.97 5.44 17.05 5.51 17.13C5.59 17.2 5.66 17.26 5.75 17.32C5.83 17.37 5.91 17.42 6 17.45C6.09 17.49 6.18 17.52 6.27 17.54C6.37 17.56 6.48 17.57 6.59 17.57L11.68 17.57ZM5.06 7.78L5.06 11.22L18.93 11.22L18.93 7.78M17.77 7.78L17.77 10.07L6.22 10.07L6.22 7.78M14.49 16.04L15.47 17.02C15.63 17.18 15.63 17.45 15.47 17.61C15.3 17.78 15.04 17.78 14.88 17.61L13.6 16.34C13.52 16.26 13.48 16.16 13.48 16.04C13.48 15.93 13.52 15.83 13.6 15.75L14.88 14.48C15.04 14.31 15.3 14.31 15.47 14.48C15.63 14.64 15.63 14.9 15.47 15.07L14.49 16.04ZM16.78 14.48C16.62 14.64 16.62 14.9 16.78 15.07L17.76 16.04L16.78 17.02C16.62 17.18 16.62 17.45 16.78 17.61C16.95 17.78 17.21 17.78 17.38 17.61L18.65 16.34C18.73 16.26 18.77 16.16 18.77 16.04C18.77 15.93 18.73 15.83 18.65 15.75L17.38 14.48C17.21 14.31 16.95 14.31 16.78 14.48Z" stroke="#4C4C4C" stroke-opacity="1.000000" stroke-width="0.200000"/>
	</g>
</svg>
