<svg width="15.000000" height="16.000000" viewBox="0 0 9 9" fill="none" xmlns="http://www.w3.org/2000/svg" xmlns:xlink="http://www.w3.org/1999/xlink">
	<desc>
			Created with Pixso.
	</desc>
	<defs/>
	<path id="path" d="M8.17 6.27C7.81 6.35 7.39 6.31 6.92 6.13C6.45 5.96 6.12 6 5.94 6.26C5.82 6.46 5.83 6.71 5.96 7.02C6.1 7.33 6.14 7.64 6.08 7.93C6.04 8.22 5.84 8.47 5.48 8.68C5.13 8.89 4.8 9 4.5 9C3.87 9 3.29 8.88 2.74 8.64C2.2 8.41 1.72 8.09 1.31 7.68C0.9 7.27 0.58 6.79 0.35 6.25C0.11 5.7 0 5.12 0 4.5C0 3.87 0.11 3.29 0.35 2.74C0.58 2.2 0.9 1.72 1.31 1.31C1.72 0.9 2.2 0.58 2.74 0.35C3.29 0.11 3.87 0 4.5 0C5.12 0 5.7 0.11 6.25 0.35C6.79 0.58 7.27 0.9 7.68 1.31C8.09 1.72 8.41 2.2 8.64 2.74C8.88 3.29 9 3.87 9 4.5C9 5.06 8.92 5.49 8.77 5.77C8.62 6.04 8.42 6.21 8.17 6.27ZM8.35 4.5C8.35 3.96 8.25 3.46 8.05 2.99C8 2.88 7.95 2.77 7.89 2.66C7.83 2.55 7.76 2.44 7.7 2.34C7.63 2.24 7.55 2.14 7.47 2.04C7.39 1.95 7.31 1.86 7.22 1.77C7.13 1.68 7.04 1.6 6.95 1.52C6.85 1.44 6.75 1.36 6.65 1.29C6.55 1.23 6.44 1.16 6.33 1.1C6.22 1.04 6.11 0.99 6 0.94C5.53 0.74 5.03 0.64 4.5 0.64C3.96 0.64 3.46 0.74 2.99 0.94C2.88 0.99 2.77 1.04 2.66 1.1C2.55 1.16 2.44 1.23 2.34 1.29C2.24 1.36 2.14 1.44 2.04 1.52C1.95 1.6 1.86 1.68 1.77 1.77C1.68 1.86 1.6 1.95 1.52 2.04C1.44 2.14 1.36 2.24 1.29 2.34C1.23 2.44 1.16 2.55 1.1 2.66C1.04 2.77 0.99 2.88 0.94 2.99C0.74 3.46 0.64 3.96 0.64 4.5C0.64 5.03 0.74 5.53 0.94 6C0.99 6.11 1.04 6.22 1.1 6.33C1.16 6.44 1.23 6.55 1.29 6.65C1.36 6.75 1.44 6.85 1.52 6.95C1.6 7.04 1.68 7.13 1.77 7.22C1.86 7.31 1.95 7.39 2.04 7.47C2.14 7.55 2.24 7.63 2.34 7.7C2.44 7.76 2.55 7.83 2.66 7.89C2.77 7.95 2.88 8 2.99 8.05C3.46 8.25 3.96 8.35 4.5 8.35C4.7 8.35 4.89 8.29 5.06 8.15C5.24 8.02 5.36 7.87 5.41 7.71C5.49 7.35 5.45 7.05 5.3 6.82C5.14 6.59 5.17 6.25 5.39 5.79C5.56 5.59 5.75 5.48 5.97 5.46C6.19 5.44 6.42 5.45 6.64 5.49C6.88 5.54 7.11 5.58 7.35 5.64C7.58 5.69 7.8 5.68 8 5.62C8.19 5.56 8.3 5.45 8.32 5.29C8.34 5.13 8.35 4.86 8.35 4.5ZM7.07 4.5C6.89 4.5 6.74 4.43 6.61 4.3C6.49 4.18 6.42 4.03 6.42 3.85C6.42 3.68 6.49 3.53 6.61 3.4C6.74 3.27 6.89 3.21 7.07 3.21C7.24 3.21 7.39 3.27 7.52 3.4C7.65 3.53 7.71 3.68 7.71 3.85C7.71 4.03 7.65 4.18 7.52 4.3C7.39 4.43 7.24 4.5 7.07 4.5ZM5.78 2.57C5.61 2.57 5.46 2.5 5.33 2.38C5.2 2.25 5.14 2.1 5.14 1.92C5.14 1.75 5.2 1.6 5.33 1.47C5.46 1.34 5.61 1.28 5.78 1.28C5.95 1.28 6.11 1.34 6.23 1.47C6.36 1.6 6.42 1.75 6.42 1.92C6.42 2.1 6.36 2.25 6.23 2.38C6.11 2.5 5.95 2.57 5.78 2.57ZM3.21 2.57C3.04 2.57 2.88 2.5 2.76 2.38C2.63 2.25 2.57 2.1 2.57 1.92C2.57 1.75 2.63 1.6 2.76 1.47C2.88 1.34 3.04 1.28 3.21 1.28C3.38 1.28 3.53 1.34 3.66 1.47C3.79 1.6 3.85 1.75 3.85 1.92C3.85 2.1 3.79 2.25 3.66 2.38C3.53 2.5 3.38 2.57 3.21 2.57ZM1.92 4.5C1.75 4.5 1.6 4.43 1.47 4.3C1.34 4.18 1.28 4.03 1.28 3.85C1.28 3.68 1.34 3.53 1.47 3.4C1.6 3.27 1.75 3.21 1.92 3.21C2.1 3.21 2.25 3.27 2.38 3.4C2.5 3.53 2.57 3.68 2.57 3.85C2.57 4.03 2.5 4.18 2.38 4.3C2.25 4.43 2.1 4.5 1.92 4.5Z" fill="#666666" fill-opacity="1.000000" fill-rule="nonzero"/>
</svg>
