<svg width="24.000000" height="24.000000" viewBox="0 0 24 24" fill="none" xmlns="http://www.w3.org/2000/svg" xmlns:xlink="http://www.w3.org/1999/xlink">
	<desc>
			Created with Pixso.
	</desc>
	<defs>
		<clipPath id="clip272_15">
			<rect id="svg" width="24.000000" height="24.000000" fill="white" fill-opacity="0"/>
		</clipPath>
	</defs>
	<g clip-path="url(#clip272_15)">
		<path id="path" d="M12.34 17.99C15.84 17.99 18.68 15.15 18.68 11.65C18.68 8.15 15.84 5.31 12.34 5.31C8.84 5.31 6 8.15 6 11.65C6 15.15 8.84 17.99 12.34 17.99Z" fill="#000000" fill-opacity="0" fill-rule="nonzero"/>
		<path id="path" d="M18.68 11.65C18.68 8.15 15.84 5.31 12.34 5.31C8.84 5.31 6 8.15 6 11.65C6 15.15 8.84 17.99 12.34 17.99C15.84 17.99 18.68 15.15 18.68 11.65Z" stroke="#4C4C4C" stroke-opacity="1.000000" stroke-width="1.300000" stroke-linejoin="round"/>
		<path id="path" d="M13.99 13.6L13.98 13.58C14.14 13.25 14.53 13.12 14.85 13.28C15.18 13.45 15.31 13.83 15.14 14.16L15.12 14.17L13.99 13.6ZM9.57 14.17L9.54 14.16C9.38 13.83 9.51 13.45 9.83 13.28C10.16 13.12 10.54 13.25 10.7 13.58L10.7 13.6L9.57 14.17Z" fill="#000000" fill-opacity="0" fill-rule="nonzero"/>
		<path id="path" d="M14.56 13.87C14.56 13.87 13.93 15.13 12.34 15.13C10.76 15.13 10.12 13.87 10.12 13.87" stroke="#4C4C4C" stroke-opacity="1.000000" stroke-width="1.300000" stroke-linejoin="round" stroke-linecap="round"/>
		<path id="path" d="M13.93 9.76L13.91 9.74C13.91 9.38 14.2 9.09 14.56 9.09C14.93 9.09 15.21 9.38 15.21 9.74L15.19 9.76L13.93 9.76ZM15.19 10.99L15.21 11.01C15.21 11.38 14.93 11.66 14.56 11.66C14.2 11.66 13.91 11.38 13.91 11.01L13.93 10.99L15.19 10.99Z" fill="#000000" fill-opacity="0" fill-rule="nonzero"/>
		<path id="path" d="M14.56 9.74L14.56 11.01" stroke="#4C4C4C" stroke-opacity="1.000000" stroke-width="1.300000" stroke-linejoin="round" stroke-linecap="round"/>
		<path id="path" d="M9.49 9.76L9.47 9.74C9.47 9.38 9.76 9.09 10.12 9.09C10.49 9.09 10.77 9.38 10.77 9.74L10.75 9.76L9.49 9.76ZM10.75 10.99L10.77 11.01C10.77 11.38 10.49 11.66 10.12 11.66C9.76 11.66 9.47 11.38 9.47 11.01L9.49 10.99L10.75 10.99Z" fill="#000000" fill-opacity="0" fill-rule="nonzero"/>
		<path id="path" d="M10.12 9.74L10.12 11.01" stroke="#4C4C4C" stroke-opacity="1.000000" stroke-width="1.300000" stroke-linejoin="round" stroke-linecap="round"/>
	</g>
</svg>
