<svg width="24.000000" height="24.000000" viewBox="0 0 24 24" fill="none" xmlns="http://www.w3.org/2000/svg" xmlns:xlink="http://www.w3.org/1999/xlink">
	<desc>
			Created with Pixso.
	</desc>
	<defs>
		<clipPath id="clip216_125">
			<rect id="svg" width="24.000000" height="24.000000" fill="white" fill-opacity="0"/>
		</clipPath>
	</defs>
	<g clip-path="url(#clip216_125)">
		<path id="矢量 79" d="M11.07 4.53C7.49 4.53 4.59 7.43 4.59 11.01C4.59 14.59 7.49 17.5 11.07 17.5C14.65 17.5 17.55 14.59 17.55 11.01C17.55 7.43 14.65 4.53 11.07 4.53ZM9.96 6.26C10.32 6.17 10.69 6.13 11.07 6.13C11.45 6.13 11.81 6.17 12.17 6.26C12.44 6.32 12.71 6.41 12.97 6.52C13.23 6.63 13.49 6.76 13.73 6.92C14.01 7.1 14.27 7.32 14.52 7.56C14.76 7.81 14.98 8.07 15.16 8.35C15.32 8.59 15.45 8.85 15.57 9.11C15.67 9.37 15.76 9.64 15.82 9.91C15.91 10.27 15.95 10.64 15.95 11.01C15.95 11.39 15.91 11.76 15.82 12.12C15.76 12.39 15.68 12.66 15.57 12.91C15.45 13.18 15.32 13.44 15.16 13.68C14.98 13.96 14.76 14.22 14.52 14.47C14.27 14.71 14.01 14.92 13.73 15.11C13.49 15.26 13.23 15.4 12.97 15.51C12.71 15.62 12.44 15.71 12.17 15.77C11.81 15.85 11.45 15.9 11.07 15.9C10.69 15.9 10.32 15.85 9.96 15.77C9.69 15.71 9.43 15.62 9.17 15.51C8.9 15.4 8.65 15.26 8.41 15.11C8.12 14.92 7.86 14.71 7.62 14.47C7.37 14.22 7.16 13.96 6.97 13.68C6.82 13.44 6.68 13.18 6.57 12.91C6.46 12.66 6.37 12.39 6.31 12.12C6.23 11.76 6.19 11.39 6.19 11.01C6.19 10.64 6.23 10.27 6.31 9.91C6.37 9.64 6.46 9.37 6.57 9.11C6.68 8.85 6.82 8.59 6.97 8.35C7.16 8.07 7.37 7.81 7.62 7.56C7.86 7.32 8.12 7.1 8.41 6.92C8.65 6.76 8.9 6.63 9.17 6.52C9.43 6.41 9.69 6.32 9.96 6.26Z" fill="#4C4C4C" fill-opacity="1.000000" fill-rule="evenodd"/>
		<path id="矢量 66" d="M15.74 15.04C15.53 14.82 15.22 14.78 15.04 14.96C14.86 15.13 14.88 15.44 15.09 15.66L18.38 19.06C18.59 19.28 18.9 19.32 19.08 19.14C19.26 18.97 19.24 18.66 19.02 18.44L15.74 15.04Z" fill="#4C4C4C" fill-opacity="1.000000" fill-rule="evenodd"/>
		<path id="矢量 66" d="M15.04 14.96C14.86 15.13 14.88 15.44 15.09 15.66L18.38 19.06C18.59 19.28 18.9 19.32 19.08 19.14C19.26 18.97 19.24 18.66 19.02 18.44L15.74 15.04C15.53 14.82 15.22 14.78 15.04 14.96Z" stroke="#4C4C4C" stroke-opacity="1.000000" stroke-width="0.400000"/>
	</g>
</svg>
