<svg width="24.000000" height="24.000000" viewBox="0 0 24 24" fill="none" xmlns="http://www.w3.org/2000/svg" xmlns:xlink="http://www.w3.org/1999/xlink">
	<desc>
			Created with Pixso.
	</desc>
	<defs>
		<clipPath id="clip216_48">
			<rect id="svg" width="24.000000" height="24.000000" fill="white" fill-opacity="0"/>
		</clipPath>
	</defs>
	<g clip-path="url(#clip216_48)">
		<path id="矢量 56" d="M3.71 4.2C3.71 4.01 3.78 3.84 3.91 3.71C4.05 3.57 4.21 3.5 4.41 3.5L15.89 3.5C16.09 3.5 16.25 3.57 16.39 3.71C16.52 3.84 16.59 4.01 16.59 4.2L16.59 6.37L19.58 6.37C19.78 6.37 19.94 6.44 20.08 6.58C20.21 6.71 20.28 6.88 20.28 7.07L20.28 13.68Q20.28 13.81 20.24 13.93Q20.2 14.04 20.11 14.14C19.99 14.27 19.85 14.35 19.67 14.37L10.44 15.56L10.44 19.79C10.44 20.18 10.13 20.49 9.74 20.49C9.35 20.49 9.04 20.18 9.04 19.79L9.04 14.95Q9.04 14.82 9.08 14.7Q9.13 14.59 9.21 14.49C9.33 14.35 9.47 14.28 9.65 14.25L18.88 13.06L18.88 7.77L16.59 7.77L16.59 10.35C16.59 10.55 16.52 10.71 16.39 10.85C16.25 10.99 16.09 11.05 15.89 11.05L4.41 11.05C4.21 11.05 4.05 10.99 3.91 10.85C3.78 10.71 3.71 10.55 3.71 10.35L3.71 4.2ZM5.11 9.65L5.11 4.9L15.19 4.9L15.19 9.65L5.11 9.65Z" fill="#4C4C4C" fill-opacity="1.000000" fill-rule="evenodd"/>
	</g>
</svg>
