<svg width="24.000000" height="24.000000" viewBox="0 0 24 24" fill="none" xmlns="http://www.w3.org/2000/svg" xmlns:xlink="http://www.w3.org/1999/xlink">
	<desc>
			Created with Pixso.
	</desc>
	<defs>
		<clipPath id="clip272_1">
			<rect id="svg" width="24.000000" height="24.000000" fill="white" fill-opacity="0"/>
		</clipPath>
	</defs>
	<g clip-path="url(#clip272_1)">
		<path id="path" d="M10.91 17.35L10.91 6.5C10.91 6.43 10.9 6.36 10.89 6.29C10.88 6.22 10.85 6.15 10.83 6.09C10.8 6.02 10.77 5.96 10.73 5.9C10.69 5.84 10.64 5.78 10.59 5.73C10.54 5.68 10.49 5.64 10.43 5.6C10.37 5.56 10.31 5.53 10.24 5.5C10.17 5.47 10.11 5.45 10.04 5.44C9.97 5.42 9.9 5.42 9.83 5.42L6.57 5.42C6.5 5.42 6.43 5.42 6.36 5.44C6.29 5.45 6.22 5.47 6.16 5.5C6.09 5.53 6.03 5.56 5.97 5.6C5.91 5.64 5.85 5.68 5.8 5.73C5.75 5.78 5.71 5.84 5.67 5.9C5.63 5.96 5.6 6.02 5.57 6.09C5.54 6.15 5.52 6.22 5.51 6.29C5.49 6.36 5.49 6.43 5.49 6.5L5.49 17.35C5.49 17.42 5.49 17.49 5.51 17.56C5.52 17.63 5.54 17.7 5.57 17.77C5.6 17.83 5.63 17.89 5.67 17.95C5.71 18.01 5.75 18.07 5.8 18.12C5.85 18.17 5.91 18.21 5.97 18.25C6.03 18.29 6.09 18.33 6.16 18.35C6.22 18.38 6.29 18.4 6.36 18.41C6.43 18.43 6.5 18.44 6.57 18.44L9.83 18.44C9.9 18.44 9.97 18.43 10.04 18.41C10.11 18.4 10.17 18.38 10.24 18.35C10.31 18.33 10.37 18.29 10.43 18.25C10.49 18.21 10.54 18.17 10.59 18.12C10.64 18.07 10.69 18.01 10.73 17.95C10.77 17.89 10.8 17.83 10.83 17.77C10.85 17.7 10.88 17.63 10.89 17.56C10.9 17.49 10.91 17.42 10.91 17.35ZM6.57 6.5L9.83 6.5L9.83 17.35L6.57 17.35L6.57 6.5ZM18.5 17.35L18.5 6.5C18.5 6.43 18.5 6.36 18.48 6.29C18.47 6.22 18.45 6.15 18.42 6.09C18.39 6.02 18.36 5.96 18.32 5.9C18.28 5.84 18.24 5.78 18.19 5.73C18.14 5.68 18.08 5.64 18.02 5.6C17.96 5.56 17.9 5.53 17.84 5.5C17.77 5.47 17.7 5.45 17.63 5.44C17.56 5.42 17.49 5.42 17.42 5.42L14.16 5.42C14.09 5.42 14.02 5.42 13.95 5.44C13.88 5.45 13.82 5.47 13.75 5.5C13.68 5.53 13.62 5.56 13.56 5.6C13.5 5.64 13.45 5.68 13.4 5.73C13.35 5.78 13.3 5.84 13.26 5.9C13.22 5.96 13.19 6.02 13.16 6.09C13.14 6.15 13.11 6.22 13.1 6.29C13.09 6.36 13.08 6.43 13.08 6.5L13.08 17.35C13.08 17.42 13.09 17.49 13.1 17.56C13.11 17.63 13.14 17.7 13.16 17.77C13.19 17.83 13.22 17.89 13.26 17.95C13.3 18.01 13.35 18.07 13.4 18.12C13.45 18.17 13.5 18.21 13.56 18.25C13.62 18.29 13.68 18.33 13.75 18.35C13.82 18.38 13.88 18.4 13.95 18.41C14.02 18.43 14.09 18.44 14.16 18.44L17.42 18.44C17.49 18.44 17.56 18.43 17.63 18.41C17.7 18.4 17.77 18.38 17.84 18.35C17.9 18.33 17.96 18.29 18.02 18.25C18.08 18.21 18.14 18.17 18.19 18.12C18.24 18.07 18.28 18.01 18.32 17.95C18.36 17.89 18.39 17.83 18.42 17.77C18.45 17.7 18.47 17.63 18.48 17.56C18.5 17.49 18.5 17.42 18.5 17.35ZM14.16 6.5L17.42 6.5L17.42 17.35L14.16 17.35L14.16 6.5Z" fill="#4C4C4C" fill-opacity="1.000000" fill-rule="nonzero"/>
	</g>
</svg>
