<svg width="24.000000" height="24.000000" viewBox="0 0 24 24" fill="none" xmlns="http://www.w3.org/2000/svg" xmlns:xlink="http://www.w3.org/1999/xlink">
	<desc>
			Created with Pixso.
	</desc>
	<defs>
		<clipPath id="clip221_146">
			<rect id="svg" width="24.000000" height="24.000000" fill="white" fill-opacity="0"/>
		</clipPath>
	</defs>
	<g clip-path="url(#clip221_146)">
		<path id="矢量 67" d="M9.93 5.47C9.93 5.19 10.19 4.97 10.52 4.97L19.58 4.97C19.91 4.97 20.17 5.19 20.17 5.47C20.17 5.75 19.91 5.97 19.58 5.97L10.52 5.97C10.19 5.97 9.93 5.75 9.93 5.47ZM9.93 9.82C9.93 9.54 10.19 9.32 10.52 9.32L16.58 9.32C16.91 9.32 17.17 9.54 17.17 9.82C17.17 10.1 16.91 10.32 16.58 10.32L10.52 10.32C10.19 10.32 9.93 10.1 9.93 9.82ZM10.52 13.67C10.19 13.67 9.93 13.89 9.93 14.17C9.93 14.45 10.19 14.67 10.52 14.67L19.58 14.67C19.91 14.67 20.17 14.45 20.17 14.17C20.17 13.89 19.91 13.67 19.58 13.67L10.52 13.67ZM9.93 18.52C9.93 18.24 10.15 18.02 10.43 18.02L16.43 18.02C16.71 18.02 16.93 18.24 16.93 18.52C16.93 18.8 16.71 19.02 16.43 19.02L10.43 19.02C10.15 19.02 9.93 18.8 9.93 18.52Z" fill="#4C4C4C" fill-opacity="1.000000" fill-rule="evenodd"/>
		<path id="矢量 67" d="M9.93 5.47C9.93 5.75 10.19 5.97 10.52 5.97L19.58 5.97C19.91 5.97 20.17 5.75 20.17 5.47C20.17 5.19 19.91 4.97 19.58 4.97L10.52 4.97C10.19 4.97 9.93 5.19 9.93 5.47ZM9.93 9.82C9.93 10.1 10.19 10.32 10.52 10.32L16.58 10.32C16.91 10.32 17.17 10.1 17.17 9.82C17.17 9.54 16.91 9.32 16.58 9.32L10.52 9.32C10.19 9.32 9.93 9.54 9.93 9.82ZM9.93 14.17C9.93 14.45 10.19 14.67 10.52 14.67L19.58 14.67C19.91 14.67 20.17 14.45 20.17 14.17C20.17 13.89 19.91 13.67 19.58 13.67L10.52 13.67C10.19 13.67 9.93 13.89 9.93 14.17ZM9.93 18.52C9.93 18.8 10.15 19.02 10.43 19.02L16.43 19.02C16.71 19.02 16.93 18.8 16.93 18.52C16.93 18.24 16.71 18.02 16.43 18.02L10.43 18.02C10.15 18.02 9.93 18.24 9.93 18.52Z" stroke="#4C4C4C" stroke-opacity="1.000000" stroke-width="0.400000"/>
		<path id="矢量 69" d="M7.04 5.64L8.06 6.65C8.22 6.81 8.47 6.81 8.63 6.65C8.79 6.5 8.79 6.25 8.63 6.09L6.83 4.29C6.75 4.21 6.65 4.17 6.54 4.17C6.43 4.17 6.34 4.21 6.26 4.29L4.46 6.09C4.3 6.25 4.3 6.5 4.46 6.65C4.62 6.81 4.87 6.81 5.03 6.65L6.04 5.64L6.04 18.29C6.04 18.31 6.05 18.34 6.05 18.36L5.03 17.34C4.87 17.18 4.62 17.18 4.46 17.34C4.3 17.5 4.3 17.74 4.46 17.9L6.26 19.7C6.34 19.78 6.43 19.82 6.54 19.82C6.66 19.82 6.75 19.78 6.83 19.7L8.63 17.9C8.79 17.74 8.79 17.5 8.63 17.34C8.47 17.18 8.22 17.18 8.06 17.34L7.04 18.36C7.04 18.34 7.04 18.31 7.04 18.29L7.04 5.64Z" fill="#4C4C4C" fill-opacity="1.000000" fill-rule="evenodd"/>
	</g>
</svg>
