<svg width="24.000000" height="24.000000" viewBox="0 0 24 24" fill="none" xmlns="http://www.w3.org/2000/svg" xmlns:xlink="http://www.w3.org/1999/xlink">
	<desc>
			Created with Pixso.
	</desc>
	<defs>
		<clipPath id="clip272_3">
			<rect id="svg" width="24.000000" height="24.000000" fill="white" fill-opacity="0"/>
		</clipPath>
	</defs>
	<g clip-path="url(#clip272_3)">
		<path id="path" d="M11.57 6.33L11.57 6.3C11.82 6.05 12.23 6.05 12.48 6.3C12.74 6.56 12.74 6.96 12.48 7.22L12.46 7.22L11.57 6.33ZM14.54 9.3L14.54 9.28C14.8 9.02 15.2 9.02 15.46 9.28C15.71 9.53 15.71 9.94 15.46 10.2L15.43 10.2L14.54 9.3Z" fill="#000000" fill-opacity="0" fill-rule="nonzero"/>
		<path id="path" d="M12.03 6.76L6.82 11.97C5.59 13.2 5.59 15.19 6.82 16.42C8.05 17.66 10.05 17.66 11.28 16.42L17.48 10.23C18.3 9.41 18.3 8.08 17.48 7.26C16.65 6.44 15.32 6.44 14.5 7.26L8.31 13.45C7.9 13.86 7.9 14.53 8.31 14.94C8.72 15.35 9.39 15.35 9.8 14.94L15 9.74" stroke="#4C4C4C" stroke-opacity="1.000000" stroke-width="1.300000" stroke-linejoin="round" stroke-linecap="round"/>
	</g>
</svg>
