<svg width="32.000000" height="32.000000" viewBox="0 0 32 32" fill="none" xmlns="http://www.w3.org/2000/svg" xmlns:xlink="http://www.w3.org/1999/xlink">
	<desc>
			Created with Pixso.
	</desc>
	<defs>
		<clipPath id="clip21_1682">
			<rect id="svg" width="24.000000" height="24.000000" transform="translate(4.000000 4.000000)" fill="white" fill-opacity="0"/>
		</clipPath>
	</defs>
	<rect id="矩形 350" x="0.200012" y="0.200012" rx="2.000000" width="31.600000" height="31.600000" stroke="#ECEFE6" stroke-opacity="1.000000" stroke-width="0.400000"/>
	<g clip-path="url(#clip21_1682)">
		<path id="矢量 4" d="M13.7 7L26.64 7C26.94 7 27.17 7.22 27.17 7.5C27.17 7.77 26.94 8 26.64 8L13.7 8C13.41 8 13.17 7.77 13.17 7.5C13.17 7.22 13.41 7 13.7 7Z" fill="#666666" fill-opacity="1.000000" fill-rule="evenodd"/>
		<path id="矢量 29" d="M13.7 15L26.64 15C26.94 15 27.17 15.22 27.17 15.5C27.17 15.78 26.94 16 26.64 16L13.7 16C13.41 16 13.17 15.78 13.17 15.5C13.17 15.22 13.41 15 13.7 15Z" fill="#666666" fill-opacity="1.000000" fill-rule="evenodd"/>
		<path id="矢量 30" d="M13.7 23L26.64 23C26.94 23 27.17 23.22 27.17 23.5C27.17 23.78 26.94 24 26.64 24L13.7 24C13.41 24 13.17 23.78 13.17 23.5C13.17 23.22 13.41 23 13.7 23Z" fill="#666666" fill-opacity="1.000000" fill-rule="evenodd"/>
		<path id="iii" d="M4.94 20.39Q4.87 20.35 4.76 20.35Q4.66 20.35 4.59 20.39Q4.54 20.41 4.5 20.45Q4.49 20.47 4.47 20.49Q4.4 20.57 4.4 20.7Q4.4 20.81 4.45 20.88Q4.47 20.93 4.5 20.96Q4.58 21.03 4.66 21.05Q4.71 21.06 4.76 21.06Q4.82 21.06 4.87 21.05Q4.95 21.02 5.02 20.96Q5.08 20.91 5.1 20.84Q5.13 20.78 5.13 20.7Q5.13 20.59 5.08 20.52Q5.06 20.48 5.02 20.45Q4.99 20.42 4.94 20.39ZM6.48 20.39Q6.4 20.35 6.3 20.35Q6.2 20.35 6.12 20.39Q6.08 20.41 6.04 20.45Q6.02 20.47 6.01 20.49Q5.94 20.57 5.94 20.7Q5.94 20.81 5.98 20.88Q6.01 20.93 6.04 20.96Q6.11 21.03 6.2 21.05Q6.25 21.06 6.3 21.06Q6.36 21.06 6.41 21.05Q6.49 21.02 6.56 20.96Q6.61 20.91 6.64 20.84Q6.66 20.78 6.66 20.7Q6.66 20.59 6.61 20.52Q6.59 20.48 6.56 20.45Q6.52 20.42 6.48 20.39ZM8.02 20.39Q7.94 20.35 7.83 20.35Q7.74 20.35 7.66 20.39Q7.61 20.41 7.58 20.45Q7.56 20.47 7.54 20.49Q7.48 20.57 7.48 20.7Q7.48 20.81 7.52 20.88Q7.54 20.93 7.58 20.96Q7.65 21.03 7.73 21.05Q7.78 21.06 7.83 21.06Q7.89 21.06 7.95 21.05Q8.03 21.02 8.09 20.96Q8.15 20.91 8.18 20.84Q8.2 20.78 8.2 20.7Q8.2 20.59 8.15 20.52Q8.13 20.48 8.09 20.45Q8.06 20.42 8.02 20.39ZM5 21.52L4.52 21.52L4.52 24.62L5 24.62L5 21.52ZM6.54 21.52L6.06 21.52L6.06 24.62L6.54 24.62L6.54 21.52ZM8.07 21.52L7.59 21.52L7.59 24.62L8.07 24.62L8.07 21.52Z" fill="#666666" fill-opacity="1.000000" fill-rule="evenodd"/>
		<path id="ii" d="M6.29 13.15Q6.21 13.1 6.1 13.1Q6.01 13.1 5.93 13.14Q5.88 13.17 5.85 13.21Q5.83 13.22 5.81 13.24Q5.75 13.32 5.75 13.46Q5.75 13.56 5.79 13.64Q5.81 13.68 5.85 13.72Q5.92 13.78 6 13.8Q6.05 13.82 6.1 13.82Q6.16 13.82 6.22 13.8Q6.29 13.78 6.36 13.72Q6.42 13.66 6.44 13.59Q6.47 13.53 6.47 13.46Q6.47 13.35 6.42 13.27Q6.4 13.23 6.36 13.21Q6.33 13.17 6.29 13.15ZM7.82 13.15Q7.74 13.1 7.64 13.1Q7.54 13.1 7.47 13.14Q7.42 13.17 7.38 13.21Q7.36 13.22 7.35 13.24Q7.28 13.32 7.28 13.46Q7.28 13.56 7.32 13.64Q7.35 13.68 7.38 13.72Q7.45 13.78 7.54 13.8Q7.59 13.82 7.64 13.82Q7.7 13.82 7.75 13.8Q7.83 13.78 7.9 13.72Q7.95 13.66 7.98 13.59Q8.01 13.53 8.01 13.46Q8.01 13.35 7.96 13.27Q7.93 13.23 7.9 13.21Q7.86 13.17 7.82 13.15ZM6.34 14.27L5.86 14.27L5.86 17.38L6.34 17.38L6.34 14.27ZM7.88 14.27L7.4 14.27L7.4 17.38L7.88 17.38L7.88 14.27Z" fill="#666666" fill-opacity="1.000000" fill-rule="evenodd"/>
		<path id="i" d="M7.75 5.19Q7.67 5.15 7.57 5.15Q7.47 5.15 7.39 5.19Q7.35 5.22 7.31 5.25Q7.29 5.27 7.27 5.29Q7.21 5.37 7.21 5.5Q7.21 5.61 7.25 5.69Q7.27 5.73 7.31 5.76Q7.38 5.83 7.46 5.85Q7.51 5.86 7.57 5.86Q7.63 5.86 7.68 5.85Q7.76 5.82 7.82 5.76Q7.88 5.71 7.91 5.64Q7.93 5.58 7.93 5.5Q7.93 5.4 7.88 5.32Q7.86 5.28 7.82 5.25Q7.79 5.22 7.75 5.19ZM7.81 6.32L7.33 6.32L7.33 9.42L7.81 9.42L7.81 6.32Z" fill="#666666" fill-opacity="1.000000" fill-rule="evenodd"/>
		<circle id="椭圆 64" cx="9.500061" cy="8.635254" r="0.500000" fill="#666666" fill-opacity="1.000000"/>
		<circle id="椭圆 65" cx="9.500061" cy="16.500000" r="0.500000" fill="#666666" fill-opacity="1.000000"/>
		<circle id="椭圆 66" cx="9.500061" cy="23.834106" r="0.500000" fill="#666666" fill-opacity="1.000000"/>
	</g>
</svg>
