<svg width="24.000000" height="24.000000" viewBox="0 0 24 24" fill="none" xmlns="http://www.w3.org/2000/svg" xmlns:xlink="http://www.w3.org/1999/xlink">
	<desc>
			Created with Pixso.
	</desc>
	<defs>
		<clipPath id="clip243_55">
			<rect id="svg" width="24.000000" height="24.000000" fill="white" fill-opacity="0"/>
		</clipPath>
	</defs>
	<g clip-path="url(#clip243_55)">
		<path id="path" d="M19.13 18.47L17.57 18.47C17.4 18.47 17.29 18.44 17.25 18.39C17.21 18.34 17.22 18.24 17.29 18.11C17.43 17.78 17.95 17.2 18.85 16.37C19.26 16 19.45 15.52 19.41 14.94C19.4 14.53 19.25 14.2 18.98 13.94C18.69 13.66 18.31 13.51 17.83 13.49C17.25 13.47 16.79 13.62 16.44 13.95C16.1 14.26 15.93 14.66 15.94 15.15C15.94 15.29 15.99 15.39 16.1 15.47C16.21 15.54 16.33 15.57 16.45 15.57C16.71 15.57 16.84 15.46 16.85 15.25C16.9 14.71 17.17 14.42 17.65 14.38C17.75 14.37 17.86 14.38 17.96 14.4C18.06 14.43 18.16 14.48 18.24 14.54C18.32 14.59 18.38 14.67 18.43 14.75C18.47 14.84 18.49 14.93 18.49 15.03C18.5 15.33 18.29 15.69 17.87 16.08C17.33 16.56 16.92 16.99 16.64 17.38C16.38 17.73 16.19 18.1 16.07 18.52C16.05 18.59 16.03 18.77 16.02 19.06C16.01 19.14 16.05 19.21 16.13 19.27C16.21 19.33 16.3 19.36 16.41 19.36L19.13 19.36C19.26 19.36 19.37 19.32 19.44 19.24C19.53 19.15 19.57 19.04 19.56 18.91C19.55 18.61 19.41 18.47 19.13 18.47ZM4.64 7.44C4.67 7.42 4.7 7.4 4.74 7.38C4.77 7.36 4.81 7.34 4.85 7.33C4.88 7.32 4.92 7.31 4.96 7.31C5 7.3 5.04 7.3 5.08 7.31C5.12 7.31 5.16 7.32 5.19 7.33C5.23 7.34 5.27 7.35 5.3 7.37C5.34 7.39 5.37 7.41 5.4 7.44C5.43 7.46 5.46 7.49 5.49 7.52L9.21 11.96L12.86 7.61C12.89 7.58 12.91 7.55 12.94 7.53C12.97 7.5 13.01 7.48 13.04 7.46C13.08 7.45 13.11 7.43 13.15 7.42C13.19 7.41 13.23 7.4 13.27 7.4C13.31 7.39 13.34 7.4 13.38 7.4C13.42 7.4 13.46 7.41 13.5 7.42C13.54 7.44 13.57 7.45 13.61 7.47C13.64 7.49 13.67 7.51 13.7 7.54C13.73 7.56 13.76 7.59 13.79 7.62C13.81 7.65 13.83 7.68 13.85 7.72C13.87 7.75 13.88 7.79 13.89 7.83C13.9 7.87 13.91 7.9 13.92 7.94C13.92 7.98 13.92 8.02 13.91 8.06C13.91 8.1 13.9 8.14 13.89 8.18C13.88 8.21 13.86 8.25 13.84 8.28C13.82 8.32 13.8 8.35 13.78 8.38L9.99 12.89L13.78 17.4C13.8 17.43 13.82 17.46 13.84 17.5C13.86 17.53 13.88 17.57 13.89 17.6C13.9 17.64 13.91 17.68 13.91 17.72C13.92 17.76 13.92 17.8 13.92 17.84C13.91 17.88 13.9 17.91 13.89 17.95C13.88 17.99 13.87 18.03 13.85 18.06C13.83 18.1 13.81 18.13 13.79 18.16C13.76 18.19 13.73 18.22 13.7 18.24C13.67 18.27 13.64 18.29 13.61 18.31C13.57 18.33 13.54 18.34 13.5 18.36C13.46 18.37 13.42 18.38 13.38 18.38C13.34 18.38 13.31 18.38 13.27 18.38C13.23 18.38 13.19 18.37 13.15 18.36C13.11 18.35 13.08 18.33 13.04 18.32C13.01 18.3 12.97 18.28 12.94 18.25C12.91 18.23 12.89 18.2 12.86 18.17L9.21 13.82L5.49 18.26C5.46 18.29 5.43 18.32 5.4 18.34C5.37 18.37 5.34 18.39 5.3 18.41C5.27 18.43 5.23 18.44 5.19 18.45C5.16 18.46 5.12 18.47 5.08 18.47C5.04 18.48 5 18.48 4.96 18.47C4.92 18.47 4.88 18.46 4.85 18.45C4.81 18.44 4.77 18.42 4.74 18.4C4.7 18.38 4.67 18.36 4.64 18.34C4.61 18.31 4.58 18.28 4.56 18.25C4.53 18.22 4.51 18.19 4.5 18.15C4.48 18.12 4.46 18.08 4.45 18.04C4.44 18.01 4.43 17.97 4.43 17.93C4.43 17.89 4.43 17.85 4.43 17.81C4.44 17.77 4.44 17.73 4.46 17.7C4.47 17.66 4.48 17.62 4.5 17.59C4.52 17.55 4.54 17.52 4.57 17.49L8.43 12.89L4.57 8.29C4.54 8.26 4.52 8.23 4.5 8.19C4.48 8.16 4.47 8.12 4.46 8.08C4.44 8.05 4.44 8.01 4.43 7.97C4.43 7.93 4.43 7.89 4.43 7.85C4.43 7.81 4.44 7.77 4.45 7.74C4.46 7.7 4.48 7.66 4.5 7.63C4.51 7.59 4.53 7.56 4.56 7.53C4.58 7.5 4.61 7.47 4.64 7.44Z" fill="#4C4C4C" fill-opacity="1.000000" fill-rule="nonzero"/>
	</g>
</svg>
