<svg width="24.000000" height="24.000000" viewBox="0 0 24 24" fill="none" xmlns="http://www.w3.org/2000/svg" xmlns:xlink="http://www.w3.org/1999/xlink">
	<desc>
			Created with Pixso.
	</desc>
	<defs>
		<clipPath id="clip243_19">
			<rect id="svg" width="24.000000" height="24.000000" fill="white" fill-opacity="0"/>
		</clipPath>
	</defs>
	<g clip-path="url(#clip243_19)">
		<path id="矢量 72" d="M17.06 5.49L6.93 5.49C6.82 5.49 6.72 5.5 6.62 5.52C6.53 5.54 6.45 5.56 6.36 5.6C6.28 5.63 6.2 5.68 6.13 5.73C6.05 5.78 5.98 5.84 5.91 5.91C5.84 5.98 5.78 6.05 5.72 6.13L5.72 6.13Q5.65 6.24 5.6 6.37C5.56 6.45 5.54 6.53 5.52 6.62C5.5 6.72 5.49 6.82 5.49 6.93L5.49 17.07C5.49 17.17 5.5 17.27 5.52 17.37C5.54 17.46 5.56 17.54 5.6 17.63C5.63 17.71 5.68 17.79 5.72 17.86C5.78 17.94 5.84 18.02 5.91 18.08C5.98 18.15 6.05 18.21 6.13 18.27C6.2 18.32 6.28 18.36 6.36 18.39C6.45 18.43 6.53 18.45 6.62 18.47C6.72 18.5 6.82 18.51 6.93 18.51L9.99 18.51C10 18.51 10 18.51 10.01 18.51C10.01 18.51 10.02 18.51 10.02 18.51L13.97 18.51C13.97 18.51 13.98 18.51 13.98 18.51C13.99 18.51 13.99 18.51 14 18.51L17.06 18.51C17.17 18.51 17.27 18.5 17.37 18.47C17.46 18.45 17.54 18.43 17.63 18.39C17.71 18.36 17.79 18.32 17.86 18.27C17.94 18.21 18.01 18.15 18.08 18.08C18.15 18.02 18.21 17.94 18.27 17.86C18.31 17.79 18.36 17.71 18.39 17.63C18.43 17.54 18.45 17.46 18.47 17.37C18.49 17.27 18.5 17.17 18.5 17.07L18.5 6.93C18.5 6.82 18.49 6.72 18.47 6.62C18.45 6.53 18.43 6.45 18.39 6.37C18.36 6.28 18.31 6.2 18.27 6.13C18.21 6.05 18.15 5.98 18.08 5.91C18.01 5.84 17.94 5.78 17.86 5.73C17.79 5.68 17.71 5.63 17.63 5.6C17.54 5.56 17.46 5.54 17.37 5.52C17.27 5.5 17.17 5.49 17.06 5.49ZM17.41 13.44L17.41 10.55L14.53 10.55L14.53 13.44L17.41 13.44ZM14.53 14.53L17.41 14.53L17.41 17.07C17.41 17.11 17.4 17.16 17.39 17.2C17.37 17.24 17.35 17.28 17.31 17.31C17.28 17.35 17.24 17.37 17.2 17.39L17.2 17.39L17.2 17.39Q17.14 17.41 17.06 17.41L14.53 17.41L14.53 14.53ZM13.44 13.44L13.44 10.55L10.55 10.55L10.55 13.44L13.44 13.44ZM10.55 14.53L13.44 14.53L13.44 17.41L10.55 17.41L10.55 14.53ZM9.46 13.44L9.46 10.55L6.58 10.55L6.58 13.44L9.46 13.44ZM6.58 14.53L9.46 14.53L9.46 17.41L6.93 17.41Q6.85 17.41 6.79 17.39L6.79 17.39C6.75 17.37 6.71 17.35 6.68 17.31C6.64 17.28 6.62 17.24 6.6 17.2C6.59 17.16 6.58 17.11 6.58 17.07L6.58 14.53ZM6.58 9.46L9.46 9.46L9.46 6.58L6.93 6.58Q6.85 6.58 6.79 6.6L6.79 6.6L6.79 6.6C6.75 6.62 6.71 6.65 6.68 6.68C6.64 6.71 6.62 6.75 6.6 6.79C6.59 6.83 6.58 6.88 6.58 6.93L6.58 9.46ZM10.55 9.46L13.44 9.46L13.44 6.58L10.55 6.58L10.55 9.46ZM14.53 9.46L17.41 9.46L17.41 6.93C17.41 6.88 17.4 6.83 17.39 6.79C17.37 6.75 17.35 6.71 17.31 6.68C17.28 6.65 17.24 6.62 17.2 6.6L17.2 6.6L17.2 6.6Q17.14 6.58 17.06 6.58L14.53 6.58L14.53 9.46Z" fill="#4C4C4C" fill-opacity="1.000000" fill-rule="evenodd"/>
	</g>
</svg>
