<svg width="24.000000" height="24.000000" viewBox="0 0 24 24" fill="none" xmlns="http://www.w3.org/2000/svg" xmlns:xlink="http://www.w3.org/1999/xlink">
	<desc>
			Created with Pixso.
	</desc>
	<defs>
		<clipPath id="clip221_758">
			<rect id="svg" width="24.000000" height="24.000000" fill="white" fill-opacity="0"/>
		</clipPath>
	</defs>
	<g clip-path="url(#clip221_758)">
		<path id="矢量 66" d="M4.38 5.47C4.38 5.19 4.63 4.97 4.96 4.97L19.03 4.97C19.36 4.97 19.61 5.19 19.61 5.47C19.61 5.75 19.36 5.97 19.03 5.97L4.96 5.97C4.63 5.97 4.38 5.75 4.38 5.47ZM6.88 9.82C6.88 9.54 7.13 9.32 7.46 9.32L16.53 9.32C16.86 9.32 17.11 9.54 17.11 9.82C17.11 10.1 16.86 10.32 16.53 10.32L7.46 10.32C7.13 10.32 6.88 10.1 6.88 9.82ZM4.96 13.67C4.63 13.67 4.38 13.89 4.38 14.17C4.38 14.45 4.63 14.67 4.96 14.67L19.03 14.67C19.36 14.67 19.61 14.45 19.61 14.17C19.61 13.89 19.36 13.67 19.03 13.67L4.96 13.67ZM6.88 18.52C6.88 18.24 7.1 18.02 7.38 18.02L16.38 18.02C16.66 18.02 16.88 18.24 16.88 18.52C16.88 18.8 16.66 19.02 16.38 19.02L7.38 19.02C7.1 19.02 6.88 18.8 6.88 18.52Z" fill="#4C4C4C" fill-opacity="1.000000" fill-rule="evenodd"/>
		<path id="矢量 66" d="M4.38 5.47C4.38 5.75 4.63 5.97 4.96 5.97L19.03 5.97C19.36 5.97 19.61 5.75 19.61 5.47C19.61 5.19 19.36 4.97 19.03 4.97L4.96 4.97C4.63 4.97 4.38 5.19 4.38 5.47ZM6.88 9.82C6.88 10.1 7.13 10.32 7.46 10.32L16.53 10.32C16.86 10.32 17.11 10.1 17.11 9.82C17.11 9.54 16.86 9.32 16.53 9.32L7.46 9.32C7.13 9.32 6.88 9.54 6.88 9.82ZM4.38 14.17C4.38 14.45 4.63 14.67 4.96 14.67L19.03 14.67C19.36 14.67 19.61 14.45 19.61 14.17C19.61 13.89 19.36 13.67 19.03 13.67L4.96 13.67C4.63 13.67 4.38 13.89 4.38 14.17ZM6.88 18.52C6.88 18.8 7.1 19.02 7.38 19.02L16.38 19.02C16.66 19.02 16.88 18.8 16.88 18.52C16.88 18.24 16.66 18.02 16.38 18.02L7.38 18.02C7.1 18.02 6.88 18.24 6.88 18.52Z" stroke="#4C4C4C" stroke-opacity="1.000000" stroke-width="0.400000"/>
	</g>
</svg>
