<svg width="24.000000" height="24.000000" viewBox="0 0 24 24" fill="none" xmlns="http://www.w3.org/2000/svg" xmlns:xlink="http://www.w3.org/1999/xlink">
	<desc>
			Created with Pixso.
	</desc>
	<defs>
		<clipPath id="clip221_328">
			<rect id="svg" width="24.000000" height="24.000000" fill="white" fill-opacity="0"/>
		</clipPath>
	</defs>
	<g clip-path="url(#clip221_328)">
		<path id="矢量 51" d="M7.8 7.67L7.8 4.68C7.8 4.3 7.5 3.99 7.12 3.99C6.73 3.99 6.43 4.3 6.43 4.68L6.43 10.65C6.43 11.06 6.47 11.47 6.56 11.86C6.63 12.18 6.73 12.5 6.87 12.82C7 13.13 7.16 13.43 7.34 13.71C7.55 14.02 7.79 14.31 8.06 14.58C8.33 14.86 8.62 15.09 8.93 15.3C9.22 15.49 9.51 15.64 9.83 15.78C10.14 15.91 10.46 16.01 10.79 16.08C11.18 16.17 11.58 16.21 12 16.21C12.75 16.21 13.47 16.07 14.16 15.78C14.48 15.64 14.77 15.49 15.06 15.3C15.37 15.09 15.66 14.86 15.93 14.58C16.44 14.07 16.84 13.48 17.12 12.82C17.41 12.13 17.56 11.4 17.56 10.65L17.56 4.68C17.56 4.3 17.26 3.99 16.87 3.99C16.49 3.99 16.19 4.3 16.19 4.68L16.19 10.65C16.19 10.97 16.15 11.28 16.08 11.59C16.03 11.82 15.95 12.05 15.86 12.28C15.64 12.78 15.35 13.23 14.96 13.61C14.75 13.82 14.53 14 14.29 14.16C14.08 14.3 13.86 14.41 13.63 14.51C13.4 14.61 13.17 14.68 12.93 14.74C12.63 14.81 12.31 14.84 12 14.84C11.43 14.84 10.88 14.73 10.36 14.51C9.86 14.3 9.42 14 9.03 13.61C8.82 13.41 8.64 13.18 8.48 12.94C8.35 12.73 8.23 12.51 8.13 12.28C8.04 12.05 7.96 11.82 7.91 11.59C7.84 11.28 7.8 10.97 7.8 10.65L7.8 7.67ZM4.19 19.39C4.19 19.06 4.45 18.79 4.79 18.79L19.2 18.79C19.54 18.79 19.8 19.06 19.8 19.39C19.8 19.73 19.54 20 19.2 20L4.79 20C4.45 20 4.19 19.73 4.19 19.39Z" fill="#4C4C4C" fill-opacity="1.000000" fill-rule="evenodd"/>
	</g>
</svg>
